<?xml version="1.0" encoding="UTF-8"?>
<svg id="Layer_2" data-name="Layer 2" xmlns="http://www.w3.org/2000/svg" width="7.06mm" height="6.35mm" viewBox="0 0 20 18">
  <defs>
    <style>
      .cls-1 {
        fill: #545352;
      }
    </style>
  </defs>
  <g id="Layer_1-2" data-name="Layer 1">
    <path class="cls-1" d="m0,9.78c0-2.09,1.88-3.8,4.23-3.9h.21s4.79,0,4.79,0v5.29c0,.38.34.68.77.68.39,0,.71-.25.76-.59v-.09s0-5.29,0-5.29h4.78c2.38,0,4.34,1.66,4.45,3.74v.18s0,4.29,0,4.29c0,2.1-1.88,3.81-4.23,3.91h-.21s-11.11,0-11.11,0C2.06,18,.11,16.34,0,14.26v-.18s0-4.3,0-4.3ZM6.55,3.67c-.28-.24-.31-.61-.08-.87l.07-.07L9.45.2c.15-.13.34-.2.55-.2.16,0,.32.04.45.13l.09.07,2.91,2.53c.15.13.23.3.23.47,0,.17-.08.35-.23.48-.27.24-.7.26-1,.06l-.09-.06-1.59-1.39v3.59h-1.54v-3.59s-1.59,1.39-1.59,1.39c-.3.26-.79.26-1.09,0Z"/>
  </g>
</svg>