<?xml version="1.0" encoding="UTF-8"?>
<svg id="Layer_2" data-name="Layer 2" xmlns="http://www.w3.org/2000/svg" width="7.06mm" height="7.76mm" viewBox="0 0 20 22">
  <defs>
    <style>
      .cls-1 {
        fill: #545352;
      }
    </style>
  </defs>
  <g id="Layer_1-2" data-name="Layer 1">
    <path class="cls-1" d="m14.06,0c.47,0,.84.36.85.85v.82c3.06.24,5.08,2.3,5.09,5.47v9.27c.02,3.45-2.17,5.58-5.69,5.58H5.72C2.23,22,.02,19.83.01,16.37V7.21C0,4.02,1.95,1.96,5.01,1.68v-.82c0-.48.36-.85.84-.85.48,0,.84.36.85.85v.77s6.52,0,6.52,0v-.77C13.21.36,13.57,0,14.06,0Zm.45,15.61h-.01c-.5.01-.91.43-.9.94,0,.51.41.92.91.93.51,0,.93-.42.93-.94,0-.52-.42-.93-.93-.93Zm-9.04,0c-.5.02-.9.44-.9.95.02.51.44.9.94.88.49-.02.89-.44.87-.95-.01-.49-.42-.88-.91-.88Zm4.52,0c-.5.02-.9.44-.9.95.02.51.44.9.94.88.49-.02.89-.44.87-.95-.01-.49-.42-.88-.91-.88Zm-4.53-3.95c-.5.02-.9.44-.9.95.02.51.44.9.94.88.49-.02.89-.44.86-.95-.01-.49-.42-.88-.91-.88Zm4.52-.04c-.5.02-.9.44-.9.95.02.51.44.9.94.88.49-.02.89-.44.87-.95-.01-.49-.42-.88-.91-.88Zm4.52,0c-.5.01-.9.42-.9.92h0c.01.52.43.9.93.89.49-.01.89-.43.88-.94-.02-.48-.42-.88-.91-.88Zm-1.28-8.31h-6.52s0,.9,0,.9c0,.47-.36.85-.84.85-.48,0-.85-.37-.85-.85v-.85c-2.14.21-3.32,1.46-3.32,3.84v.34s16.61-.02,16.61-.02v-.38c-.05-2.36-1.25-3.6-3.4-3.79v.85c0,.47-.37.85-.84.85-.48,0-.85-.37-.85-.85v-.89Z"/>
  </g>
</svg>