<?xml version="1.0" encoding="UTF-8"?>
<svg id="Layer_2" data-name="Layer 2" xmlns="http://www.w3.org/2000/svg" width="105.63mm" height="80.69mm" viewBox="0 0 299.43 228.73">
  <defs>
    <style>
      .cls-1 {
        fill: #b2dff2;
        fill-rule: evenodd;
      }
    </style>
  </defs>
  <g id="Layer_1-2" data-name="Layer 1">
    <path class="cls-1" d="m137.53,73.85l7.17-69.22c.08-.85.37-1.63.82-2.29l.15-.22.05-.07c.2-.26.42-.51.67-.73l.15-.12.13-.11.2-.15.09-.06c.11-.07.23-.15.34-.21l.13-.07.21-.1.24-.1.21-.08.15-.05c.66-.22,1.38-.3,2.12-.23l92.03,9.52c2.84.29,4.9,2.83,4.6,5.67l-.08.82h47.36c2.85,0,5.16,2.31,5.16,5.16v23.13c0,1.61-.74,3.12-2.02,4.1l-58.5,44.9-1.44,13.91c-.1,1.01-.51,1.97-1.16,2.76l-10.79,13.05v59.8c0,.45-.06.89-.18,1.31l-.07.26-.03.08c-.21.62-.54,1.21-.98,1.72l-.15.18-.08.08-.09.08-.09.09-.12.11-47.51,40.72c-1.93,1.65-4.78,1.65-6.71,0l-44.16-37.85-44.15,37.85c-1.93,1.65-4.79,1.65-6.72,0l-46.63-39.97-.89-.75c-1.14-.98-1.8-2.41-1.8-3.92v-68.06L.42,57.95c-.92-2.14-.31-4.63,1.51-6.08,1.81-1.47,4.38-1.53,6.26-.17l48.96,35.41,16.31-12.24c.89-.67,1.98-1.03,3.1-1.03h60.97Zm-17.37,18.62l-81.61,90.65,39.27,33.65,42.34-36.3v-88h0Zm10.32-8.29h5.98l-3.08,29.74v.13s-.02.19-.02.19v.21s0,.19,0,.19v.21s.03.18.03.18l.02.21.03.18.04.2.04.18.05.19.08.25.09.23.21.46.12.22.13.21.14.21.15.2.17.19.17.18.19.18.19.17.13.11.15.11.15.1.17.1.15.09.17.09.15.08.2.08.15.06.2.07.17.05.21.06.19.04.2.04.13.02.12.02c.05.01.09.01.13.02l19.29,1.99,55.66,60.81-40.1,34.38-42.35-36.3v-96.29h0Zm-16.76,0l-78.26,86.95v-54.83l42.81-32.11h35.46Zm101.46,43.39v41.99l-42.46-46.38,42.46,4.39Zm4.85-14.1l-3.22,3.89-72.64-7.52,9.35-90.46,66.51,94.08h0Zm-187.61-7.79l16.07-12.05-31.08-22.49,15.01,34.54h0ZM160.61,11.47l66.26,93.75.5-.6,8.83-85.34-75.58-7.82h0Zm85.23,14.89l-5.46,52.83,48.73-37.41v-15.43h-43.27Z"/>
  </g>
</svg>