<?xml version="1.0" encoding="UTF-8"?>
<svg id="Layer_2" data-name="Layer 2" xmlns="http://www.w3.org/2000/svg" width="231.07mm" height="231.07mm" xmlns:xlink="http://www.w3.org/1999/xlink" viewBox="0 0 655 655">
  <defs>
    <style>
      .cls-1 {
        fill: none;
      }

      .cls-2 {
        clip-path: url(#clippath);
      }

      .cls-3 {
        fill: #ea5360;
      }

      .cls-4 {
        fill: rgba(255, 255, 255, .25);
      }
    </style>
    <clipPath id="clippath">
      <rect class="cls-1" width="655" height="655"/>
    </clipPath>
  </defs>
  <g id="Layer_1-2" data-name="Layer 1">
    <g class="cls-2">
      <g>
        <path class="cls-3" d="m-197.98,401.06c.3-5.08,3.21-9.67,8.18-13.13-1.9-5.63-1.54-10.96,1.14-15.13,3.51-5.53,10.22-8.2,18.85-7.54,5.94.46,12.43,2.56,18.7,5.88-3.76-18.25,1.39-33.77,12.75-36.76,4.91-1.27,10.18.08,15.02,3.73,4.77-3.54,9.94-4.85,14.76-3.59,11.04,2.87,16.25,17.57,13.15,35.13,9.87-5.61,20.24-7.94,28.22-6.18,4.72,1.03,8.42,3.46,10.69,7.01,2.74,4.28,3.09,9.71,1.11,15.42,4.84,3.44,7.68,7.98,7.97,12.94.69,11.39-11.67,20.97-29.37,23.44.91.83,1.84,1.65,2.69,2.53,24.7.15,44.34.06,58.29-.25,9.81-.15,18.97,2.4,27.18,6.17l-32.2-35.38c-1.67-1.82-2.03-4.48-.93-6.69l7.76-15.56-23.21-10.1c-3.03-1.32-4.42-4.84-3.1-7.86,1.32-3.02,4.82-4.42,7.86-3.09l23.79,10.35,11.16-22.37-4.67-11.68c-1.89,4.78-5.01,8.31-9.16,9.91-1.75.7-3.59,1.04-5.5,1.04-2.36,0-4.82-.53-7.27-1.6-7.12-3.08-13.83-10.38-18.55-19.96-3.14,6.73-7.28,12.58-12,16.63-4.69,4.01-9.57,6.07-14.18,6.07-1.87,0-3.7-.34-5.46-1.03-4.73-1.84-8.2-6.03-9.97-11.85-.1,0-.19,0-.28,0-5.82,0-10.66-1.99-13.76-5.77-4.16-5.05-4.63-12.24-1.34-20.25,2.21-5.35,6.03-10.71,10.89-15.52-18.46-2.1-31.5-11.87-30.82-23.55.3-5.07,3.21-9.67,8.18-13.13-1.9-5.63-1.54-10.95,1.14-15.13,3.51-5.52,10.15-8.22,18.86-7.54,5.94.46,12.43,2.56,18.7,5.88-3.77-18.25,1.38-33.77,12.74-36.76,4.91-1.28,10.18.08,15.01,3.73,4.77-3.54,9.95-4.83,14.76-3.59,11.03,2.87,16.25,17.58,13.15,35.13,9.87-5.61,20.24-7.93,28.22-6.18,4.72,1.03,8.42,3.46,10.69,7.01,2.73,4.28,3.08,9.71,1.11,15.42,4.84,3.44,7.68,7.97,7.97,12.94.69,11.38-11.63,20.95-29.29,23.43,8.35,7.65,13.74,16.76,14.53,24.9.47,4.8-.7,9.07-3.37,12.32-1.07,1.3-2.39,2.34-3.81,3.2l5.58,13.96c.63,1.58.56,3.36-.2,4.89l-13.45,26.96c.11,1,.06,2.02-.37,3-.53,1.22-1.43,2.14-2.5,2.76l-7.31,14.65,51.9,57.03,7.98-29.7-29.49-32.66c-1.57-1.74-1.98-4.23-1.05-6.37l13.09-30.29c1.31-3.03,4.84-4.41,7.85-3.11,2.04.88,3.25,2.79,3.48,4.86.84-4.29,3.49-8.17,7.81-11.19-1.9-5.63-1.55-10.96,1.13-15.13.54-.85,1.29-1.5,1.97-2.21-10.21-13.37-21.55-28.52-21.55-28.52-.95-1.27-1.36-2.88-1.13-4.46.23-1.58,1.09-2.99,2.37-3.94l19.22-14.12-24.86-45.67c-1.58-2.9-.51-6.53,2.39-8.11,2.91-1.58,6.53-.51,8.11,2.39l27.35,50.26c1.43,2.63.7,5.9-1.71,7.67l-18.56,13.64c4.48,5.97,12.38,16.45,19.42,25.64,1.83-.22,3.77-.27,5.83-.11,4.29.33,8.88,1.57,13.46,3.44l4.14-5.55c-.95-14.62,4.19-26.23,13.85-28.76.16-.04.32-.02.48-.06l1.23-8.17c-5.12-.36-9.31-2.2-12.08-5.62-7.17-8.72-2.89-23.51,9.68-35.85-7.58-.87-14.62-3.02-20.06-6.35-7.4-4.52-11.26-10.6-10.88-17.13.3-5.08,3.21-9.67,8.18-13.14-1.9-5.63-1.54-10.95,1.14-15.13,3.52-5.53,10.2-8.22,18.86-7.54,5.94.46,12.43,2.56,18.7,5.88-3.77-18.25,1.38-33.77,12.74-36.76,4.91-1.28,10.18.08,15.01,3.73,4.77-3.54,9.94-4.85,14.76-3.59,11.03,2.86,16.25,17.57,13.15,35.14,9.87-5.61,20.23-7.94,28.22-6.18,4.72,1.03,8.42,3.46,10.69,7.01,2.73,4.28,3.08,9.71,1.11,15.42,4.84,3.44,7.68,7.98,7.97,12.94.69,11.39-11.67,20.97-29.37,23.44,5.63,5.16,10.07,11.04,12.52,16.93,3.33,8,2.88,15.2-1.28,20.28-3.22,3.9-8.24,5.88-14.33,5.79-1.77,5.66-5.19,9.76-9.82,11.57-1.75.69-3.59,1.03-5.48,1.03-2.38,0-4.85-.54-7.31-1.61-7.11-3.09-13.81-10.38-18.5-19.92-3.81,8.2-8.9,14.64-14.43,18.51,10.22,3.58,15.01,17.73,12.03,34.65,9.86-5.61,20.22-7.94,28.22-6.18,4.72,1.03,8.42,3.46,10.7,7.01,2.74,4.28,3.08,9.71,1.11,15.43,4.84,3.44,7.68,7.97,7.97,12.93.69,11.39-11.66,20.98-29.37,23.44,5.63,5.16,10.07,11.05,12.52,16.93,3.33,8,2.88,15.2-1.28,20.27-3.27,3.97-8.29,6.01-14.34,5.82-1.77,5.65-5.19,9.73-9.82,11.55-1.75.68-3.59,1.03-5.48,1.03-2.38,0-4.84-.54-7.32-1.61-7.12-3.1-13.83-10.41-18.53-19.97-3.14,6.74-7.29,12.61-12.01,16.65-4.68,4.01-9.57,6.07-14.18,6.07-1.87,0-3.7-.34-5.45-1.03-4.36-1.7-7.6-5.47-9.47-10.61l-5.65,8.9,17.79,20.71c.72.84,1.12,1.89,1.29,2.98,20.23-9.93,42.75-20.76,45.94-21.42.84-.17,3.09-.63,43.44,3.25v-32.4c0-3.3,2.67-5.98,5.98-5.98s5.98,2.67,5.98,5.98v33.57c7.9.78,16.91,1.69,27.26,2.76l8.52-10.12c-1.93-.94-3.67-2.14-4.99-3.75-4.16-5.05-4.64-12.24-1.34-20.25,2.2-5.35,6.02-10.71,10.89-15.52-18.46-2.1-31.5-11.87-30.82-23.54.29-5.08,3.21-9.67,8.18-13.14-1.9-5.63-1.54-10.95,1.14-15.13,3.52-5.52,10.23-8.2,18.86-7.53,5.94.46,12.43,2.56,18.7,5.88-3.76-18.26,1.38-33.77,12.74-36.76,4.91-1.28,10.18.07,15.02,3.73,4.77-3.55,9.94-4.85,14.76-3.59,11.03,2.86,16.25,17.57,13.15,35.13,9.87-5.61,20.22-7.93,28.22-6.18,4.72,1.03,8.42,3.46,10.69,7.01,2.74,4.28,3.08,9.71,1.11,15.43,4.84,3.45,7.68,7.98,7.97,12.94.69,11.39-11.66,20.97-29.37,23.44,5.63,5.16,10.07,11.05,12.52,16.93,3.33,8,2.88,15.19-1.28,20.28-3.22,3.9-8.23,5.7-14.33,5.79-1.77,5.67-5.2,9.76-9.82,11.57-1.75.7-3.59,1.03-5.49,1.03-2.37,0-4.84-.54-7.31-1.6-7.12-3.1-13.84-10.41-18.53-19.97-3.14,6.74-7.29,12.6-12.01,16.65-4.68,4.01-9.57,6.07-14.19,6.07-1.87,0-3.7-.34-5.45-1.02-3.58-1.4-6.44-4.16-8.39-7.94l-12.05,14.31c-1.27,1.51-3.21,2.27-5.18,2.1-28.77-2.97-75.59-7.56-82.26-7.61-4.4,1.66-27.29,12.65-47.59,22.64l8.44,197.65c.07,1.63-.53,3.22-1.65,4.39-1.13,1.18-2.69,1.84-4.32,1.84h-57.84c-1.63,0-3.19-.65-4.31-1.84-1.13-1.17-1.73-2.76-1.66-4.39l8.21-192.39c-.64-.41-1.24-.92-1.7-1.57-.22-.32-24.95-31.87-54.78-31.12-12.38.28-29.17.38-49.93.3.4.8.89,1.6,1.22,2.41,3.33,8.01,2.88,15.2-1.28,20.27-3.26,3.97-8.18,5.96-14.34,5.82-1.77,5.65-5.19,9.73-9.81,11.55-1.78.7-3.63,1.05-5.52,1.05-4.61,0-9.48-2.05-14.16-6.03-4.52-3.84-8.51-9.32-11.62-15.63-3.15,6.77-7.3,12.66-12.04,16.72-4.69,4.01-9.57,6.07-14.18,6.07-1.87,0-3.7-.34-5.46-1.03-4.73-1.84-8.2-6.03-9.98-11.84-6.02.11-10.9-1.92-14.04-5.78-4.16-5.05-4.63-12.24-1.34-20.25,2.21-5.35,6.03-10.71,10.9-15.53-18.46-2.1-31.5-11.86-30.82-23.55h0ZM-48.67,269.53c0,2.83,2.3,5.13,5.12,5.13s5.12-2.3,5.12-5.13-2.3-5.13-5.12-5.13-5.12,2.3-5.12,5.13Zm-40.43,44.7c1.2,1.46,4.38,1.83,8.33.96,1.66-.38,3.42,0,4.8,1.01,1.38,1.01,2.27,2.56,2.43,4.26.39,4.13,1.76,7.13,3.58,7.84,1.71.64,4.58-.48,7.52-3,4.04-3.46,7.78-9.11,10.28-15.52,4.18-10.7,3.72-21.33.72-25.21-1.03-.55-2-1.18-2.89-1.92-4.52-1.2-13.23,1-22.75,8.86-5.3,4.36-9.51,9.69-11.53,14.6-1.47,3.57-1.66,6.68-.48,8.11Zm-3.23-75.62c-3.89-.31-6.87.48-7.87,2.06-1,1.56-.35,4.78,1.67,8.22.87,1.48,1.06,3.26.53,4.88-.54,1.63-1.75,2.95-3.32,3.63-3.79,1.63-6.22,3.85-6.34,5.8-.23,3.92,8.88,10.39,23.11,11.23,12.43.72,21.78-3.54,24.16-7.03.17-1.35.47-2.65.94-3.88-.57-4.67-5.4-12.07-15.4-18.44-5.8-3.7-12.17-6.05-17.47-6.46Zm59.13-31.08c-.22-.06-.44-.09-.68-.09-1.8,0-4.27,1.54-6.64,4.21-1.14,1.27-2.76,2-4.46,2h-.02c-1.71,0-3.34-.74-4.46-2.02-2.74-3.11-5.61-4.74-7.49-4.24-3.81,1-7.15,11.66-3.54,25.45,2.56,9.77,8.29,17.42,13,20.14,1.27-.31,2.59-.51,3.95-.51.81,0,1.6.13,2.38.24,4.07-2.6,8.9-9.31,11.58-19.73,3.57-13.79.18-24.44-3.62-25.43Zm52.22,53.47c-.11-1.89-2.48-4.07-6.18-5.7-1.56-.69-2.76-2.01-3.29-3.64-.53-1.63-.32-3.4.55-4.88,2.1-3.54,2.75-6.77,1.69-8.42-.66-1.03-2.1-1.53-3.18-1.77-.85-.19-1.86-.29-3.02-.29-4.6,0-11.46,1.67-19.07,6.56-8.75,5.63-14.03,13.35-15.14,18.57.99,1.82,1.65,3.81,1.93,5.94,3.07,3.02,10.96,5.65,22.62,4.94,14.24-.86,23.32-7.37,23.08-11.31Zm-27.48,29.71c-3.01-2.43-6.25-4.44-9.44-5.85-6.33-2.92-11.6-3.33-14.45-2.52-.81.71-1.69,1.34-2.63,1.9-2.6,3.77-3.25,12.68,1.36,24.5,4.16,10.56,10.28,16.31,14.25,18.03,1.02.44,2.48.86,3.67.4,1.78-.68,3.11-3.6,3.5-7.6.16-1.71,1.05-3.26,2.43-4.27,1.03-.75,2.26-1.14,3.51-1.14.43,0,.87.04,1.29.14,2.07.46,3.81.59,5.52.37,1.89-.19,2.64-.85,3.02-1.32.78-.95.81-2.46.7-3.56-.42-4.32-4.03-11.91-12.75-19.07Zm283.64,79.85c0,2.83,2.3,5.12,5.13,5.12s5.13-2.3,5.13-5.12-2.3-5.13-5.13-5.13-5.13,2.3-5.13,5.13Zm-43.66-30.93c-3.87-.3-6.87.49-7.86,2.05-1,1.56-.35,4.78,1.67,8.22.87,1.48,1.05,3.26.52,4.89-.54,1.63-1.75,2.95-3.32,3.63-3.79,1.63-6.22,3.85-6.33,5.8-.23,3.92,8.87,10.39,23.1,11.23,12.45.76,21.76-3.53,24.15-7.02.17-1.36.47-2.66.94-3.9-.57-4.66-5.41-12.07-15.4-18.44-5.8-3.7-12.17-6.05-17.47-6.46Zm59.13-31.08c-.22-.06-.44-.08-.68-.08-1.8,0-4.26,1.54-6.64,4.2-1.14,1.27-2.76,2-4.46,2h-.02c-1.71,0-3.34-.74-4.47-2.02-2.74-3.11-5.64-4.71-7.49-4.24-3.8,1-7.15,11.66-3.54,25.44,2.57,9.78,8.31,17.43,13.01,20.14,1.27-.3,2.58-.51,3.94-.51.82,0,1.6.13,2.39.24,4.07-2.6,8.89-9.31,11.58-19.73,3.57-13.8.19-24.46-3.62-25.44Zm52.22,53.47c-.11-1.89-2.48-4.07-6.18-5.7-1.57-.69-2.76-2.01-3.29-3.64-.52-1.63-.33-3.4.55-4.88,2.1-3.54,2.75-6.77,1.69-8.42-.66-1.03-2.1-1.54-3.18-1.78-.85-.19-1.86-.29-3.02-.29-4.61,0-11.46,1.67-19.07,6.56-8.75,5.62-14.03,13.35-15.14,18.56.99,1.82,1.65,3.82,1.93,5.95,3.07,3.02,10.93,5.67,22.62,4.94,14.24-.86,23.32-7.37,23.09-11.31Zm-52.61,47.73c4.15,10.55,10.26,16.3,14.23,18.03,1.02.44,2.5.89,3.66.41,1.76-.68,3.09-3.6,3.49-7.61.17-1.7,1.05-3.25,2.44-4.26,1.03-.74,2.26-1.14,3.51-1.14.43,0,.87.04,1.29.14,4.05.9,7.34.52,8.57-.96,1.16-1.42.96-4.52-.52-8.09-2.04-4.9-6.26-10.22-11.57-14.57-8.68-7.1-18.75-9.76-23.78-8.4-.82.73-1.7,1.36-2.65,1.92-2.7,3.86-3.12,13.19,1.35,24.52Zm-39.96,11.74c.39,4.13,1.77,7.14,3.58,7.84,1.71.68,4.59-.48,7.52-3,4.04-3.46,7.79-9.11,10.28-15.51,4.18-10.7,3.71-21.33.72-25.21-1.03-.54-1.99-1.18-2.89-1.92-4.53-1.19-13.22,1-22.75,8.86-5.3,4.36-9.5,9.68-11.53,14.6-1.47,3.58-1.67,6.68-.48,8.12,1.19,1.46,4.38,1.83,8.31.96,1.67-.37,3.42,0,4.8,1.01,1.39,1.01,2.27,2.56,2.44,4.25Zm-130.09-57.28c2.83,0,5.13-2.3,5.13-5.12s-2.3-5.13-5.13-5.13-5.13,2.3-5.13,5.13,2.3,5.12,5.13,5.12Zm-50.32,17.1c1.53-2,3.29-3.93,5.18-5.79-3.14-.36-6.22-.88-9.1-1.7l3.91,7.48Zm1.54-53.15c-3.86-.32-6.87.48-7.87,2.06-1,1.55-.34,4.78,1.67,8.22.87,1.48,1.06,3.26.53,4.89-.54,1.63-1.75,2.95-3.32,3.63-3.79,1.63-6.22,3.85-6.34,5.8-.11,1.83,1.88,4.21,5.18,6.23,4.54,2.77,11.07,4.59,17.93,4.99,5.26.32,9.93-.29,13.81-1.33.04,0,.08-.04.13-.05.01,0,.02,0,.04,0,5.2-1.43,8.81-3.65,10.18-5.64.17-1.35.47-2.65.94-3.89-.57-4.67-5.4-12.08-15.39-18.44-5.8-3.69-12.17-6.05-17.47-6.46Zm71.65-108.94c0,2.82,2.3,5.12,5.12,5.12s5.13-2.3,5.13-5.12-2.3-5.13-5.13-5.13-5.12,2.3-5.12,5.13Zm-43.66-30.93c-3.88-.31-6.87.48-7.87,2.06-1,1.56-.34,4.78,1.67,8.22.87,1.48,1.06,3.26.53,4.89-.54,1.63-1.75,2.95-3.32,3.63-3.79,1.63-6.22,3.85-6.34,5.8-.11,1.83,1.88,4.21,5.18,6.23,4.54,2.77,11.07,4.59,17.93,4.99,3.47.21,6.68,0,9.6-.44.22-.07.45-.09.68-.13,7.16-1.23,12.21-4.01,13.88-6.45.17-1.35.47-2.65.94-3.89-.57-4.66-5.4-12.07-15.4-18.44-5.8-3.69-12.17-6.05-17.47-6.46Zm59.13-31.08c-.22-.06-.45-.08-.68-.08-1.8,0-4.26,1.54-6.64,4.2-1.14,1.28-2.58,2.17-4.47,2-1.71,0-3.34-.74-4.47-2.02-2.74-3.11-5.66-4.73-7.49-4.24-3.8,1-7.15,11.66-3.54,25.44,2.57,9.77,8.3,17.42,13,20.14,1.28-.31,2.58-.51,3.95-.51.82,0,1.6.13,2.39.24,4.07-2.6,8.9-9.31,11.58-19.73,3.57-13.8.19-24.45-3.62-25.44Zm52.22,53.48c-.11-1.89-2.48-4.08-6.18-5.7-1.56-.69-2.76-2.01-3.29-3.64-.52-1.63-.33-3.4.55-4.88,2.1-3.55,2.75-6.78,1.69-8.42-.66-1.03-2.1-1.54-3.18-1.78-.85-.19-1.86-.29-3.01-.29-4.61,0-11.46,1.67-19.08,6.56-8.74,5.62-14.03,13.34-15.14,18.56.99,1.82,1.65,3.82,1.93,5.95,3.06,3.03,10.91,5.67,22.62,4.94,14.24-.86,23.32-7.37,23.09-11.3Zm-52.61,47.72c4.15,10.54,10.26,16.3,14.23,18.03,1.03.44,2.49.87,3.66.42,1.76-.69,3.09-3.61,3.49-7.61.17-1.7,1.05-3.25,2.44-4.26,1.03-.74,2.26-1.14,3.51-1.14.43,0,.86.04,1.29.14,4.05.9,7.34.52,8.57-.97,1.16-1.42.96-4.52-.52-8.09-2.04-4.91-6.27-10.22-11.58-14.57-8.67-7.1-18.74-9.76-23.78-8.4-.82.73-1.7,1.36-2.65,1.92-2.71,3.86-3.13,13.19,1.35,24.52Zm-18.54,1.1c4.53-11.62,3.33-21.76.67-25.25-1.05-.56-2.03-1.21-2.93-1.96-3.18-.77-8.81-.04-16.1,4.25-2.17,1.27-4.37,2.83-6.56,4.65-11.01,9.09-14.53,19.7-12.01,22.76,1.15,1.42,4.39,1.78,8.28.92,1.77-.39,3.62.04,5.04,1.17,1.02.82,1.63,1.98,1.95,3.23,0,.02.01.04.02.06.07.26.21.49.24.76.09.37.14.74.15,1.11.48,3.62,1.74,6.15,3.43,6.79,3.65,1.4,12.65-5.21,17.84-18.47Zm-9.05,37.55c-.22-.06-.44-.08-.68-.08-1.8,0-4.27,1.54-6.64,4.21-1.14,1.27-2.76,2-4.46,2h-.02c-1.71,0-3.33-.74-4.47-2.02-2.74-3.1-5.63-4.74-7.48-4.24-3.8,1-7.15,11.66-3.54,25.45,2.57,9.77,8.3,17.42,13,20.14,1.28-.3,2.58-.5,3.95-.5.81,0,1.6.13,2.38.24,4.07-2.6,8.9-9.31,11.58-19.73,3.57-13.8.19-24.45-3.62-25.44Zm52.22,53.48c-.11-1.89-2.48-4.08-6.18-5.7-1.56-.69-2.76-2.01-3.28-3.64-.52-1.63-.33-3.4.55-4.88,2.1-3.54,2.75-6.77,1.69-8.42-.66-1.04-2.1-1.54-3.19-1.77-.85-.19-1.86-.29-3.01-.29-4.61,0-11.46,1.67-19.07,6.56-8.74,5.62-14.03,13.35-15.14,18.56.99,1.82,1.65,3.81,1.93,5.95,3.06,3.02,10.93,5.65,22.62,4.94,14.24-.86,23.32-7.37,23.09-11.3Zm-38.38,65.75c1.03.44,2.5.88,3.65.42,1.76-.7,3.1-3.61,3.49-7.61.17-1.7,1.05-3.25,2.43-4.25,1.03-.75,2.26-1.14,3.51-1.14.43,0,.86.05,1.29.14,4.06.9,7.35.51,8.57-.97,1.16-1.42.96-4.52-.52-8.09-2.04-4.91-6.27-10.22-11.58-14.57-8.68-7.1-18.75-9.75-23.78-8.4-.82.73-1.7,1.36-2.65,1.93-2.71,3.86-3.13,13.19,1.35,24.52,4.15,10.54,10.26,16.29,14.23,18.03Zm-56.61-10.54c1.38,1.01,2.27,2.56,2.43,4.26.39,4.13,1.77,7.13,3.58,7.84,1.72.67,4.59-.48,7.52-2.99,4.04-3.46,7.79-9.11,10.28-15.51,4.17-10.7,3.71-21.33.72-25.22-1.03-.55-2-1.18-2.89-1.92-4.53-1.18-13.22,1-22.75,8.86-5.3,4.36-9.5,9.69-11.53,14.6-1.47,3.58-1.66,6.68-.48,8.11,1.19,1.46,4.38,1.82,8.32.97,1.67-.37,3.41,0,4.8,1.01Zm2.52,250.14l-.55-12.79h-20.23c-3.3,0-5.98-2.67-5.98-5.98s2.67-5.98,5.98-5.98h19.72s-2.4-56.2-2.4-56.2h-13.53c-3.3,0-5.98-2.67-5.98-5.98s2.68-5.98,5.98-5.98h13.02l-2.49-58.28h-14.32c-3.3,0-5.98-2.67-5.98-5.98s2.67-5.98,5.98-5.98h13.81l-1.64-38.55-19.32-22.51c-1.71-1.99-1.92-4.88-.51-7.1l6.66-10.48c-1.15-.78-2.2-1.67-3.09-2.75-3.65-4.43-4.46-10.51-2.37-17.35l-11.79-22.55c-.86-1.63-.86-3.52-.14-5.17-4.5-3.84-6.91-8.42-6.93-13.29,0,.02,0,.05-.02.07l-11.56,26.77,29.1,32.23c1.36,1.51,1.86,3.6,1.34,5.56l-9.45,35.15-3.17,74.3h13.61c3.3,0,5.98,2.67,5.98,5.98s-2.67,5.98-5.98,5.98h-14.12l-2.34,54.88h16.46c3.3,0,5.98,2.67,5.98,5.98s-2.67,5.98-5.98,5.98h-16.96l-2.13,50h45.36Zm-217.33-247.77c0,2.82,2.3,5.12,5.13,5.12s5.12-2.3,5.12-5.12-2.3-5.13-5.12-5.13-5.13,2.3-5.13,5.13Zm15.48-62.01c-.22-.06-.44-.08-.68-.08-1.8,0-4.27,1.54-6.65,4.2-1.13,1.27-2.76,2-4.46,2h-.02c-1.71,0-3.34-.74-4.47-2.02-2.74-3.11-5.6-4.74-7.49-4.24-3.8,1-7.15,11.66-3.55,25.45,2.57,9.77,8.3,17.42,13.01,20.14,1.27-.3,2.59-.51,3.95-.51.82,0,1.6.13,2.39.24,4.07-2.6,8.9-9.31,11.58-19.73,3.58-13.79.19-24.44-3.61-25.43Zm52.22,53.47c-.11-1.89-2.48-4.07-6.18-5.7-1.56-.69-2.76-2.02-3.29-3.64-.53-1.63-.32-3.4.55-4.88,2.1-3.54,2.75-6.77,1.69-8.42-.66-1.03-2.1-1.53-3.18-1.77-.85-.19-1.86-.29-3.02-.29-4.6,0-11.46,1.67-19.07,6.56-8.75,5.63-14.03,13.35-15.14,18.56.99,1.82,1.65,3.81,1.93,5.94,3.07,3.03,10.96,5.65,22.62,4.95,14.23-.87,23.32-7.38,23.08-11.31h0Zm-52.61,47.72c2.52,6.4,6.28,12.04,10.32,15.49,2.95,2.51,5.85,3.63,7.56,2.96,1.76-.7,3.1-3.61,3.5-7.61.17-1.71,1.05-3.25,2.44-4.25,1.03-.74,2.26-1.14,3.51-1.14.43,0,.86.05,1.29.14,4.06.9,7.34.52,8.57-.97,1.16-1.42.96-4.52-.53-8.09-2.04-4.91-6.26-10.21-11.58-14.57-8.68-7.11-18.78-9.76-23.79-8.39-.81.72-1.69,1.36-2.63,1.91-2.72,3.86-3.14,13.19,1.34,24.53h0Zm-55.51,5.51c1.2,1.46,4.38,1.82,8.32.97,1.68-.37,3.41,0,4.8,1.01,1.38,1.01,2.26,2.56,2.43,4.26.39,4.12,1.77,7.13,3.59,7.84,1.71.68,4.58-.48,7.52-2.99,4.04-3.46,7.78-9.11,10.28-15.51,4.29-10.99,3.47-20.65,1.14-24.62l-6.16-2.83c-4.86.11-12.1,2.73-19.9,9.17-5.31,4.36-9.51,9.69-11.53,14.6-1.48,3.58-1.67,6.68-.49,8.11Zm4.54-39.81c12.42.69,21.75-3.54,24.15-7.03.17-1.36.47-2.67.94-3.9-.57-4.66-5.41-12.07-15.4-18.43-5.81-3.7-12.17-6.05-17.47-6.46-3.88-.31-6.87.48-7.87,2.06-1,1.56-.35,4.78,1.67,8.22.87,1.48,1.06,3.26.52,4.89-.54,1.63-1.75,2.95-3.33,3.62-3.79,1.63-6.21,3.85-6.33,5.8-.22,3.92,8.88,10.39,23.11,11.23Z"/>
        <path class="cls-3" d="m177.73,497.71c.45-.91,1.13-1.69,1.95-2.26.55-.39,1.17-.68,1.82-.86,7.04-1.94,17.03,1.17,24.82,7.76,11.14,9.4,14.98,21.89,8.92,29.06-2.3,2.72-5.68,4.22-9.67,4.4-1.52,3.59-4.03,6.19-7.29,7.42-1.35.51-2.74.75-4.15.75-7.73,0-15.9-7.36-20.24-18.9-3.62-9.56-3.6-18.8.04-24.7.88-1.42,2.26-2.34,3.78-2.68Zm7.36,23.17c3.07,8.16,8.15,11.49,8.94,11.2.18-.12.88-1.05,1.15-3.37.2-1.7,1.11-3.23,2.51-4.21,1.01-.71,2.21-1.08,3.42-1.08.46,0,.93.05,1.39.16,2.37.56,3.49.2,3.6.15.49-1.01-.83-6.64-7.48-12.26-5.47-4.63-11.34-5.97-13.76-5.4-.15.05-.31.09-.47.12-.09.17-.17.32-.27.49-1.32,2.12-1.58,7.46.97,14.19Z"/>
        <path class="cls-3" d="m144.37,584.3c1.67-.27,3.25.17,4.5,1.09,1.4-.36,2.85-.2,4.1.4.25.12.5.26.73.41,6.09,4.06,10.27,13.63,10.4,23.84.18,14.58-6.74,25.66-16.13,25.79h-.12c-3.51,0-6.82-1.56-9.53-4.42-3.71,1.2-7.32,1-10.39-.66-8.23-4.47-9.2-17.51-2.26-30.31,4.87-9,11.86-15.02,18.7-16.13Zm-10.79,35.93c.21.04,1.38-.04,3.29-1.34,1.41-.97,3.17-1.28,4.83-.86,1.66.42,3.06,1.52,3.85,3.04,1.12,2.15,2.14,2.77,2.24,2.82,1.09-.3,4.48-4.98,4.37-13.69-.09-7.2-2.97-12.52-4.96-13.96-.12-.08-.24-.16-.36-.25-.18.04-.36.09-.55.12-2.47.4-6.67,3.71-10.09,10.02-4.16,7.69-3.33,13.4-2.6,14.11Z"/>
        <path class="cls-3" d="m-29.94,585.28c1.5-.84,3.21-.96,4.72-.49,1.18-.86,2.63-1.26,4.07-1.12.28.03.57.08.85.14,7.35,1.75,14.84,9.58,18.61,19.47,5.39,14.09,2.67,27.31-6.36,30.77-3.46,1.3-7.28.95-10.99-.93-2.67,2.14-5.64,3.29-8.64,3.29-.57,0-1.14-.04-1.71-.13-9.54-1.38-15.1-13.69-12.94-28.61,1.51-10.51,6.14-18.87,12.39-22.39Zm2.26,39.18c.22,0,1.42-.47,2.94-2.61.99-1.4,2.53-2.3,4.24-2.48.21-.02.43-.04.64-.04,1.48,0,2.92.55,4.03,1.56,2.13,1.93,3.4,2.06,3.54,1.99,1.14-.6,2.72-6.8-.54-15.33-2.73-7.14-7.58-11.38-10.11-12.08-.18-.04-.37-.09-.55-.15-.19.14-.38.26-.58.38-2.33,1.31-5.33,6.14-6.42,13.68-1.32,9.12,1.58,14.77,2.82,15.08Z"/>
        <path class="cls-4" d="m7.33,645.78c-.23.12-.47.21-.72.27-.25.06-.51.09-.78.09-.81,0-1.45-.23-1.92-.68-.47-.45-.71-1.07-.71-1.84s.24-1.39.71-1.84c.47-.45,1.11-.68,1.92-.68.27,0,.53.03.78.09.25.06.49.15.72.27v1c-.23-.16-.46-.27-.68-.34-.22-.08-.46-.11-.71-.11-.45,0-.8.14-1.05.43-.26.29-.38.68-.38,1.18s.13.89.38,1.18c.25.29.61.43,1.05.43.25,0,.48-.04.71-.11.22-.07.45-.19.68-.35v1Z"/>
        <path class="cls-4" d="m11.01,643.41c-.1-.05-.2-.09-.3-.11-.1-.02-.2-.03-.31-.03-.3,0-.53.1-.69.29-.16.19-.24.47-.24.82v1.67h-1.16v-3.64h1.16v.6c.15-.24.32-.41.51-.52.19-.11.43-.16.7-.16.04,0,.08,0,.12,0,.05,0,.11,0,.2.02v1.05Z"/>
        <path class="cls-4" d="m15.22,644.22v.33h-2.71c.03.27.13.48.3.61.17.14.4.2.71.2.25,0,.5-.04.75-.11.26-.07.52-.18.79-.33v.9c-.27.1-.55.18-.83.23-.27.05-.55.08-.82.08-.66,0-1.17-.17-1.53-.5-.37-.33-.55-.8-.55-1.41s.18-1.06.54-1.4c.36-.34.85-.51,1.48-.51.57,0,1.03.17,1.37.52.34.34.52.8.52,1.38Zm-1.19-.39c0-.22-.06-.4-.19-.53-.13-.14-.3-.2-.51-.2-.22,0-.41.06-.55.19-.14.13-.23.31-.26.55h1.51Z"/>
        <path class="cls-4" d="m17.73,644.41c-.24,0-.43.04-.55.12-.12.08-.18.2-.18.36,0,.15.05.26.15.35.1.08.24.12.41.12.22,0,.4-.08.55-.23.15-.16.22-.35.22-.59v-.13h-.6Zm1.78-.44v2.08h-1.17v-.54c-.16.22-.33.38-.53.48-.19.1-.43.15-.71.15-.38,0-.68-.11-.92-.33-.23-.22-.35-.51-.35-.86,0-.43.15-.74.44-.94.3-.2.76-.3,1.38-.3h.68v-.09c0-.18-.07-.32-.22-.4-.15-.09-.37-.13-.68-.13-.25,0-.48.02-.7.07-.22.05-.41.12-.6.22v-.89c.25-.06.5-.1.75-.13.25-.03.5-.05.76-.05.65,0,1.13.13,1.42.39.29.26.44.68.44,1.26Z"/>
        <path class="cls-4" d="m21.85,641.38v1.03h1.2v.83h-1.2v1.54c0,.17.03.29.1.34.07.06.2.09.4.09h.6v.83h-1c-.46,0-.78-.1-.98-.29-.19-.19-.29-.52-.29-.98v-1.54h-.58v-.83h.58v-1.03h1.16Z"/>
        <path class="cls-4" d="m27.39,644.22v.33h-2.72c.03.27.13.48.3.61.17.14.4.2.71.2.25,0,.5-.04.75-.11.26-.07.52-.18.79-.33v.9c-.27.1-.55.18-.83.23-.27.05-.55.08-.82.08-.66,0-1.17-.17-1.53-.5-.37-.33-.55-.8-.55-1.41s.18-1.06.54-1.4c.36-.34.85-.51,1.48-.51.57,0,1.03.17,1.37.52.34.34.52.8.52,1.38Zm-1.19-.39c0-.22-.07-.4-.19-.53-.13-.14-.3-.2-.51-.2-.22,0-.41.06-.55.19-.14.13-.23.31-.26.55h1.51Z"/>
        <path class="cls-4" d="m30.74,642.95v-1.95h1.17v5.05h-1.17v-.53c-.16.22-.34.37-.53.47-.19.1-.41.15-.67.15-.45,0-.81-.18-1.1-.53-.29-.36-.43-.82-.43-1.38s.14-1.02.43-1.37c.29-.36.65-.53,1.1-.53.25,0,.47.05.67.15.19.1.37.26.53.47Zm-.77,2.35c.25,0,.44-.09.57-.27.13-.18.2-.45.2-.79s-.07-.61-.2-.79c-.13-.18-.32-.27-.57-.27s-.43.09-.57.27c-.13.18-.2.44-.2.79s.06.61.2.79c.13.18.32.27.57.27Z"/>
        <path class="cls-4" d="m37.28,645.3c.25,0,.44-.09.57-.27.13-.18.2-.45.2-.79s-.07-.61-.2-.79c-.13-.18-.32-.27-.57-.27s-.44.09-.57.27c-.13.18-.2.45-.2.79s.07.61.2.79c.13.18.32.27.57.27Zm-.77-2.35c.16-.21.34-.37.53-.47.2-.1.42-.15.67-.15.45,0,.81.18,1.1.53.29.36.43.81.43,1.37s-.14,1.02-.43,1.38c-.29.36-.66.53-1.1.53-.25,0-.48-.05-.67-.15-.19-.1-.37-.26-.53-.47v.53h-1.16v-5.05h1.16v1.95Z"/>
        <path class="cls-4" d="m39.62,642.42h1.16l.98,2.46.83-2.46h1.16l-1.53,3.98c-.15.4-.33.69-.54.85-.2.16-.47.24-.81.24h-.67v-.77h.37c.2,0,.34-.03.43-.09.09-.06.16-.17.21-.34l.03-.1-1.62-3.77Z"/>
        <path class="cls-4" d="m48.74,643.08c.2,0,.35-.04.45-.13.1-.09.15-.21.15-.38s-.05-.29-.15-.38c-.1-.09-.25-.13-.45-.13h-.69v1.02h.69Zm.04,2.12c.25,0,.44-.05.57-.16.13-.11.19-.27.19-.48s-.06-.37-.19-.47c-.12-.1-.31-.16-.57-.16h-.73v1.27h.73Zm1.16-1.75c.27.08.48.22.63.44.15.21.22.47.22.77,0,.47-.16.82-.47,1.05-.32.23-.8.35-1.44.35h-2.07v-4.85h1.88c.67,0,1.16.1,1.46.3.3.2.45.53.45.98,0,.24-.06.44-.17.6-.11.16-.27.29-.48.36Z"/>
        <path class="cls-4" d="m55.44,644.22v.33h-2.71c.03.27.13.48.3.61.17.14.4.2.71.2.25,0,.5-.04.75-.11.26-.07.52-.18.79-.33v.9c-.27.1-.55.18-.83.23-.27.05-.55.08-.82.08-.66,0-1.17-.17-1.53-.5-.37-.33-.55-.8-.55-1.41s.18-1.06.54-1.4c.36-.34.85-.51,1.48-.51.57,0,1.03.17,1.37.52.34.34.52.8.52,1.38Zm-1.19-.39c0-.22-.07-.4-.19-.53-.13-.14-.3-.2-.51-.2-.22,0-.41.06-.55.19-.14.13-.23.31-.26.55h1.51Z"/>
        <path class="cls-4" d="m56.33,641h1.16v5.05h-1.16v-5.05Z"/>
        <path class="cls-4" d="m58.6,641h1.16v5.05h-1.16v-5.05Z"/>
        <path class="cls-4" d="m62.61,643.16c-.26,0-.45.09-.59.28-.14.18-.2.45-.2.8s.07.62.2.8c.14.18.33.28.59.28s.45-.09.58-.28c.13-.18.2-.45.2-.8s-.07-.62-.2-.8c-.13-.18-.33-.28-.58-.28Zm0-.83c.63,0,1.11.17,1.46.51.35.34.53.8.53,1.4s-.18,1.07-.53,1.41c-.35.34-.84.51-1.46.51s-1.12-.17-1.48-.51c-.35-.34-.53-.81-.53-1.41s.18-1.06.53-1.4c.36-.34.85-.51,1.48-.51Z"/>
        <path class="cls-4" d="m65.13,642.42h1.13l.61,2.5.61-2.5h.97l.61,2.48.61-2.48h1.13l-.96,3.64h-1.27l-.61-2.5-.61,2.5h-1.27l-.96-3.64Z"/>
        <path class="cls-4" d="m75.22,644.22v.33h-2.71c.03.27.13.48.29.61.17.14.4.2.71.2.25,0,.5-.04.75-.11.26-.07.52-.18.79-.33v.9c-.27.1-.55.18-.83.23-.27.05-.55.08-.82.08-.66,0-1.17-.17-1.53-.5-.37-.33-.55-.8-.55-1.41s.18-1.06.54-1.4c.36-.34.85-.51,1.48-.51.57,0,1.03.17,1.37.52.34.34.52.8.52,1.38Zm-1.19-.39c0-.22-.07-.4-.19-.53-.13-.14-.3-.2-.51-.2-.22,0-.41.06-.55.19-.14.13-.23.31-.26.55h1.51Z"/>
        <path class="cls-4" d="m79.76,643.84v2.21h-1.17v-1.69c0-.32,0-.53-.02-.65-.01-.12-.04-.21-.07-.26-.04-.08-.11-.14-.19-.18-.08-.04-.17-.06-.26-.06-.24,0-.43.09-.57.28-.14.19-.21.45-.21.78v1.79h-1.16v-3.64h1.16v.53c.18-.21.36-.37.56-.47.2-.1.41-.15.65-.15.42,0,.74.13.96.39.22.26.33.63.33,1.12Z"/>
        <path class="cls-4" d="m5.82,647.65v.76h-.64c-.16,0-.28.03-.34.09-.07.06-.1.16-.1.31v.25h.99v.83h-.99v2.81h-1.16v-2.81h-.58v-.83h.58v-.25c0-.4.11-.69.33-.88.22-.19.56-.28,1.03-.28h.89Z"/>
        <path class="cls-4" d="m9.03,650.05c-.1-.05-.2-.09-.3-.11-.1-.02-.2-.03-.31-.03-.3,0-.53.1-.69.29-.16.19-.24.47-.24.82v1.67h-1.16v-3.64h1.16v.6c.15-.24.32-.41.51-.52.19-.11.43-.17.7-.17.04,0,.08,0,.12,0,.05,0,.11,0,.2.02v1.05Z"/>
        <path class="cls-4" d="m11.33,649.8c-.26,0-.45.09-.59.28-.14.19-.2.45-.2.8s.07.62.2.8c.14.18.33.28.59.28s.45-.09.58-.28c.13-.18.2-.45.2-.8s-.07-.62-.2-.8c-.13-.18-.33-.28-.58-.28Zm0-.83c.63,0,1.11.17,1.46.51.35.34.53.8.53,1.4s-.18,1.07-.53,1.41c-.35.34-.84.51-1.46.51s-1.12-.17-1.48-.51c-.35-.34-.53-.81-.53-1.41s.18-1.06.53-1.4c.36-.34.85-.51,1.48-.51Z"/>
        <path class="cls-4" d="m17.54,649.67c.15-.22.32-.4.52-.51.2-.12.43-.18.67-.18.42,0,.73.13.95.39.22.26.33.63.33,1.12v2.21h-1.17v-1.9s0-.06,0-.09c0-.03,0-.07,0-.13,0-.26-.04-.44-.12-.56-.08-.12-.2-.18-.37-.18-.22,0-.39.09-.51.27-.12.18-.18.45-.19.79v1.78h-1.17v-1.9c0-.4-.04-.66-.11-.78-.07-.12-.19-.18-.37-.18-.22,0-.4.09-.52.28-.12.18-.18.44-.18.78v1.79h-1.17v-3.64h1.17v.53c.14-.2.31-.36.49-.46.18-.11.39-.16.61-.16.25,0,.47.06.66.18.19.12.34.29.44.51Z"/>
        <path class="cls-4" d="m24.68,648.03v1.03h1.2v.83h-1.2v1.54c0,.17.03.29.1.34.07.06.2.09.4.09h.6v.83h-1c-.46,0-.78-.09-.98-.29-.19-.19-.29-.52-.29-.98v-1.54h-.58v-.83h.58v-1.03h1.16Z"/>
        <path class="cls-4" d="m30.25,650.49v2.21h-1.17v-1.69c0-.32,0-.53-.02-.65-.01-.12-.04-.21-.07-.26-.04-.08-.11-.14-.19-.18-.08-.04-.17-.06-.26-.06-.24,0-.43.09-.57.28-.14.19-.21.45-.21.78v1.79h-1.16v-5.05h1.16v1.95c.18-.21.36-.37.56-.47.2-.1.41-.15.65-.15.42,0,.74.13.96.39.22.26.33.63.33,1.12Z"/>
        <path class="cls-4" d="m34.95,650.87v.33h-2.71c.03.27.13.48.29.61.17.14.4.2.71.2.25,0,.5-.04.75-.11.26-.07.52-.18.79-.33v.9c-.27.11-.55.18-.83.24-.27.05-.55.08-.82.08-.66,0-1.17-.17-1.53-.5-.37-.33-.55-.8-.55-1.41s.18-1.06.54-1.4c.36-.34.85-.51,1.48-.51.57,0,1.03.17,1.37.52.34.34.52.8.52,1.38Zm-1.19-.39c0-.22-.06-.4-.19-.53-.13-.14-.3-.2-.51-.2-.22,0-.41.06-.55.19-.14.13-.23.31-.26.55h1.51Z"/>
        <path class="cls-4" d="m38.2,647.85h1.39l1.76,3.32v-3.32h1.19v4.85h-1.4l-1.76-3.33v3.33h-1.18v-4.85Z"/>
        <path class="cls-4" d="m45.44,649.8c-.26,0-.45.09-.59.28-.14.19-.2.45-.2.8s.07.62.2.8c.14.18.33.28.59.28s.45-.09.58-.28c.13-.18.2-.45.2-.8s-.07-.62-.2-.8c-.13-.18-.33-.28-.58-.28Zm0-.83c.63,0,1.11.17,1.46.51.35.34.53.8.53,1.4s-.18,1.07-.53,1.41c-.35.34-.84.51-1.46.51s-1.12-.17-1.48-.51c-.35-.34-.53-.81-.53-1.41s.18-1.06.53-1.4c.36-.34.85-.51,1.48-.51Z"/>
        <path class="cls-4" d="m48.24,651.28v-2.22h1.17v.36c0,.2,0,.45,0,.74,0,.3,0,.49,0,.59,0,.29,0,.5.02.63.02.13.04.22.08.28.05.08.11.13.19.18.08.04.17.06.27.06.24,0,.43-.09.57-.28.14-.19.21-.45.21-.78v-1.79h1.16v3.64h-1.16v-.53c-.18.21-.36.37-.56.47-.19.1-.41.15-.65.15-.42,0-.74-.13-.96-.39-.22-.26-.33-.63-.33-1.12Z"/>
        <path class="cls-4" d="m56.66,650.49v2.21h-1.17v-1.69c0-.32,0-.53-.02-.65-.01-.12-.04-.21-.07-.26-.04-.08-.11-.14-.19-.18-.08-.04-.17-.06-.26-.06-.24,0-.43.09-.57.28-.14.19-.21.45-.21.78v1.79h-1.16v-3.64h1.16v.53c.18-.21.36-.37.56-.47.2-.1.41-.15.65-.15.42,0,.74.13.96.39.22.26.33.63.33,1.12Z"/>
        <path class="cls-4" d="m60.11,647.85h2.07c.62,0,1.09.14,1.42.41.33.27.5.66.5,1.17s-.17.9-.5,1.17c-.33.27-.8.41-1.42.41h-.82v1.68h-1.25v-4.85Zm1.25.91v1.35h.69c.24,0,.43-.06.56-.18.13-.12.2-.28.2-.5s-.07-.38-.2-.5c-.13-.12-.32-.17-.56-.17h-.69Z"/>
        <path class="cls-4" d="m67.63,650.05c-.1-.05-.2-.09-.3-.11-.1-.02-.2-.03-.31-.03-.3,0-.53.1-.69.29-.16.19-.24.47-.24.82v1.67h-1.16v-3.64h1.16v.6c.15-.24.32-.41.51-.52.19-.11.43-.17.7-.17.04,0,.08,0,.12,0,.05,0,.11,0,.2.02v1.05Z"/>
        <path class="cls-4" d="m69.94,649.8c-.26,0-.45.09-.59.28-.14.19-.2.45-.2.8s.07.62.2.8c.14.18.33.28.59.28s.45-.09.58-.28c.13-.18.2-.45.2-.8s-.07-.62-.2-.8c-.13-.18-.33-.28-.58-.28Zm0-.83c.63,0,1.11.17,1.46.51.35.34.53.8.53,1.4s-.18,1.07-.53,1.41c-.35.34-.84.51-1.46.51s-1.12-.17-1.48-.51c-.35-.34-.53-.81-.53-1.41s.18-1.06.53-1.4c.36-.34.85-.51,1.48-.51Z"/>
        <path class="cls-4" d="m72.77,649.06h1.16v3.57c0,.48-.12.86-.35,1.11-.23.26-.57.39-1.01.39h-.58v-.77h.2c.22,0,.37-.05.46-.15.08-.1.12-.29.12-.58v-3.57Zm0-1.41h1.16v.95h-1.16v-.95Z"/>
        <path class="cls-4" d="m78.68,650.87v.33h-2.71c.03.27.13.48.3.61.17.14.4.2.71.2.25,0,.5-.04.75-.11.26-.07.52-.18.79-.33v.9c-.27.11-.55.18-.83.24-.27.05-.55.08-.82.08-.66,0-1.17-.17-1.53-.5-.37-.33-.55-.8-.55-1.41s.18-1.06.54-1.4c.36-.34.85-.51,1.48-.51.57,0,1.03.17,1.37.52.34.34.52.8.52,1.38Zm-1.19-.39c0-.22-.06-.4-.19-.53-.13-.14-.3-.2-.51-.2-.22,0-.41.06-.55.19-.14.13-.23.31-.26.55h1.51Z"/>
        <path class="cls-4" d="m82.5,649.18v.95c-.16-.11-.32-.19-.47-.24-.16-.05-.32-.08-.5-.08-.33,0-.58.09-.76.28-.18.19-.27.46-.27.79s.09.6.27.79c.18.19.43.28.76.28.18,0,.35-.03.52-.08.16-.05.31-.13.45-.24v.95c-.18.07-.36.12-.55.15-.19.03-.37.05-.56.05-.66,0-1.17-.17-1.54-.51-.37-.34-.56-.81-.56-1.41s.18-1.07.56-1.4c.37-.34.88-.51,1.54-.51.19,0,.38.02.56.05.18.03.37.08.55.15Z"/>
        <path class="cls-4" d="m84.77,648.03v1.03h1.2v.83h-1.2v1.54c0,.17.03.29.1.34.07.06.2.09.4.09h.6v.83h-1c-.46,0-.79-.09-.98-.29-.19-.19-.29-.52-.29-.98v-1.54h-.58v-.83h.58v-1.03h1.16Z"/>
      </g>
    </g>
  </g>
</svg>