<?xml version="1.0" encoding="UTF-8"?>
<svg id="Layer_2" data-name="Layer 2" xmlns="http://www.w3.org/2000/svg" width="89.83mm" height="74.52mm" viewBox="0 0 254.63 211.24">
  <defs>
    <style>
      .cls-1 {
        fill: #fbdfe5;
      }

      .cls-2 {
        fill: rgba(255, 255, 255, .1);
      }
    </style>
  </defs>
  <g id="Layer_1-2" data-name="Layer 1">
    <path class="cls-1" d="m51.27,169.85c1.91.27,3.83.4,5.76.4,11.12,0,20.88-4.43,30.37-8.75,4.08-1.85,7.93-3.6,11.89-5.02,13.89-4.5,28.9-4.11,42.54,1.08,4.66,11.81,13.68,21.37,25.2,26.71,14.57,6.82,31.25,7.57,46.37,2.08,15.12-5.48,27.45-16.75,34.26-31.32,7.49-16.06,9.01-34.27,4.29-51.35-4.72-17.08-15.37-31.93-30.04-41.88-.49-16.54-7.4-32.23-19.26-43.77C190.79,6.51,174.91.04,158.37,0c-16.54-.04-32.45,6.35-44.37,17.83-7.61-3.8-16.13-5.41-24.61-4.66-8.47.75-16.58,3.84-23.4,8.93-8.1,6.02-14.41,14.12-18.27,23.45-3.87,9.32-5.13,19.51-3.67,29.5-5.88.45-11.58,2.28-16.62,5.36-10.42,6.33-17.9,16.54-20.79,28.38-2.89,11.85-.95,24.35,5.39,34.76,8.53,14.16,22.9,23.8,39.24,26.31h0Zm-34.88-58.71c2.23-9.27,8.08-17.26,16.25-22.18,6.28-3.81,13.83-4.97,20.97-3.22,7.14,1.75,13.29,6.26,17.1,12.55,2.91,4.79,3.8,10.55,2.48,16-1.32,5.45-4.76,10.15-9.54,13.08-3.62,2.19-7.96,2.85-12.07,1.85-4.11-1-7.66-3.58-9.87-7.18-1.61-2.67-2.1-5.86-1.36-8.89.74-3.03,2.65-5.64,5.31-7.26,2.36-1.44,3.11-4.53,1.67-6.89-1.44-2.37-4.53-3.12-6.89-1.68-4.93,3.01-8.46,7.85-9.83,13.46-1.37,5.61-.46,11.53,2.53,16.47,3.6,5.87,9.38,10.08,16.06,11.71,6.69,1.63,13.76.55,19.65-3.01,7.06-4.31,12.12-11.24,14.07-19.28,1.95-8.04.64-16.52-3.65-23.59-5.48-9.09-14.56-15.42-24.99-17.42-1.63-8.49-.83-17.26,2.3-25.31,3.13-8.05,8.47-15.06,15.41-20.21,7.63-5.69,17.21-8.12,26.63-6.76,9.42,1.36,17.92,6.4,23.64,14.01,4.4,5.9,6.27,13.3,5.22,20.57s-4.94,13.84-10.83,18.25c-4.5,3.37-10.15,4.81-15.71,4.01-5.56-.8-10.57-3.79-13.93-8.29-2.53-3.38-3.61-7.64-3.01-11.82.6-4.18,2.84-7.96,6.23-10.49,2.5-1.86,5.63-2.65,8.72-2.2,3.08.45,5.86,2.09,7.74,4.58.8,1.07,1.99,1.77,3.31,1.96,1.32.19,2.66-.16,3.73-.96,1.07-.8,1.77-1.99,1.95-3.31.18-1.32-.16-2.66-.96-3.72-3.47-4.61-8.63-7.65-14.34-8.47-5.71-.82-11.51.65-16.14,4.08-5.52,4.12-9.17,10.27-10.16,17.09-.98,6.82.78,13.75,4.91,19.27,4.94,6.65,12.33,11.05,20.53,12.21,1.5.22,3.01.33,4.53.33,6.72,0,13.26-2.18,18.63-6.23,8.01-6.01,13.31-14.95,14.74-24.86,1.43-9.91-1.13-19.98-7.11-28.01-2.23-2.95-4.81-5.62-7.67-7.95,10.42-9.16,23.98-13.93,37.84-13.34,13.86.6,26.96,6.53,36.55,16.55,9.6,10.02,14.95,23.36,14.95,37.23v.66s0,.06,0,.08c0,.19.03.38.06.56.02.15.03.29.06.43.03.15.09.3.14.45.05.16.1.32.16.48.06.13.14.26.21.39h0c.08.15.16.31.25.45.08.12.19.23.28.35.11.14.22.27.34.4.1.09.21.17.31.26h0c.15.13.31.25.47.37l.06.05h0c13.35,8.37,23.18,21.32,27.64,36.43,4.46,15.11,3.25,31.33-3.42,45.6-5.69,12.15-15.98,21.55-28.6,26.13-12.62,4.57-26.53,3.96-38.69-1.72-9.54-4.42-16.92-12.47-20.49-22.36-.08-.52-.25-1.03-.49-1.5-2.88-9.08-2.35-18.9,1.48-27.62.03-.07.12-.31.15-.38l.29-.65c3.45-7.35,9.68-13.02,17.31-15.78,7.63-2.76,16.05-2.39,23.4,1.05,1.24.56,2.42,1.25,3.51,2.07,4.53,3.15,7.8,7.8,9.22,13.13,1.42,5.33.9,10.99-1.46,15.98-1.99,4.27-5.6,7.58-10.04,9.19-4.43,1.61-9.32,1.39-13.6-.6-3.17-1.49-5.62-4.17-6.82-7.47-1.2-3.29-1.04-6.93.44-10.1,1.07-2.3,3.01-4.08,5.4-4.95,2.38-.87,5.01-.76,7.32.31,1.2.57,2.59.63,3.84.18,1.25-.45,2.28-1.38,2.84-2.59.57-1.21.63-2.59.18-3.84-.46-1.25-1.39-2.27-2.6-2.83-4.71-2.2-10.11-2.43-14.99-.66-4.89,1.78-8.87,5.42-11.07,10.14-2.6,5.58-2.89,11.97-.79,17.77,2.1,5.79,6.41,10.51,11.99,13.13,6.68,3.13,14.33,3.47,21.27.95,6.93-2.52,12.58-7.69,15.71-14.38,3.37-7.1,4.11-15.16,2.1-22.75-2.01-7.6-6.64-14.24-13.08-18.74-1.61-1.19-3.34-2.21-5.15-3.04-9.76-4.54-20.93-5.04-31.05-1.37-10.12,3.67-18.38,11.2-22.96,20.95l-.16.35c-.16.36-.32.73-.46,1.08-3.59,8.28-4.85,17.38-3.62,26.33-14.08-4.12-29.09-3.83-42.99.85-4.35,1.56-8.57,3.47-12.65,5.33-10.24,4.65-19.89,9.04-30.59,7.54h0c-13.33-2.16-25.04-10.05-32.06-21.58-4.98-8.14-6.49-17.92-4.21-27.18h0Z"/>
    <path class="cls-2" d="m5.42,200.79c-.29.15-.59.26-.9.33-.31.08-.63.12-.97.12-1.01,0-1.81-.28-2.4-.85-.59-.57-.89-1.33-.89-2.3s.29-1.73.89-2.3c.59-.57,1.39-.85,2.4-.85.34,0,.66.04.97.12.31.07.61.19.9.33v1.25c-.29-.19-.58-.34-.86-.43-.28-.09-.58-.14-.89-.14-.56,0-1,.18-1.31.54-.32.36-.48.85-.48,1.48s.16,1.12.48,1.48c.32.36.76.53,1.31.53.31,0,.61-.04.89-.13.28-.09.57-.24.86-.44v1.25Z"/>
    <path class="cls-2" d="m10.02,197.82c-.13-.06-.26-.1-.39-.13-.12-.03-.25-.05-.38-.05-.37,0-.66.12-.86.36-.2.24-.3.58-.3,1.03v2.1h-1.45v-4.55h1.45v.75c.19-.3.4-.51.64-.65.24-.14.53-.21.87-.21.05,0,.1,0,.16,0,.06,0,.14.01.25.02v1.32Z"/>
    <path class="cls-2" d="m15.29,198.84v.42h-3.4c.04.34.16.6.37.77.21.17.51.26.89.26.31,0,.62-.04.94-.13.32-.09.65-.23.99-.41v1.12c-.34.13-.69.23-1.03.29-.34.07-.69.1-1.03.1-.82,0-1.46-.21-1.92-.63-.45-.42-.68-1-.68-1.76s.22-1.32.67-1.75c.45-.43,1.06-.64,1.85-.64.71,0,1.29.22,1.72.65.43.43.65,1.01.65,1.72Zm-1.49-.48c0-.27-.08-.5-.24-.66-.16-.17-.37-.26-.63-.26-.28,0-.51.08-.69.24-.18.16-.29.38-.33.68h1.89Z"/>
    <path class="cls-2" d="m18.43,199.08c-.3,0-.53.05-.69.15-.15.1-.23.25-.23.45,0,.19.06.33.19.44.12.1.29.15.51.15.27,0,.51-.1.69-.29.19-.2.28-.44.28-.74v-.17h-.76Zm2.22-.55v2.59h-1.46v-.67c-.19.28-.42.48-.66.6-.24.12-.54.19-.89.19-.47,0-.85-.14-1.15-.41-.29-.28-.44-.63-.44-1.07,0-.53.18-.92.55-1.17.37-.25.94-.38,1.73-.38h.86v-.12c0-.23-.09-.4-.27-.5-.18-.11-.47-.16-.85-.16-.31,0-.6.03-.87.09-.27.06-.51.16-.74.28v-1.11c.31-.07.62-.13.93-.17.32-.04.63-.06.95-.06.82,0,1.41.16,1.77.49.36.32.55.85.55,1.58Z"/>
    <path class="cls-2" d="m23.59,195.29v1.29h1.5v1.04h-1.5v1.93c0,.21.04.35.12.43.08.07.25.11.5.11h.75v1.04h-1.24c-.57,0-.98-.12-1.22-.36-.24-.24-.36-.65-.36-1.22v-1.93h-.72v-1.04h.72v-1.29h1.46Z"/>
    <path class="cls-2" d="m30.51,198.84v.42h-3.4c.04.34.16.6.37.77.21.17.51.26.89.26.31,0,.62-.04.94-.13.32-.09.65-.23.99-.41v1.12c-.34.13-.69.23-1.03.29-.34.07-.69.1-1.03.1-.82,0-1.46-.21-1.92-.63-.46-.42-.68-1-.68-1.76s.22-1.32.67-1.75c.45-.43,1.06-.64,1.85-.64.71,0,1.29.22,1.72.65.43.43.64,1.01.64,1.72Zm-1.49-.48c0-.27-.08-.5-.24-.66-.16-.17-.37-.26-.63-.26-.28,0-.51.08-.69.24-.18.16-.29.38-.33.68h1.89Z"/>
    <path class="cls-2" d="m34.71,197.24v-2.44h1.46v6.32h-1.46v-.66c-.2.27-.42.47-.66.59-.24.12-.52.19-.84.19-.56,0-1.02-.22-1.38-.67-.36-.45-.54-1.02-.54-1.72s.18-1.28.54-1.72c.36-.45.82-.67,1.38-.67.32,0,.59.06.84.19.24.13.47.32.66.58Zm-.96,2.95c.31,0,.54-.11.71-.34.16-.23.25-.56.25-.99s-.08-.76-.25-.99c-.17-.23-.4-.34-.71-.34s-.55.11-.71.34c-.17.23-.25.56-.25.99s.08.77.25.99c.16.23.4.34.71.34Z"/>
    <path class="cls-2" d="m42.88,200.19c.31,0,.55-.11.71-.34.16-.23.25-.56.25-.99s-.08-.76-.25-.99c-.16-.23-.4-.34-.71-.34s-.55.12-.72.34c-.16.23-.25.56-.25.99s.08.76.25.99c.17.23.41.34.72.34Zm-.97-2.95c.2-.26.42-.46.66-.58.24-.13.52-.19.84-.19.56,0,1.02.22,1.38.67.36.45.54,1.02.54,1.72s-.18,1.27-.54,1.72c-.36.45-.82.67-1.38.67-.32,0-.6-.06-.84-.19-.24-.13-.46-.32-.66-.59v.66h-1.45v-6.32h1.45v2.44Z"/>
    <path class="cls-2" d="m45.82,196.58h1.45l1.22,3.09,1.04-3.09h1.45l-1.91,4.98c-.19.5-.42.86-.67,1.06-.26.2-.59.31-1.01.31h-.85v-.96h.46c.25,0,.43-.04.54-.12.11-.08.2-.22.26-.42l.04-.13-2.03-4.72Z"/>
    <path class="cls-2" d="m58.47,200.02h-2.44l-.39,1.11h-1.57l2.25-6.06h1.86l2.25,6.06h-1.57l-.38-1.11Zm-2.05-1.12h1.66l-.83-2.41-.83,2.41Z"/>
    <path class="cls-2" d="m65.74,198.36v2.77h-1.46v-2.12c0-.39,0-.66-.03-.81-.02-.15-.05-.26-.09-.33-.06-.09-.13-.17-.23-.22-.1-.05-.21-.08-.33-.08-.3,0-.54.12-.71.35-.17.23-.26.56-.26.97v2.24h-1.45v-4.55h1.45v.66c.22-.26.45-.46.7-.58.25-.13.52-.19.82-.19.53,0,.93.16,1.2.49.27.32.41.79.41,1.4Z"/>
    <path class="cls-2" d="m68.68,195.29v1.29h1.5v1.04h-1.5v1.93c0,.21.04.35.12.43.08.07.25.11.5.11h.75v1.04h-1.24c-.58,0-.98-.12-1.23-.36-.24-.24-.36-.65-.36-1.22v-1.93h-.72v-1.04h.72v-1.29h1.46Z"/>
    <path class="cls-2" d="m75.64,198.36v2.77h-1.46v-2.11c0-.4,0-.67-.03-.82-.02-.15-.05-.26-.09-.33-.06-.09-.13-.17-.23-.22-.1-.05-.21-.08-.33-.08-.3,0-.54.12-.72.35-.17.23-.26.56-.26.97v2.24h-1.45v-6.32h1.45v2.44c.22-.26.45-.46.7-.58.25-.13.52-.19.82-.19.52,0,.93.16,1.2.49.27.32.41.79.41,1.4Z"/>
    <path class="cls-2" d="m79.15,197.51c-.32,0-.57.12-.74.35-.17.23-.26.57-.26,1s.09.77.26,1c.17.23.42.34.74.34s.56-.11.72-.34c.17-.23.26-.57.26-1s-.09-.77-.26-1c-.17-.23-.41-.35-.72-.35Zm0-1.04c.78,0,1.39.21,1.83.64.44.42.66,1.01.66,1.75s-.22,1.33-.66,1.75c-.44.42-1.05.63-1.83.63s-1.4-.21-1.84-.63c-.44-.42-.66-1.01-.66-1.75s.22-1.33.66-1.75c.44-.42,1.06-.64,1.84-.64Z"/>
    <path class="cls-2" d="m87.27,198.36v2.77h-1.46v-2.12c0-.39,0-.66-.03-.81-.02-.15-.05-.26-.09-.33-.05-.09-.13-.17-.23-.22-.1-.05-.21-.08-.33-.08-.3,0-.54.12-.72.35-.17.23-.26.56-.26.97v2.24h-1.45v-4.55h1.45v.66c.22-.26.45-.46.7-.58.25-.13.52-.19.82-.19.53,0,.93.16,1.2.49.27.32.41.79.41,1.4Z"/>
    <path class="cls-2" d="m88.02,196.58h1.45l1.22,3.09,1.04-3.09h1.45l-1.91,4.98c-.19.5-.42.86-.67,1.06-.26.2-.59.31-1.01.31h-.85v-.96h.46c.25,0,.43-.04.54-.12.11-.08.2-.22.26-.42l.04-.13-2.03-4.72Z"/>
    <path class="cls-2" d="m97,195.07h1.56v4.88h2.75v1.18h-4.31v-6.06Z"/>
    <path class="cls-2" d="m106.77,198.84v.42h-3.4c.04.34.16.6.37.77.21.17.51.26.89.26.31,0,.62-.04.94-.13.32-.09.65-.23.99-.41v1.12c-.34.13-.69.23-1.03.29-.34.07-.69.1-1.03.1-.82,0-1.46-.21-1.92-.63-.46-.42-.68-1-.68-1.76s.22-1.32.67-1.75c.45-.43,1.06-.64,1.85-.64.71,0,1.29.22,1.72.65.43.43.64,1.01.64,1.72Zm-1.49-.48c0-.27-.08-.5-.24-.66-.16-.17-.37-.26-.63-.26-.28,0-.51.08-.69.24-.18.16-.29.38-.33.68h1.89Z"/>
    <path class="cls-2" d="m110.97,197.24v-2.44h1.46v6.32h-1.46v-.66c-.2.27-.42.47-.66.59-.24.12-.52.19-.84.19-.56,0-1.02-.22-1.38-.67-.36-.45-.54-1.02-.54-1.72s.18-1.28.54-1.72c.36-.45.82-.67,1.38-.67.32,0,.59.06.84.19.24.13.47.32.66.58Zm-.96,2.95c.31,0,.54-.11.71-.34.16-.23.25-.56.25-.99s-.08-.76-.25-.99c-.17-.23-.4-.34-.71-.34s-.55.11-.71.34c-.17.23-.25.56-.25.99s.08.77.25.99c.16.23.4.34.71.34Z"/>
    <path class="cls-2" d="m115.99,197.51c-.32,0-.57.12-.74.35-.17.23-.26.57-.26,1s.08.77.26,1c.17.23.41.34.74.34s.56-.11.72-.34c.17-.23.26-.57.26-1s-.09-.77-.26-1c-.17-.23-.41-.35-.72-.35Zm0-1.04c.78,0,1.39.21,1.83.64.44.42.66,1.01.66,1.75s-.22,1.33-.66,1.75c-.44.42-1.05.63-1.83.63s-1.4-.21-1.84-.63c-.44-.42-.66-1.01-.66-1.75s.22-1.33.66-1.75c.44-.42,1.06-.64,1.84-.64Z"/>
    <path class="cls-2" d="m119.49,199.35v-2.77h1.46v.45c0,.25,0,.56,0,.93,0,.37,0,.62,0,.74,0,.37,0,.63.03.79.02.16.05.28.1.35.06.1.14.17.24.22.1.05.21.07.33.07.3,0,.54-.12.72-.35.17-.23.26-.56.26-.97v-2.25h1.45v4.55h-1.45v-.66c-.22.27-.45.46-.7.59-.24.12-.51.19-.81.19-.52,0-.92-.16-1.2-.48-.28-.32-.41-.79-.41-1.41Z"/>
    <path class="cls-2" d="m126.61,198.8l-1.64-2.22h1.54l.93,1.35.94-1.35h1.54l-1.64,2.21,1.72,2.34h-1.54l-1.02-1.44-1.01,1.44h-1.54l1.72-2.33Z"/>
    <path class="cls-2" d="m3.53,203.12v.96h-.8c-.2,0-.35.04-.43.11-.08.07-.12.2-.12.39v.32h1.24v1.04h-1.24v3.51H.72v-3.51h-.72v-1.04h.72v-.32c0-.49.14-.86.41-1.1.28-.24.7-.36,1.29-.36h1.11Z"/>
    <path class="cls-2" d="m7.54,206.13c-.13-.06-.26-.1-.39-.13-.12-.03-.25-.05-.38-.05-.37,0-.66.12-.86.36-.2.24-.3.58-.3,1.02v2.1h-1.45v-4.55h1.45v.75c.19-.3.4-.51.64-.65.24-.14.53-.21.87-.21.05,0,.1,0,.16,0,.06,0,.14.01.25.02v1.32Z"/>
    <path class="cls-2" d="m10.43,205.82c-.32,0-.57.12-.74.35-.17.23-.26.57-.26,1s.08.77.26,1c.17.23.42.34.74.34s.56-.11.72-.34c.17-.23.26-.57.26-1s-.09-.77-.26-1c-.17-.23-.41-.35-.72-.35Zm0-1.04c.78,0,1.39.21,1.83.64.44.42.66,1.01.66,1.76s-.22,1.33-.66,1.75c-.44.42-1.05.63-1.83.63s-1.4-.21-1.84-.63c-.44-.42-.66-1.01-.66-1.75s.22-1.33.66-1.76c.44-.42,1.06-.64,1.84-.64Z"/>
    <path class="cls-2" d="m18.19,205.65c.18-.28.4-.5.65-.64.25-.15.53-.22.84-.22.52,0,.92.16,1.19.49.28.32.41.79.41,1.4v2.77h-1.46v-2.48s0-.1,0-.17c0-.32-.05-.55-.14-.7-.09-.15-.24-.22-.45-.22-.28,0-.49.11-.64.34-.15.23-.23.55-.23.98v2.23h-1.46v-2.37c0-.5-.04-.83-.13-.97-.09-.15-.24-.22-.46-.22-.28,0-.49.11-.64.34-.15.23-.23.55-.23.98v2.24h-1.46v-4.55h1.46v.66c.18-.26.38-.45.61-.58.23-.13.49-.2.77-.2.32,0,.59.08.84.23.24.15.42.37.55.64Z"/>
    <path class="cls-2" d="m27.12,203.61v1.29h1.5v1.04h-1.5v1.93c0,.21.04.35.13.43.08.08.25.11.5.11h.75v1.04h-1.24c-.58,0-.98-.12-1.23-.36-.24-.24-.36-.65-.36-1.22v-1.93h-.72v-1.04h.72v-1.29h1.46Z"/>
    <path class="cls-2" d="m34.08,206.67v2.77h-1.46v-2.11c0-.4,0-.67-.03-.82-.02-.15-.05-.26-.09-.33-.06-.09-.13-.17-.23-.22-.1-.05-.21-.08-.33-.08-.3,0-.54.12-.72.35-.17.23-.26.56-.26.97v2.24h-1.45v-6.32h1.45v2.44c.22-.26.45-.46.7-.58.25-.13.52-.19.82-.19.53,0,.93.16,1.2.49.27.32.41.79.41,1.4Z"/>
    <path class="cls-2" d="m39.97,207.16v.42h-3.4c.04.34.16.6.37.77.21.17.5.26.89.26.31,0,.62-.04.94-.13.32-.09.65-.23.99-.41v1.12c-.34.13-.69.23-1.03.29-.34.07-.69.1-1.03.1-.82,0-1.46-.21-1.92-.63-.46-.42-.68-1-.68-1.76s.22-1.33.67-1.75c.45-.43,1.06-.64,1.85-.64.71,0,1.29.22,1.72.65.43.43.65,1,.65,1.72Zm-1.49-.48c0-.27-.08-.5-.24-.66-.16-.17-.37-.26-.63-.26-.28,0-.51.08-.69.24-.18.16-.29.39-.33.68h1.89Z"/>
    <path class="cls-2" d="m44.03,203.38h1.75l2.21,4.16v-4.16h1.48v6.06h-1.74l-2.2-4.16v4.16h-1.48v-6.06Z"/>
    <path class="cls-2" d="m53.09,205.82c-.32,0-.57.12-.74.35-.17.23-.26.57-.26,1s.09.77.26,1c.17.23.42.34.74.34s.56-.11.72-.34c.17-.23.26-.57.26-1s-.09-.77-.26-1c-.17-.23-.41-.35-.72-.35Zm0-1.04c.78,0,1.39.21,1.83.64.44.42.66,1.01.66,1.76s-.22,1.33-.66,1.75c-.44.42-1.05.63-1.83.63s-1.4-.21-1.84-.63c-.44-.42-.66-1.01-.66-1.75s.22-1.33.66-1.76c.44-.42,1.06-.64,1.84-.64Z"/>
    <path class="cls-2" d="m56.59,207.67v-2.78h1.46v.46c0,.25,0,.56,0,.93,0,.37,0,.62,0,.74,0,.37,0,.63.03.79.02.16.05.28.1.35.06.1.14.17.24.22.1.05.21.07.33.07.3,0,.54-.12.71-.35.17-.23.26-.55.26-.97v-2.25h1.45v4.55h-1.45v-.66c-.22.27-.45.46-.7.59-.24.12-.51.19-.81.19-.52,0-.92-.16-1.2-.48-.28-.32-.41-.79-.41-1.41Z"/>
    <path class="cls-2" d="m67.13,206.67v2.77h-1.46v-2.12c0-.39,0-.66-.03-.81-.02-.15-.05-.26-.09-.33-.06-.09-.13-.17-.23-.22-.1-.05-.21-.08-.33-.08-.3,0-.54.12-.72.35-.17.23-.26.56-.26.97v2.24h-1.45v-4.55h1.45v.66c.22-.26.45-.46.7-.58.25-.13.52-.19.82-.19.53,0,.93.16,1.2.49.27.32.41.79.41,1.4Z"/>
    <path class="cls-2" d="m71.44,203.38h2.6c.77,0,1.36.17,1.77.52.41.34.62.83.62,1.46s-.21,1.12-.62,1.47c-.41.34-1,.52-1.77.52h-1.04v2.1h-1.56v-6.06Zm1.56,1.13v1.69h.87c.3,0,.54-.07.7-.22.17-.15.25-.36.25-.63s-.08-.48-.25-.63c-.16-.14-.4-.22-.7-.22h-.87Z"/>
    <path class="cls-2" d="m80.85,206.13c-.13-.06-.26-.1-.39-.13-.12-.03-.25-.05-.38-.05-.38,0-.66.12-.86.36-.2.24-.3.58-.3,1.02v2.1h-1.45v-4.55h1.45v.75c.18-.3.4-.51.64-.65.24-.14.54-.21.87-.21.05,0,.1,0,.16,0,.06,0,.14.01.25.02v1.32Z"/>
    <path class="cls-2" d="m83.74,205.82c-.32,0-.57.12-.74.35-.17.23-.26.57-.26,1s.09.77.26,1c.17.23.41.34.74.34s.56-.11.72-.34c.17-.23.25-.57.25-1s-.09-.77-.25-1c-.17-.23-.41-.35-.72-.35Zm0-1.04c.78,0,1.39.21,1.83.64.44.42.66,1.01.66,1.76s-.22,1.33-.66,1.75c-.44.42-1.05.63-1.83.63s-1.4-.21-1.84-.63c-.44-.42-.66-1.01-.66-1.75s.22-1.33.66-1.76c.44-.42,1.06-.64,1.84-.64Z"/>
    <path class="cls-2" d="m87.29,204.9h1.45v4.46c0,.61-.15,1.07-.44,1.4-.29.32-.71.48-1.27.48h-.72v-.96h.26c.27,0,.46-.06.57-.19.1-.12.16-.37.16-.74v-4.46Zm0-1.77h1.45v1.19h-1.45v-1.19Z"/>
    <path class="cls-2" d="m94.68,207.16v.42h-3.4c.04.34.16.6.37.77.21.17.51.26.89.26.31,0,.62-.04.94-.13.32-.09.65-.23.99-.41v1.12c-.34.13-.69.23-1.03.29-.34.07-.69.1-1.03.1-.82,0-1.46-.21-1.92-.63-.46-.42-.68-1-.68-1.76s.22-1.33.67-1.75c.45-.43,1.06-.64,1.85-.64.71,0,1.29.22,1.72.65.43.43.65,1,.65,1.72Zm-1.49-.48c0-.27-.08-.5-.24-.66-.16-.17-.37-.26-.63-.26-.28,0-.51.08-.69.24-.18.16-.29.39-.33.68h1.89Z"/>
    <path class="cls-2" d="m99.45,205.04v1.18c-.19-.13-.39-.24-.59-.3-.2-.07-.4-.1-.62-.1-.41,0-.72.12-.95.36-.23.23-.34.57-.34.99s.11.75.34.99c.23.24.55.35.95.35.23,0,.44-.03.65-.1.2-.07.39-.17.57-.3v1.19c-.23.08-.46.15-.69.18-.23.04-.47.07-.71.07-.82,0-1.46-.21-1.93-.63-.46-.42-.69-1.01-.69-1.75s.23-1.34.69-1.76c.46-.42,1.11-.63,1.93-.63.24,0,.47.02.71.07.23.04.46.1.69.19Z"/>
    <path class="cls-2" d="m102.29,203.61v1.29h1.5v1.04h-1.5v1.93c0,.21.04.35.13.43.08.08.25.11.5.11h.75v1.04h-1.24c-.58,0-.98-.12-1.22-.36-.24-.24-.36-.65-.36-1.22v-1.93h-.72v-1.04h.72v-1.29h1.46Z"/>
  </g>
</svg>