<?xml version="1.0" encoding="UTF-8"?>
<svg id="Layer_2" data-name="Layer 2" xmlns="http://www.w3.org/2000/svg" width="173.21mm" height="231.07mm" xmlns:xlink="http://www.w3.org/1999/xlink" viewBox="0 0 491 655">
  <defs>
    <style>
      .cls-1 {
        fill: none;
      }

      .cls-2 {
        clip-path: url(#clippath);
      }

      .cls-3 {
        fill: #f7bbb9;
      }

      .cls-4 {
        fill: #ea5360;
      }

      .cls-5 {
        fill: rgba(255, 255, 255, .1);
      }
    </style>
    <clipPath id="clippath">
      <rect class="cls-1" width="491" height="655"/>
    </clipPath>
  </defs>
  <g id="Layer_1-2" data-name="Layer 1">
    <g class="cls-2">
      <g>
        <path class="cls-4" d="m292.53,45.79l-26.65,4.79,19.74,23.46c1.45,1.88,1.16,4.56-.65,6.09-1.81,1.53-4.51,1.36-6.11-.39l-20.76-24.74-16.41,25.88c-1.35,1.96-4.01,2.51-6.02,1.23-2.01-1.27-2.65-3.92-1.45-5.97l16.54-26.04-29.19-9.26c-2.33-.74-3.61-3.22-2.87-5.55.74-2.32,3.23-3.61,5.55-2.87l29.35,9.31,2.14-27.04h0c.04-1.21.57-2.34,1.47-3.15.9-.8,2.09-1.2,3.3-1.11,1.2.09,2.32.68,3.08,1.61.77.94,1.11,2.14.96,3.34l-2.15,26.87,28.53-5.13c2.35-.32,4.54,1.27,4.96,3.6.42,2.34-1.08,4.59-3.39,5.1l.04-.04Z"/>
        <path class="cls-4" d="m369.12,191.65l29.52-8.06-17.96-27.41h0c-.74-.97-1.05-2.21-.84-3.42.2-1.2.9-2.27,1.92-2.95,1.02-.67,2.28-.89,3.47-.61,1.19.29,2.21,1.05,2.81,2.12l17.85,27.25,18.44-24.25c1.5-1.87,4.22-2.21,6.13-.76,1.91,1.46,2.32,4.17.91,6.11l-18.24,23.98,26.46,7.09c2.25.72,3.54,3.08,2.93,5.36-.61,2.28-2.91,3.68-5.22,3.18l-27.1-7.26.77,27.91h0c.06,2.44-1.86,4.47-4.31,4.54-.42,0-.85-.04-1.26-.15-1.89-.51-3.22-2.2-3.28-4.16l-.77-28.2-29.95,8.22c-.76.21-1.55.21-2.31,0-1.93-.51-3.27-2.25-3.28-4.25,0-2,1.32-3.75,3.25-4.28l.05-.04Z"/>
        <path class="cls-4" d="m170.81,163.31c9.16-1.28,18.6,3.69,25.58,8.81-1.25-8.6-1.13-19.22,4.67-26.4,5-6.17,13.01-8.57,23.82-7.11,11.04,1.5,18.3,5.97,21.58,13.34,2.98,6.68,1.93,14.55-.28,21.4,6.37-3.5,13.97-6.08,21.18-4.49,6.91,1.51,12.14,6.48,15.58,14.74l40.45-.74h0c1.02-1.74,2.27-3.34,3.71-4.76,7.2-7.07,18.46-8.82,28.07-8.77-8.72-7.19-18.02-17.61-18.35-29.47-.26-10.71,6.62-20.32,20.45-28.58,10.5-6.27,20.16-7.42,28.8-3.38.82.4,1.61.84,2.38,1.32l12.37-69.16-54.11-6.51c2.72,14.11.38,24.2-6.96,29.99-5.35,4.22-12.55,5.41-19.9,5.06,4.46,4.22,8.08,9.23,9.5,15.07,2.22,9.01-1.03,18.17-9.65,27.18-11.22,11.72-22.24,16.45-32.78,14.06-12.07-2.71-20.33-14.53-24.92-23.34-4.55,9.44-12.9,22.61-25.59,26.45h0c-4.73,1.43-9.77,1.49-14.54.15-5.66-1.67-10.9-4.51-15.4-8.34-10.68-8.64-15.6-18.02-14.61-27.89,1-10.04,8.07-18.4,14.86-24.23-10.4-.48-23.4-3.07-31.08-12.1-7.25-8.53-8.28-20.8-3.06-36.47,3.92-11.78,10.5-18.93,19.55-21.26,12.13-3.12,25.83,3.63,35.12,9.8-1.74-8.98-2.24-20.7,3.68-29.58,5.48-8.23,15.14-12.4,28.73-12.38,16.21.03,27.36,4.83,33.13,14.27h0c1.27,2.12,2.26,4.4,2.92,6.78,7.04.67,25.03,2.37,46.75,4.05l-.48-.39c-.18-.12-.34-.26-.5-.41-8.42-7.05-14.07-16.85-15.93-27.67-1.87-10.82.17-21.95,5.74-31.41.03-.09.1-.18.15-.26h0c7.18-12.05,19.43-20.2,33.32-22.18,13.89-1.98,27.92,2.43,38.18,12,.22.18.42.38.61.59,10.39,10.01,15.53,24.28,13.9,38.62-1.63,14.33-9.84,27.09-22.22,34.51,7.47.35,14.74.62,21.59.74l72.44-49.43c2.02-1.38,4.77-.86,6.15,1.16,1.38,2.02.86,4.77-1.17,6.15L420.62,3.1c-.76.52-1.66.78-2.58.76-42.7-.88-102.89-6.37-120.99-8.07.04,5.24-.63,10.46-1.99,15.53,8.72-5.86,20.5-11.45,31.26-8.17,8.28,2.5,14.35,9.61,18.12,21.18l62.16,7.49h0c1.21.14,2.3.78,3.03,1.75.73.98,1.02,2.21.81,3.41l-14.12,78.9c5.5,6.37,9.2,14.65,11.6,21.72h0c2.42-5.85,5.58-11.35,9.43-16.37l21.4-90.94c.26-1.07.9-2.02,1.82-2.64l71.64-48.82c.97-.71,2.18-.99,3.36-.78,1.18.21,2.23.88,2.9,1.87.68.99.92,2.21.68,3.39-.24,1.17-.95,2.2-1.96,2.84l-70.35,47.82-18.26,77.56h0c1.04-.51,2.12-.96,3.23-1.32,9.24-3,19.13-.03,29.38,8.79,10.47,9.02,14.99,18.54,13.43,28.31-1.6,10.07-9.61,18.29-17.57,24.12,10.01.32,21.39,2.49,28.51,9.74,6.34,6.48,8.32,15.7,5.78,27.39-3.59,16.37-10.56,26.04-20.74,28.71-9.9,2.61-20.86-2.29-29.82-8.35,2.44,7.2,3.57,15.19.9,22.26-3.27,8.66-11.34,14.29-24,16.78-7.58,1.46-14.2,1.45-19.8-.06-4.66-1.19-8.9-3.67-12.21-7.16-9.32-9.81-9.75-25.95-8.71-36.88-9.24,6.42-23.93,14.22-36.54,10.22-6.98-2.19-12.33-7.52-15.94-15.84l-46.87-1.24c-4.81,2.87-10.79,3.96-16.67,4.12,3.86,3.49,7.07,7.8,8.2,12.92,1.62,7.4-1.34,14.78-8.82,22.05-8.3,8.03-16.68,11.1-24.87,9.15-9.8-2.28-16.79-11.56-21.01-19.04-3.53,8.09-9.73,18.16-19.41,20.87h0c-3.3.92-6.79.91-10.09,0-4.89-1.31-9.9-4.48-14.99-9.51-7.47-7.38-10.42-14.9-8.72-22.52,1.58-7.12,7.03-12.71,12.72-16.78-8.32-1.27-17.52-4.37-22.47-11.57-4.94-7.2-4.6-16.75,1.12-28.34,4.43-8.9,10.53-13.95,18.21-15.03h0ZM342.66-21.25c4.58-11.9,11.22-22.9,19.63-32.49-7.22-5.13-15.73-8.14-24.56-8.7-1.15,2.29-2.07,4.69-2.73,7.17-3.18,11.91-.32,24.62,7.66,34.02Zm.76-49.47c9.08,1.39,17.69,5,25.04,10.52,6.94-6.69,14.79-12.36,23.33-16.85-7.49-4.87-16.48-6.91-25.35-5.75-8.86,1.16-17.02,5.45-23.01,12.08h-.02Zm55.72-.05c-8.6,4-36.51,19.49-49.41,55.98,10.17,7.14,23.23,8.79,34.86,4.4,11.63-4.39,20.33-14.26,23.25-26.34,2.91-12.08-.34-24.83-8.7-34.04ZM323.77,11.59c-11.98-3.59-29.49,10.57-35.21,16.35h0c-1.53,1.55-3.96,1.76-5.73.48-1.77-1.27-2.34-3.65-1.35-5.59.11-.2,8.53-17.05,6.45-30.65h0c-.12-.37-.19-.76-.21-1.14-.43-2.28-1.26-4.47-2.45-6.46-4.05-6.62-12.66-9.99-25.58-10.01-10.42-.02-17.61,2.81-21.34,8.41-8.2,12.28.94,34.49,1.03,34.72h0c.81,1.92.17,4.14-1.54,5.34-1.7,1.19-4.01,1.04-5.54-.38-6.13-5.68-24.91-19.57-37.93-16.22-6.03,1.55-10.39,6.62-13.35,15.48-4.17,12.53-3.71,21.93,1.4,27.94,10.74,12.65,38.51,8.4,38.79,8.37,2.14-.33,4.2.93,4.88,2.99.67,2.06-.23,4.3-2.15,5.3-.21.12-21.76,11.55-23.2,26.32-.66,6.72,3.16,13.49,11.38,20.11,7.89,6.38,15.22,8.6,21.79,6.61,15.49-4.74,23.68-30.52,23.75-30.78.57-1.84,2.26-3.09,4.18-3.11.4,0,.79.05,1.18.15,1.44.39,2.6,1.47,3.06,2.89,2.24,6.72,10.52,24.77,22.82,27.51,7.3,1.65,15.52-2.23,24.42-11.55,6.4-6.69,8.91-13.06,7.46-18.95-2.48-10.12-16.04-18.3-25.54-22.62-3.55-1.29-6.07-2.4-6.94-2.8h0c-2.09-1-3.06-3.45-2.21-5.61.84-2.16,3.21-3.3,5.42-2.62.38.1,2.99,1.03,6.73,2.69,10.76,3.89,28.05,8.05,36.03,1.74,4.53-3.58,5.79-10.77,3.71-21.39-.38-1.95-.81-3.77-1.28-5.48h0c-.02-.08-.04-.16-.07-.24-2.7-10.04-7.06-16.04-12.88-17.82Zm19.37,214.01c12.61,3.83,30.91-9.89,37.03-15.49,1.43-1.38,3.6-1.65,5.32-.64,1.71,1,2.54,3.03,2.03,4.95-.08.28-6.76,28.17,4.69,40.21,4.93,5.18,12.96,6.73,23.9,4.61,9.42-1.83,15.27-5.59,17.39-11.17,4.32-11.41-6.68-29.44-11.28-35.41h0c-1.15-1.51-1.22-3.58-.17-5.15,1.05-1.57,2.99-2.31,4.82-1.82.82.22,1.57.68,2.14,1.32,6.48,7.23,26.2,25.19,39.45,21.67,6.7-1.77,11.54-9.18,14.35-22.05,1.9-8.69.78-15-3.42-19.29-9.3-9.47-32.29-7.35-40.37-5.77h0c-2.23.46-4.45-.85-5.12-3.03-.67-2.18.44-4.51,2.54-5.38,7.52-3.15,27.46-14.18,29.53-27.33,1.04-6.51-2.49-13.31-10.48-20.19-7.75-6.68-14.73-9.06-20.86-7.08-12.94,4.19-20.99,27.01-23,35.45h0c-.48,2.06-2.35,3.49-4.47,3.41-2.11-.08-3.88-1.63-4.21-3.72-1.35-8.49-7.69-31.83-20.6-37.82-5.86-2.72-12.58-1.77-20.52,2.98-10.88,6.5-16.3,13.49-16.13,20.76.3,13.94,20.78,27.92,28.68,32.12h0c2.07.99,3.03,3.4,2.21,5.55-.81,2.15-3.13,3.32-5.33,2.7-7.5-1.78-28.95-4.44-37.99,4.43-4.42,4.35-5.63,11.39-3.59,20.92.5,2.34,1.15,4.64,1.95,6.89l.03.1c2.67,7.21,6.5,11.68,11.46,13.24Zm-22.06-18.38c-1.21-5.07-1.48-10.31-.79-15.48l-34.54.63c1.42,6.24,1.23,11.57-.56,15.94l36.37.95c-.12-.66-.33-1.36-.49-2.04Zm-162.24-5.56c5.88,8.58,24.75,8.94,31.51,8.36h0c2.24-.23,4.29,1.25,4.77,3.45.48,2.19-.77,4.4-2.9,5.12-5.5,1.97-20.25,9.1-22.3,18.35-.97,4.38,1.15,9.19,6.32,14.29,6.22,6.15,11.75,8.59,16.46,7.29,9.32-2.6,15.38-19.09,16.92-25.18h0c.48-1.89,2.14-3.25,4.1-3.33,1.95-.08,3.73,1.12,4.37,2.97,2,5.76,9.49,21.09,19.46,23.63,5.08,1.21,10.7-1.11,16.68-6.91,5.12-4.95,7.25-9.59,6.34-13.77-1.94-8.86-16.4-15.73-21.8-17.63h0c-2.26-.77-3.5-3.21-2.8-5.49.7-2.28,3.1-3.59,5.4-2.95,6.08,1.63,24.65,4.8,32.57-1.02.52-.38,1-.82,1.43-1.29,3.17-3.49,3.29-9.52.37-17.92.01-.02.02-.05.02-.07-.17-.49-.35-.99-.54-1.51-2.33-6.15-5.52-9.55-9.73-10.53-9.66-2.13-23.43,8.78-27.93,13.17h0c-1.62,1.61-4.2,1.72-5.96.25-1.75-1.47-2.09-4.03-.79-5.91,3.48-5.12,11.64-20.37,7.59-29.46-1.96-4.37-6.9-7.12-14.69-8.18-7.54-1.01-12.84.29-15.74,3.86-6.39,7.89-2.01,25.78.22,32.01.7,1.98-.09,4.18-1.9,5.27-1.8,1.08-4.12.74-5.54-.81-4.4-4.86-18.15-17.15-28.7-15.65-4.64.65-8.38,3.97-11.4,10.14-4.21,8.54-4.81,15.07-1.81,19.46h0Z"/>
        <path class="cls-4" d="m191.1,190.89l21.98,9.65,1.63-22.3c.27-2.36,2.35-4.09,4.72-3.92,2.37.17,4.18,2.18,4.11,4.56l-1.61,21.97,18.93-6.17c2.32-.77,4.83.49,5.61,2.81.77,2.32-.49,4.83-2.82,5.6l-19.6,6.4,11.64,16.84c1.39,2.01.89,4.76-1.12,6.15-2.01,1.39-4.76.89-6.15-1.12l-11.8-17.07-15.24,17.18h0c-1.64,1.77-4.39,1.91-6.19.31-1.81-1.6-2-4.35-.43-6.19l14.96-16.91-22.16-9.72h0c-2.24-.99-3.26-3.6-2.28-5.85.98-2.25,3.6-3.27,5.85-2.28l-.02.07Z"/>
        <path class="cls-4" d="m142.85,81.86c5.01-.6,10.09.05,14.78,1.88.19.06.38.13.55.22,9.8,3.97,16.88,12.69,18.76,23.1,1.88,10.41-1.71,21.05-9.51,28.2-7.8,7.15-18.71,9.8-28.92,7.02l-1.31-.35h-.05c-5.66-1.81-10.68-5.19-14.47-9.76-3.79-4.57-6.18-10.14-6.88-16.03-.96-8.13,1.35-16.31,6.42-22.74,5.07-6.43,12.49-10.58,20.62-11.54Zm25.48,28.02h0c-.83-7.01-4.98-13.18-11.15-16.6-4.53,5.01-15.01,19.04-14.53,40.85,6.85,1.21,13.87-.89,18.93-5.67,5.06-4.78,7.56-11.67,6.74-18.58h0Zm-43.68,5.18h0c.74,6.2,4.08,11.8,9.19,15.38.37-14.47,5.33-28.45,14.15-39.93-1.36-.09-2.72-.05-4.07.11-5.8.69-11.08,3.65-14.7,8.23-3.61,4.58-5.26,10.41-4.58,16.21h0Z"/>
        <path class="cls-3" d="m489.43,416.67c.14.12.29.23.46.32.16.09.33.16.52.21.58.15,1.07.12,1.5-.1.42-.23.7-.62.85-1.17.15-.55.1-1.03-.15-1.44-.25-.41-.67-.7-1.24-.85-.19-.05-.37-.07-.56-.08-.19,0-.38.01-.56.05l-.19.71c.19-.07.37-.1.55-.11.17-.01.34,0,.52.05.32.08.54.26.67.51.13.25.14.55.05.91-.09.35-.26.6-.49.76-.24.15-.52.18-.83.09-.18-.05-.34-.11-.48-.2-.15-.1-.29-.22-.42-.39l-.19.71Z"/>
        <path class="cls-3" d="m487.26,414.29c.08-.01.16-.02.24-.02.08,0,.15.01.22.03.21.06.36.18.44.35.07.16.07.37,0,.62l-.32,1.18.83.22.69-2.57-.83-.22-.11.42c-.05-.19-.14-.35-.25-.46-.12-.12-.28-.2-.46-.25l-.09-.03s-.08-.01-.14-.02l-.22.75Z"/>
        <path class="cls-3" d="m484.14,414.07l-.06.23,1.92.52c-.08.19-.19.32-.33.39-.14.06-.32.06-.53,0-.18-.05-.35-.12-.52-.21-.16-.1-.33-.23-.49-.39l-.17.63c.17.13.35.24.53.33.19.09.38.16.57.21.47.12.86.11,1.18-.06.33-.17.55-.47.66-.9.11-.41.07-.77-.11-1.08-.19-.31-.51-.53-.95-.65-.4-.11-.76-.07-1.07.1-.31.18-.52.47-.63.89Zm.91-.06c.04-.15.12-.26.25-.32.12-.07.25-.09.39-.05.16.04.28.12.35.24.08.12.1.26.09.43l-1.08-.29Z"/>
        <path class="cls-3" d="m482.32,413.73c.17.05.29.11.36.2.07.08.08.17.05.29-.03.1-.08.17-.16.22-.08.04-.19.04-.32,0-.15-.04-.27-.13-.35-.27-.08-.14-.1-.29-.05-.46l.03-.09.43.12Zm-1.18-.65l-.39,1.47.83.22.1-.38c.07.18.16.33.29.44.12.11.27.19.47.24.27.07.51.06.72-.05.21-.12.34-.3.4-.54.08-.3.04-.55-.13-.76-.17-.2-.47-.36-.92-.48l-.48-.13v-.05c.05-.13.13-.21.25-.24.12-.03.28-.03.5.03.18.05.34.11.48.19.15.08.27.17.38.26l.17-.62c-.16-.09-.32-.17-.5-.23-.17-.07-.35-.14-.53-.18-.46-.12-.83-.12-1.08.01-.25.13-.44.39-.55.8Z"/>
        <path class="cls-3" d="m479.98,410.79l-.2.74-.85-.23-.15.58.85.23-.3,1.1c-.03.12-.07.19-.13.22-.06.02-.17.01-.31-.02l-.42-.11-.16.59.7.19c.33.09.58.08.75-.02.17-.1.3-.31.39-.63l.3-1.1.4.11.15-.58-.4-.11.2-.74-.82-.22Z"/>
        <path class="cls-3" d="m475.52,411.76l-.06.23,1.92.52c-.08.19-.19.32-.34.39-.14.06-.32.06-.53,0-.18-.05-.35-.12-.52-.21-.16-.1-.33-.23-.49-.39l-.17.63c.17.13.35.24.53.33.19.09.38.16.56.21.47.12.86.11,1.18-.06.33-.17.55-.47.66-.9.11-.41.07-.77-.11-1.08-.19-.31-.51-.53-.95-.65-.4-.11-.76-.07-1.07.1-.31.18-.52.47-.63.89Zm.91-.06c.04-.15.12-.26.24-.32.12-.07.25-.09.39-.05.16.04.28.12.35.24.08.12.1.26.09.43l-1.08-.29Z"/>
        <path class="cls-3" d="m473.37,410.22l.37-1.39-.82-.22-.96,3.58.82.22.1-.38c.08.19.17.33.29.44.12.11.26.19.44.23.32.09.62.03.89-.16.27-.2.45-.5.56-.9.11-.39.1-.74-.04-1.05-.14-.3-.37-.5-.69-.59-.17-.05-.33-.05-.49-.02-.16.04-.32.11-.48.23Zm.11,1.82c-.18-.05-.3-.14-.35-.3-.06-.16-.06-.37,0-.62.07-.24.16-.41.29-.51.13-.11.28-.14.46-.09.17.05.29.15.35.31.06.15.05.35-.01.59-.07.25-.16.43-.29.54-.13.1-.28.13-.45.08Z"/>
        <path class="cls-3" d="m468.31,410.65c-.18-.05-.3-.14-.35-.3-.06-.16-.06-.37,0-.62.07-.24.16-.41.3-.51.13-.11.28-.14.46-.09.17.05.29.15.35.31.06.15.05.35-.01.59-.07.25-.16.43-.29.54-.13.1-.28.13-.45.08Zm.98-1.52c-.07-.18-.16-.32-.27-.43-.12-.11-.27-.19-.46-.24-.31-.08-.61-.02-.88.17-.27.2-.46.49-.57.89-.11.4-.09.76.05,1.07.14.31.37.5.68.59.18.05.35.05.51.02.15-.04.3-.11.45-.24l-.1.38.83.22.96-3.58-.83-.22-.37,1.38Z"/>
        <path class="cls-3" d="m467.19,408.16l-.82-.22-1.16,1.55-.13-1.89-.82-.22.34,3.1c.03.32.1.55.21.71.11.15.29.26.53.33l.47.13.15-.55-.26-.07c-.14-.04-.24-.09-.29-.15-.05-.06-.08-.15-.09-.27v-.09s1.86-2.35,1.86-2.35Z"/>
        <path class="cls-3" d="m462.74,406.04l-3.16-.85-.18.67,1.14.31-.74,2.76.89.24.74-2.76,1.13.3.18-.67Z"/>
        <path class="cls-3" d="m456.02,406.53l-.06.23,1.92.52c-.08.19-.19.32-.33.39-.14.06-.32.06-.53,0-.18-.05-.35-.12-.52-.21-.16-.1-.33-.23-.49-.39l-.17.63c.17.13.35.24.53.33.19.09.38.16.56.21.47.12.86.11,1.18-.06.33-.17.54-.47.66-.9.11-.41.07-.77-.11-1.08-.19-.31-.51-.53-.95-.64-.4-.11-.76-.07-1.07.1-.31.18-.52.48-.63.89Zm.91-.06c.04-.15.12-.26.25-.32.12-.07.25-.09.39-.06.16.04.28.13.35.24.08.12.1.26.09.43l-1.08-.29Z"/>
        <path class="cls-3" d="m452.83,405.68l-.06.23,1.92.52c-.08.19-.19.32-.33.39-.14.06-.32.06-.53,0-.18-.05-.35-.12-.52-.21-.16-.1-.33-.23-.49-.39l-.17.63c.17.13.35.24.53.33.19.09.38.16.56.21.47.13.86.11,1.18-.06.33-.17.55-.47.66-.9.11-.41.07-.77-.11-1.08-.19-.31-.51-.53-.95-.64-.4-.11-.76-.07-1.07.1-.31.18-.52.48-.63.88Zm.91-.06c.04-.15.12-.26.24-.32.12-.07.25-.09.39-.05.16.04.28.13.35.24.08.12.1.26.09.43l-1.08-.29Z"/>
        <path class="cls-3" d="m452.77,404.3l-.81-.22-.91,1.66.05-1.89-.69-.18-.9,1.63.02-1.87-.79-.21-.02,2.75.9.24.91-1.66-.04,1.89.9.24,1.37-2.38Z"/>
        <path class="cls-3" d="m446.66,404.17c.17.05.29.11.36.2.07.08.08.17.05.29-.03.1-.08.17-.16.22-.08.04-.19.04-.32,0-.15-.04-.27-.13-.35-.27-.08-.14-.1-.29-.05-.46l.02-.09.43.12Zm-1.18-.65l-.39,1.47.83.22.1-.38c.07.18.17.33.29.44.12.11.27.19.47.24.27.07.51.06.72-.05.2-.12.34-.3.4-.54.08-.3.04-.55-.13-.76-.17-.2-.47-.36-.93-.48l-.48-.13v-.05c.05-.13.13-.21.25-.24.12-.03.28-.02.5.03.18.05.34.11.48.19.15.08.27.17.38.26l.17-.62c-.16-.09-.32-.17-.5-.23-.17-.08-.35-.14-.53-.19-.46-.12-.82-.12-1.08.01-.25.13-.44.39-.55.8Z"/>
        <path class="cls-3" d="m442.91,402.4c.08-.01.16-.02.24-.02.08,0,.15.01.22.03.21.06.36.18.44.35.07.16.07.37,0,.62l-.32,1.18.84.22.69-2.57-.83-.22-.11.42c-.05-.2-.14-.35-.25-.46-.12-.12-.28-.2-.47-.26l-.09-.02s-.08-.02-.14-.02l-.21.75Z"/>
        <path class="cls-3" d="m441.16,402.7c.17.05.29.12.36.2.07.08.08.17.05.29-.03.1-.08.17-.16.22-.08.04-.19.04-.32,0-.15-.04-.27-.13-.35-.27-.08-.14-.1-.29-.05-.46l.03-.09.43.11Zm-1.18-.65l-.39,1.47.83.22.1-.38c.07.18.16.33.29.44.11.11.27.19.47.24.27.07.51.06.72-.05.2-.12.34-.3.4-.54.08-.3.04-.55-.13-.76-.17-.2-.47-.36-.92-.48l-.48-.13v-.05c.05-.14.13-.21.25-.24.12-.03.28-.03.5.03.18.05.34.11.48.19.14.08.27.17.38.26l.17-.62c-.16-.09-.32-.17-.5-.24-.17-.07-.35-.14-.53-.18-.46-.12-.83-.12-1.08.01-.25.13-.44.39-.55.81Z"/>
        <path class="cls-3" d="m435.84,399.84l-.17.62c.2-.02.38-.03.55-.03.17.01.33.03.48.07.15.04.26.09.34.15.06.06.08.12.06.2-.02.07-.06.12-.12.14-.07.02-.18.02-.34,0l-.14-.02c-.43-.06-.74-.04-.92.04-.18.08-.31.25-.38.52-.07.27-.02.51.14.7.16.19.44.33.85.44.17.05.35.08.55.1.19.02.38.03.58.03l.17-.62c-.18.03-.36.04-.54.04-.19-.01-.37-.04-.55-.09-.16-.04-.28-.1-.35-.16-.07-.07-.09-.14-.07-.22.02-.08.07-.13.14-.15.06-.02.18-.02.34,0l.15.03c.38.06.66.04.85-.05.18-.09.3-.26.37-.51.07-.27.03-.5-.12-.68-.15-.18-.42-.33-.81-.43-.15-.04-.31-.07-.48-.09-.17-.02-.37-.04-.58-.04Z"/>
        <path class="cls-3" d="m433.71,399.75c.18.05.3.15.36.31.06.15.05.35-.01.59-.07.25-.16.43-.29.54-.13.1-.29.12-.47.08-.18-.05-.3-.15-.37-.3-.06-.16-.06-.37,0-.62.07-.24.16-.41.3-.51.14-.11.29-.14.47-.09Zm.16-.59c-.45-.12-.83-.09-1.13.09-.31.17-.53.46-.64.88-.11.43-.08.8.11,1.11.18.3.49.51.94.63.44.12.82.1,1.13-.07.32-.17.53-.48.65-.91.11-.42.08-.78-.11-1.08-.18-.31-.5-.52-.94-.64Z"/>
        <path class="cls-3" d="m430.48,398.88c.18.05.3.15.36.31.06.15.05.35-.01.59-.07.25-.16.43-.29.54-.13.1-.29.13-.47.08-.18-.05-.3-.15-.37-.3-.06-.16-.06-.37,0-.62.07-.24.16-.41.3-.51.14-.11.29-.14.47-.09Zm.16-.59c-.45-.12-.83-.09-1.13.09-.31.17-.53.46-.64.88-.12.43-.08.8.11,1.11.18.3.49.51.94.63.44.12.82.1,1.13-.07.32-.18.53-.48.65-.91.11-.42.08-.78-.11-1.08-.18-.31-.5-.52-.94-.64Z"/>
        <path class="cls-3" d="m425.74,398.12l-.42,1.57.83.22.32-1.2c.06-.22.11-.38.14-.45.03-.08.07-.14.11-.17.04-.05.1-.07.17-.08.06-.02.13-.02.19,0,.18.05.3.15.36.31.05.16.05.36-.01.59l-.34,1.26.83.22.69-2.57-.83-.22-.1.38c-.07-.18-.17-.33-.3-.44-.12-.11-.27-.19-.43-.23-.3-.08-.54-.04-.75.1-.21.14-.36.38-.45.72Z"/>
        <path class="cls-3" d="m424.55,395.94l-.2.74-.85-.23-.15.58.85.23-.3,1.1c-.03.12-.07.19-.13.22-.06.02-.17.01-.31-.03l-.42-.11-.16.59.7.19c.33.09.58.08.75-.01.17-.1.3-.31.39-.63l.3-1.1.4.11.15-.58-.4-.11.2-.74-.82-.22Z"/>
        <path class="cls-3" d="m421.64,396.51c.18.05.3.15.36.31.06.15.05.35-.01.59-.07.25-.16.43-.29.54-.13.1-.29.12-.47.08-.18-.05-.3-.15-.37-.3-.06-.16-.06-.37,0-.62.07-.24.16-.41.3-.51.14-.11.29-.14.47-.09Zm.16-.59c-.45-.12-.83-.09-1.13.09-.31.17-.53.46-.64.88-.12.43-.08.8.11,1.11.18.3.49.51.94.63.44.12.82.1,1.13-.07.32-.17.53-.48.65-.91.11-.42.08-.78-.11-1.08-.18-.31-.5-.52-.94-.64Z"/>
        <path class="cls-3" d="m417.66,395.64c.08-.01.16-.02.24-.02.08,0,.15.01.22.03.22.06.36.18.44.35.07.16.07.37,0,.62l-.32,1.18.83.22.69-2.57-.83-.22-.11.42c-.05-.19-.14-.35-.25-.46-.12-.12-.28-.2-.46-.25l-.1-.03s-.08-.01-.14-.02l-.21.75Z"/>
        <path class="cls-3" d="m414.58,395.13l-.42,1.57.83.22.32-1.2c.06-.22.11-.38.14-.45.03-.08.07-.14.1-.17.04-.05.1-.07.17-.09.06-.02.13-.02.19,0,.18.05.3.15.36.31.05.16.05.36-.01.59l-.34,1.26.83.22.69-2.57-.83-.22-.1.38c-.07-.18-.17-.33-.3-.44-.12-.11-.27-.19-.43-.23-.3-.08-.54-.05-.75.1-.21.14-.36.38-.45.72Z"/>
        <path class="cls-3" d="m490.14,418.27l-.14.54.44.12c.12.03.2.08.24.14.03.06.04.14,0,.23l-.05.19-.71-.19-.15.58.71.19-.53,1.99.82.22.53-1.99.4.11.15-.58-.4-.11.05-.19c.07-.28.06-.5-.06-.68-.12-.18-.35-.31-.69-.4l-.62-.17Z"/>
        <path class="cls-3" d="m487.41,419.37c.08-.01.16-.02.24-.02.08,0,.15.01.22.03.21.06.36.18.44.35.07.16.07.37,0,.62l-.32,1.18.83.22.69-2.57-.83-.22-.11.42c-.05-.19-.14-.35-.25-.46-.12-.12-.28-.2-.47-.26l-.09-.02s-.08-.02-.14-.02l-.21.75Z"/>
        <path class="cls-3" d="m485.83,418.76c.18.05.3.15.36.31.06.15.05.35-.01.59-.07.25-.16.43-.29.54-.13.1-.29.12-.47.08-.18-.05-.3-.15-.37-.3-.06-.16-.06-.37,0-.62.07-.24.16-.41.3-.51.14-.11.29-.14.47-.09Zm.16-.59c-.45-.12-.83-.09-1.13.09-.31.17-.53.46-.64.88-.11.43-.08.8.11,1.11.18.3.49.51.94.63.44.12.82.1,1.13-.07.32-.17.53-.48.65-.91.11-.42.08-.78-.11-1.08-.18-.31-.5-.52-.94-.64Z"/>
        <path class="cls-3" d="m481.46,417.47c-.06-.18-.15-.33-.27-.45-.12-.12-.27-.22-.45-.26-.29-.08-.53-.04-.74.11-.21.14-.36.38-.45.72l-.42,1.57.83.22.36-1.35s0-.04,0-.06l.03-.1c.05-.19.11-.32.19-.38.07-.07.17-.08.29-.05.16.04.27.14.32.3.05.15.04.34-.03.58l-.34,1.26.83.22.36-1.35c.08-.29.15-.46.23-.53.07-.07.16-.09.29-.05.15.04.26.14.31.3.05.15.04.34-.03.58l-.34,1.27.83.22.69-2.57-.83-.22-.1.38c-.06-.18-.14-.32-.25-.43-.12-.11-.25-.18-.42-.23-.18-.05-.35-.04-.51,0-.16.05-.29.14-.4.27Z"/>
        <path class="cls-3" d="m476.71,414.96l-.2.74-.85-.23-.15.58.85.23-.29,1.1c-.03.12-.07.19-.13.22-.06.02-.17.01-.31-.02l-.42-.11-.16.59.7.19c.33.09.58.08.75-.01.17-.1.3-.31.39-.63l.3-1.1.4.11.15-.58-.4-.11.2-.74-.82-.22Z"/>
        <path class="cls-3" d="m472.3,415.64l-.42,1.57.83.22.32-1.2c.06-.22.11-.38.14-.45.03-.08.07-.14.1-.17.04-.05.1-.07.17-.08.06-.02.13-.02.19,0,.18.05.3.15.36.31.05.16.05.36-.01.59l-.34,1.26.83.22.96-3.58-.83-.22-.37,1.38c-.07-.18-.17-.33-.3-.44-.12-.11-.27-.19-.43-.23-.3-.08-.54-.04-.75.1-.21.14-.36.38-.45.72Z"/>
        <path class="cls-3" d="m468.9,415.03l-.06.23,1.92.52c-.08.19-.19.32-.33.39-.14.06-.32.06-.53,0-.18-.05-.35-.12-.52-.21-.16-.1-.33-.23-.49-.39l-.17.63c.17.13.35.24.53.33.19.09.38.16.57.21.47.12.86.11,1.18-.06.33-.17.55-.47.66-.9.11-.41.07-.77-.11-1.08-.19-.31-.51-.53-.95-.64-.4-.11-.76-.07-1.07.1-.31.18-.52.47-.63.88Zm.91-.06c.04-.15.12-.26.25-.32.12-.07.25-.09.39-.05.16.04.28.13.35.24.08.12.1.26.09.43l-1.08-.29Z"/>
        <path class="cls-3" d="m467.17,412.28l-1-.27-1.87,2.02.63-2.35-.85-.23-.92,3.43,1,.27,1.87-2.02-.63,2.35.85.23.92-3.43Z"/>
        <path class="cls-3" d="m461.67,412.29c.18.05.3.15.36.31.06.15.05.35-.01.59-.07.25-.16.43-.29.54-.13.1-.29.13-.47.08-.18-.05-.3-.14-.37-.3-.06-.16-.06-.37,0-.62.07-.24.16-.41.3-.51.14-.11.29-.14.47-.09Zm.16-.59c-.45-.12-.83-.09-1.13.09-.31.17-.53.46-.64.88-.12.43-.08.8.11,1.11.18.3.49.51.94.63.44.12.82.1,1.13-.07.32-.18.53-.48.65-.91.11-.42.08-.78-.11-1.08-.18-.31-.5-.52-.94-.64Z"/>
        <path class="cls-3" d="m459.41,412.79l.42-1.56-.83-.22-.07.26-.14.52-.11.42c-.06.21-.1.36-.14.45-.03.09-.07.15-.1.17-.05.04-.11.08-.17.1-.06.01-.12,0-.2-.01-.17-.04-.28-.15-.35-.31-.06-.16-.06-.36,0-.59l.34-1.26-.82-.22-.69,2.57.82.22.1-.38c.09.19.19.34.31.45.12.11.26.18.43.23.3.08.55.05.76-.08.2-.15.35-.4.45-.75Z"/>
        <path class="cls-3" d="m453.59,410.63l-.42,1.57.83.22.32-1.2c.06-.22.11-.37.14-.45.03-.09.07-.15.1-.17.04-.05.1-.08.17-.08.06-.02.13-.02.19,0,.18.05.3.15.36.31.05.16.05.36-.01.59l-.34,1.27.83.22.69-2.57-.83-.22-.1.38c-.07-.18-.18-.33-.3-.44-.12-.11-.27-.19-.43-.23-.3-.08-.54-.04-.75.1-.21.14-.36.38-.45.71Z"/>
        <path class="cls-3" d="m451.65,408.12l-1.47-.39c-.44-.12-.8-.11-1.09.03-.28.13-.47.37-.57.73-.1.36-.05.67.13.93.18.25.5.43.93.55l.58.15-.32,1.2.89.24.92-3.43Zm-1.06.41l-.26.96-.48-.13c-.17-.05-.29-.12-.36-.23-.07-.11-.09-.25-.05-.4.04-.15.12-.26.24-.31.11-.06.25-.06.42-.02l.48.13Z"/>
        <path class="cls-3" d="m445.89,408.25c.08-.01.16-.02.24-.02.08,0,.15.01.22.03.21.06.36.18.44.35.07.16.07.37,0,.62l-.32,1.18.83.22.69-2.57-.83-.22-.11.42c-.05-.2-.14-.35-.25-.46-.12-.12-.28-.2-.47-.26l-.09-.02s-.08-.01-.14-.02l-.22.75Z"/>
        <path class="cls-3" d="m444.32,407.64c.18.05.3.15.36.31.06.15.05.35-.01.59-.07.25-.16.43-.29.54-.13.1-.29.12-.47.08-.18-.05-.3-.14-.37-.3-.06-.16-.06-.37,0-.62.07-.24.16-.41.3-.51.14-.11.29-.14.47-.09Zm.16-.59c-.45-.12-.83-.09-1.13.09-.31.17-.53.46-.64.88-.12.43-.08.8.11,1.11.18.3.5.51.94.63.44.12.82.1,1.13-.07.32-.17.53-.48.65-.91.11-.42.07-.78-.11-1.08-.18-.31-.5-.52-.94-.64Z"/>
        <path class="cls-3" d="m442.45,406.58l-.83-.22-.68,2.53c-.09.34-.07.62.05.85.11.23.32.39.64.47l.42.11.15-.55-.15-.04c-.15-.04-.25-.11-.28-.19-.04-.08-.04-.22.01-.43l.68-2.53Zm.27-1.01l-.84-.22-.18.67.83.22.18-.67Z"/>
        <path class="cls-3" d="m437.92,406.73l-.06.23,1.92.52c-.08.19-.19.32-.33.39-.14.06-.32.06-.53,0-.18-.05-.35-.12-.52-.21-.16-.1-.33-.23-.49-.39l-.17.63c.17.13.35.24.53.33.19.09.38.16.56.21.47.12.86.11,1.18-.06.33-.17.55-.47.66-.9.11-.41.07-.77-.11-1.08-.19-.31-.51-.53-.95-.64-.4-.11-.76-.07-1.07.1-.31.18-.52.47-.63.88Zm.91-.06c.04-.15.12-.26.24-.32.12-.07.25-.09.39-.05.16.04.28.12.35.24.08.12.1.26.09.43l-1.08-.29Z"/>
        <path class="cls-3" d="m435.54,404.81l-.18.66c.13-.04.26-.07.38-.07.13,0,.25.01.36.04.23.06.4.18.48.35.09.17.1.37.04.6-.07.24-.18.41-.34.51-.16.1-.36.12-.59.06-.12-.03-.24-.08-.35-.15-.11-.06-.2-.15-.28-.26l-.18.67c.11.09.23.16.36.21.13.06.26.11.39.15.47.13.86.11,1.18-.06.33-.17.54-.47.66-.9.11-.42.07-.78-.13-1.09-.19-.31-.52-.53-.99-.65-.13-.04-.27-.06-.41-.07-.14-.02-.28-.02-.42,0Z"/>
        <path class="cls-3" d="m434.15,403.56l-.2.74-.85-.23-.15.58.85.23-.3,1.1c-.03.12-.07.19-.13.22-.06.02-.17.01-.31-.03l-.42-.11-.16.59.7.19c.33.09.58.08.75-.01.17-.1.3-.31.39-.63l.29-1.1.4.11.15-.58-.4-.11.2-.74-.82-.22Z"/>
        <path class="cls-5" d="m381.99,284.43c-.21.11-.43.19-.67.25-.22.06-.46.09-.7.09-.75,0-1.35-.2-1.79-.61-.43-.42-.65-.99-.65-1.7s.21-1.29.65-1.7c.44-.42,1.04-.63,1.79-.63.25,0,.48.03.7.09.23.06.46.14.67.25v.93c-.21-.14-.42-.25-.63-.32-.2-.07-.42-.1-.65-.1-.41,0-.74.14-.98.4-.24.26-.35.62-.35,1.09s.11.82.35,1.09c.25.26.57.39.98.39.23,0,.45-.03.65-.09.21-.07.42-.18.63-.33v.93Z"/>
        <path class="cls-5" d="m385.41,282.23c-.1-.04-.19-.08-.28-.1-.1-.02-.19-.04-.28-.04-.28,0-.5.1-.65.28-.14.17-.21.43-.21.76v1.55h-1.09v-3.36h1.09v.54c.13-.22.28-.38.46-.47.18-.11.4-.16.65-.16h.12s.11,0,.18.02l.02.98Z"/>
        <path class="cls-5" d="m389.29,282.99v.3h-2.51c.04.26.13.45.28.58.15.12.37.18.65.18.23,0,.47-.03.7-.09.23-.07.47-.18.72-.32v.83c-.25.11-.5.18-.76.23-.26.04-.51.07-.76.07-.61,0-1.09-.15-1.42-.46-.34-.32-.51-.75-.51-1.32s.16-.97.49-1.28c.34-.32.79-.47,1.37-.47.53,0,.95.16,1.26.47.32.32.47.75.47,1.28Zm-1.09-.37c0-.2-.07-.36-.19-.48-.12-.13-.27-.19-.46-.19-.21,0-.38.06-.51.18-.13.12-.21.28-.25.49h1.4Z"/>
        <path class="cls-5" d="m391.61,283.16c-.22,0-.39.04-.51.12-.11.07-.16.18-.16.33,0,.13.04.24.12.32.09.07.22.11.39.11.2,0,.37-.07.51-.21.14-.14.21-.32.21-.54v-.12h-.56Zm1.65-.4v1.92h-1.09v-.49c-.14.2-.31.35-.49.44-.18.09-.39.14-.65.14-.35,0-.64-.1-.86-.3-.21-.21-.32-.47-.32-.79,0-.4.13-.69.4-.88.27-.18.69-.28,1.28-.28h.63v-.07c0-.18-.07-.3-.21-.37-.13-.08-.33-.12-.62-.12-.24,0-.45.03-.65.07-.2.05-.38.11-.54.19v-.81c.22-.06.45-.1.69-.12.23-.04.46-.05.7-.05.61,0,1.05.12,1.32.37.27.24.4.62.4,1.16Z"/>
        <path class="cls-5" d="m395.43,280.35v.97h1.11v.76h-1.11v1.44c0,.15.03.26.09.32.07.05.2.07.39.07h.55v.77h-.91c-.43,0-.74-.09-.91-.26-.18-.17-.26-.47-.26-.9v-1.44h-.53v-.76h.53v-.97h1.07Z"/>
        <path class="cls-5" d="m400.54,282.99v.3h-2.51c.04.26.13.45.28.58.15.12.37.18.65.18.23,0,.47-.03.7-.09.23-.07.47-.18.72-.32v.83c-.25.11-.5.18-.76.23-.26.04-.51.07-.76.07-.61,0-1.08-.15-1.42-.46-.34-.32-.51-.75-.51-1.32s.16-.97.49-1.28c.34-.32.8-.47,1.37-.47.53,0,.95.16,1.27.47.32.32.48.75.48,1.28Zm-1.09-.37c0-.2-.07-.36-.19-.48-.12-.13-.27-.19-.46-.19-.21,0-.38.06-.51.18-.13.12-.21.28-.25.49h1.4Z"/>
        <path class="cls-5" d="m403.66,281.81v-1.81h1.07v4.67h-1.07v-.49c-.15.2-.32.35-.49.44-.18.09-.38.14-.62.14-.42,0-.77-.16-1.04-.49-.26-.33-.39-.76-.39-1.28s.13-.93.39-1.26c.27-.32.61-.49,1.04-.49.22,0,.42.05.6.14.18.1.36.24.51.44Zm-.72,2.18c.23,0,.41-.08.53-.25.13-.18.19-.43.19-.76s-.07-.55-.19-.72c-.12-.17-.29-.26-.53-.26s-.4.09-.53.26c-.12.17-.18.4-.18.72s.06.58.18.76c.13.17.3.25.53.25Z"/>
        <path class="cls-5" d="m409.69,283.99c.23,0,.41-.08.53-.25.13-.18.19-.43.19-.76s-.07-.55-.19-.72c-.12-.17-.29-.26-.53-.26s-.4.09-.53.26c-.12.17-.18.4-.18.72s.06.58.18.76c.13.17.3.25.53.25Zm-.7-2.18c.14-.2.3-.34.47-.44.18-.09.4-.14.63-.14.41,0,.75.17,1.02.49.27.33.4.75.4,1.26s-.14.96-.4,1.28c-.27.33-.61.49-1.02.49-.24,0-.45-.05-.63-.14-.18-.09-.33-.24-.47-.44v.49h-1.09v-4.67h1.09v1.81Z"/>
        <path class="cls-5" d="m411.87,281.32h1.07l.91,2.27.77-2.27h1.07l-1.42,3.67c-.14.37-.31.64-.49.79-.19.15-.44.23-.76.23h-.61v-.72h.33c.18,0,.32-.03.4-.09.08-.06.14-.16.19-.3l.04-.11-1.51-3.48Z"/>
        <path class="cls-5" d="m417.98,280.19h4.13v.88h-1.49v3.6h-1.16v-3.6h-1.47v-.88Z"/>
        <path class="cls-5" d="m426,282.99v.3h-2.51c.04.26.13.45.28.58.15.12.37.18.65.18.23,0,.47-.03.7-.09.23-.07.47-.18.72-.32v.83c-.25.11-.5.18-.76.23-.26.04-.51.07-.76.07-.61,0-1.08-.15-1.42-.46-.34-.32-.51-.75-.51-1.32s.16-.97.49-1.28c.34-.32.79-.47,1.37-.47.53,0,.95.16,1.26.47.32.32.47.75.47,1.28Zm-1.09-.37c0-.2-.07-.36-.19-.48-.12-.13-.27-.19-.46-.19-.21,0-.38.06-.51.18-.13.12-.21.28-.25.49h1.4Z"/>
        <path class="cls-5" d="m430.17,282.99v.3h-2.51c.04.26.13.45.28.58.15.12.37.18.65.18.23,0,.47-.03.7-.09.23-.07.47-.18.72-.32v.83c-.25.11-.5.18-.76.23-.26.04-.51.07-.76.07-.61,0-1.08-.15-1.42-.46-.34-.32-.51-.75-.51-1.32s.16-.97.49-1.28c.34-.32.79-.47,1.37-.47.53,0,.95.16,1.26.47.32.32.47.75.47,1.28Zm-1.09-.37c0-.2-.07-.36-.19-.48-.12-.13-.27-.19-.46-.19-.21,0-.38.06-.51.18-.13.12-.21.28-.25.49h1.4Z"/>
        <path class="cls-5" d="m430.69,281.32h1.05l.56,2.32.56-2.32h.9l.56,2.28.58-2.28h1.04l-.88,3.36h-1.18l-.56-2.32-.56,2.32h-1.18l-.9-3.36Z"/>
        <path class="cls-5" d="m438.18,283.16c-.22,0-.4.04-.51.12-.11.07-.16.18-.16.33,0,.13.04.24.12.32.09.07.22.11.39.11.2,0,.37-.07.51-.21.14-.14.21-.32.21-.54v-.12h-.56Zm1.65-.4v1.92h-1.09v-.49c-.14.2-.31.35-.49.44-.18.09-.39.14-.65.14-.35,0-.64-.1-.86-.3-.21-.21-.32-.47-.32-.79,0-.4.13-.69.4-.88.27-.18.69-.28,1.28-.28h.63v-.07c0-.18-.07-.3-.21-.37-.13-.08-.33-.12-.61-.12-.24,0-.45.03-.65.07-.2.05-.38.11-.54.19v-.81c.22-.06.45-.1.68-.12.23-.04.46-.05.7-.05.61,0,1.05.12,1.32.37.27.24.4.62.4,1.16Z"/>
        <path class="cls-5" d="m443.33,282.23c-.1-.04-.19-.08-.28-.1-.1-.02-.19-.04-.28-.04-.28,0-.5.1-.65.28-.14.17-.21.43-.21.76v1.55h-1.09v-3.36h1.09v.54c.13-.22.28-.38.46-.47.18-.11.4-.16.65-.16h.12s.11,0,.18.02l.02.98Z"/>
        <path class="cls-5" d="m445.36,283.16c-.22,0-.39.04-.51.12-.11.07-.16.18-.16.33,0,.13.04.24.12.32.09.07.22.11.39.11.2,0,.37-.07.51-.21.14-.14.21-.32.21-.54v-.12h-.56Zm1.65-.4v1.92h-1.09v-.49c-.14.2-.31.35-.49.44-.18.09-.39.14-.65.14-.35,0-.64-.1-.86-.3-.21-.21-.32-.47-.32-.79,0-.4.13-.69.4-.88.27-.18.69-.28,1.28-.28h.63v-.07c0-.18-.07-.3-.21-.37-.13-.08-.33-.12-.61-.12-.24,0-.45.03-.65.07-.2.05-.38.11-.55.19v-.81c.22-.06.45-.1.69-.12.23-.04.46-.05.7-.05.61,0,1.05.12,1.32.37.27.24.4.62.4,1.16Z"/>
        <path class="cls-5" d="m452.77,281.42v.81c-.24-.09-.46-.16-.67-.21-.21-.04-.42-.07-.61-.07s-.35.03-.46.07c-.1.05-.14.12-.14.23,0,.1.04.17.11.21.08.05.22.08.42.11l.18.02c.55.07.92.19,1.11.35.2.15.3.4.3.76s-.14.62-.4.81c-.26.18-.65.26-1.18.26-.22,0-.46-.02-.7-.05-.24-.04-.48-.09-.72-.16v-.81c.21.1.43.17.65.23.23.05.47.07.7.07.21,0,.37-.03.47-.09.11-.06.16-.14.16-.25s-.04-.18-.12-.23c-.07-.04-.21-.08-.42-.11l-.19-.02c-.48-.06-.82-.17-1.02-.33-.19-.16-.28-.41-.28-.74,0-.36.12-.62.37-.79.25-.18.62-.26,1.12-.26.2,0,.4.02.61.05.22.03.46.07.72.14Z"/>
        <path class="cls-5" d="m455.4,282c-.24,0-.42.09-.54.26-.12.17-.18.4-.18.72s.06.58.18.76c.13.17.31.25.54.25s.41-.08.54-.25c.13-.18.19-.43.19-.76s-.07-.55-.19-.72c-.13-.17-.31-.26-.54-.26Zm0-.77c.58,0,1.04.16,1.35.47.32.31.49.73.49,1.28s-.17,1-.49,1.32c-.32.31-.77.46-1.35.46s-1.03-.15-1.35-.46c-.33-.32-.49-.75-.49-1.32s.16-.98.49-1.28c.33-.32.78-.47,1.35-.47Z"/>
        <path class="cls-5" d="m459.62,282c-.24,0-.42.09-.54.26-.12.17-.18.4-.18.72s.06.58.18.76c.13.17.31.25.54.25s.41-.08.55-.25c.13-.18.19-.43.19-.76s-.07-.55-.19-.72c-.13-.17-.31-.26-.55-.26Zm0-.77c.58,0,1.04.16,1.35.47.33.31.49.73.49,1.28s-.17,1-.49,1.32c-.32.31-.77.46-1.35.46s-1.03-.15-1.35-.46c-.33-.32-.49-.75-.49-1.32s.16-.98.49-1.28c.33-.32.78-.47,1.35-.47Z"/>
        <path class="cls-5" d="m465.64,282.62v2.05h-1.09v-1.56c0-.29,0-.49-.02-.6-.01-.11-.04-.2-.07-.25-.04-.07-.1-.12-.18-.16-.07-.04-.15-.07-.23-.07-.24,0-.42.09-.54.26-.12.17-.18.42-.18.72v1.65h-1.09v-3.36h1.09v.49c.15-.2.32-.34.51-.44.18-.09.39-.14.6-.14.39,0,.68.12.88.37.21.24.32.58.32,1.02Z"/>
        <path class="cls-5" d="m467.8,280.35v.97h1.11v.76h-1.11v1.44c0,.15.03.26.09.32.07.05.2.07.39.07h.55v.77h-.91c-.43,0-.74-.09-.91-.26-.18-.17-.26-.47-.26-.9v-1.44h-.53v-.76h.53v-.97h1.07Z"/>
        <path class="cls-5" d="m471.16,282c-.24,0-.42.09-.55.26-.12.17-.17.4-.17.72s.06.58.17.76c.13.17.31.25.55.25s.41-.08.54-.25c.13-.18.19-.43.19-.76s-.07-.55-.19-.72c-.13-.17-.31-.26-.54-.26Zm0-.77c.58,0,1.04.16,1.35.47.32.31.49.73.49,1.28s-.17,1-.49,1.32c-.32.31-.77.46-1.35.46s-1.03-.15-1.35-.46c-.33-.32-.49-.75-.49-1.32s.16-.98.49-1.28c.32-.32.78-.47,1.35-.47Z"/>
        <path class="cls-5" d="m476.3,282.23c-.1-.04-.19-.08-.28-.1-.1-.02-.19-.04-.28-.04-.28,0-.5.1-.65.28-.14.17-.21.43-.21.76v1.55h-1.09v-3.36h1.09v.54c.13-.22.28-.38.46-.47.18-.11.4-.16.65-.16h.12s.11,0,.18.02l.02.98Z"/>
        <path class="cls-5" d="m480.21,282.62v2.05h-1.09v-1.56c0-.29,0-.49-.02-.6-.01-.11-.04-.2-.07-.25-.04-.07-.1-.12-.18-.16-.07-.04-.15-.07-.23-.07-.24,0-.42.09-.54.26-.12.17-.18.42-.18.72v1.65h-1.09v-3.36h1.09v.49c.15-.2.32-.34.51-.44.18-.09.39-.14.6-.14.39,0,.68.12.88.37.21.24.32.58.32,1.02Z"/>
        <path class="cls-5" d="m380.6,286.15v.7h-.58c-.15,0-.26.03-.33.09-.06.06-.09.15-.09.28v.25h.93v.75h-.93v2.6h-1.07v-2.6h-.53v-.75h.53v-.25c0-.36.1-.63.3-.81.21-.17.53-.26.97-.26h.81Z"/>
        <path class="cls-5" d="m383.57,288.38c-.1-.04-.19-.08-.28-.11-.1-.02-.19-.03-.28-.03-.28,0-.5.1-.65.28-.14.18-.21.43-.21.76v1.55h-1.09v-3.36h1.09v.54c.13-.22.28-.38.46-.47.18-.11.4-.16.65-.16h.12s.1,0,.18.02l.02.98Z"/>
        <path class="cls-5" d="m385.7,288.15c-.24,0-.42.09-.55.26-.12.17-.18.4-.18.72s.06.58.18.76c.13.17.31.25.55.25s.41-.08.54-.25c.13-.18.19-.43.19-.76s-.07-.55-.19-.72c-.13-.18-.31-.26-.54-.26Zm0-.77c.58,0,1.04.16,1.35.48.33.31.49.73.49,1.28s-.17,1-.49,1.32c-.32.31-.77.46-1.35.46s-1.03-.15-1.35-.46c-.33-.32-.49-.76-.49-1.32s.16-.98.49-1.28c.32-.32.78-.48,1.35-.48Z"/>
        <path class="cls-5" d="m391.44,288.01c.13-.2.29-.35.47-.46.18-.11.39-.18.63-.18.37,0,.66.12.86.37.21.24.32.58.32,1.02v2.06h-1.09v-1.76s.02-.04.02-.07v-.12c0-.25-.04-.42-.11-.53-.07-.11-.18-.16-.33-.16-.21,0-.38.09-.49.26-.11.17-.16.4-.16.72v1.65h-1.09v-1.76c0-.37-.04-.61-.1-.72-.06-.11-.17-.16-.33-.16-.2,0-.36.09-.47.26-.1.17-.16.4-.16.72v1.65h-1.09v-3.36h1.09v.49c.13-.2.27-.34.44-.44.18-.09.37-.14.58-.14.23,0,.44.06.62.18.17.11.31.26.4.46Z"/>
        <path class="cls-5" d="m398.05,286.5v.97h1.11v.76h-1.11v1.44c0,.15.03.26.09.32.07.05.2.07.39.07h.54v.77h-.91c-.43,0-.74-.09-.91-.26-.18-.18-.26-.47-.26-.9v-1.44h-.53v-.76h.53v-.97h1.07Z"/>
        <path class="cls-5" d="m403.2,288.77v2.06h-1.09v-1.56c0-.29,0-.49-.02-.6-.01-.11-.04-.2-.07-.25-.04-.07-.1-.12-.18-.16-.07-.04-.15-.07-.23-.07-.24,0-.42.09-.54.26-.12.18-.18.42-.18.72v1.65h-1.09v-4.67h1.09v1.81c.15-.2.32-.34.51-.44.18-.09.39-.14.6-.14.39,0,.68.12.88.37.21.24.32.58.32,1.02Z"/>
        <path class="cls-5" d="m407.54,289.14v.3h-2.51c.04.26.13.45.28.58.15.12.37.17.65.17.23,0,.47-.03.7-.09.23-.07.47-.18.72-.32v.83c-.25.11-.5.18-.76.23-.26.04-.51.07-.76.07-.61,0-1.08-.15-1.42-.46-.34-.32-.51-.76-.51-1.32s.16-.97.49-1.28c.34-.32.8-.48,1.37-.48.53,0,.95.16,1.27.48s.47.75.47,1.28Zm-1.09-.37c0-.2-.07-.35-.19-.47-.12-.13-.27-.19-.46-.19-.21,0-.38.06-.51.17-.13.12-.21.28-.25.49h1.41Z"/>
        <path class="cls-5" d="m410.54,286.34h1.3l1.62,3.07v-3.07h1.11v4.48h-1.3l-1.62-3.07v3.07h-1.11v-4.48Z"/>
        <path class="cls-5" d="m417.24,288.15c-.24,0-.42.09-.54.26-.12.17-.18.4-.18.72s.06.58.18.76c.13.17.31.25.54.25s.41-.08.55-.25c.13-.18.19-.43.19-.76s-.07-.55-.19-.72c-.13-.18-.31-.26-.55-.26Zm0-.77c.58,0,1.04.16,1.35.48.33.31.49.73.49,1.28s-.17,1-.49,1.32c-.32.31-.77.46-1.35.46s-1.03-.15-1.35-.46c-.33-.32-.49-.76-.49-1.32s.16-.98.49-1.28c.33-.32.78-.48,1.35-.48Z"/>
        <path class="cls-5" d="m419.83,289.5v-2.04h1.09v1.56c0,.27,0,.47.02.6,0,.12.04.2.07.25.04.07.1.13.17.18.07.04.15.05.25.05.22,0,.4-.09.53-.26.13-.18.19-.41.19-.72v-1.65h1.07v3.36h-1.07v-.49c-.17.2-.34.35-.53.44-.18.09-.38.14-.6.14-.39,0-.68-.11-.9-.35-.2-.25-.3-.6-.3-1.05Z"/>
        <path class="cls-5" d="m427.63,288.77v2.06h-1.09v-1.56c0-.29,0-.49-.02-.6-.01-.11-.04-.2-.07-.25-.04-.07-.1-.12-.18-.16-.07-.04-.15-.07-.23-.07-.24,0-.42.09-.55.26-.12.18-.17.42-.17.72v1.65h-1.09v-3.36h1.09v.49c.15-.2.32-.34.51-.44.18-.09.39-.14.6-.14.39,0,.68.12.88.37.21.24.32.58.32,1.02Z"/>
        <path class="cls-5" d="m430.81,286.34h1.91c.57,0,1.01.13,1.32.39.3.24.46.61.46,1.07s-.15.84-.46,1.09c-.31.25-.75.37-1.32.37h-.76v1.56h-1.16v-4.48Zm1.16.84v1.25h.63c.22,0,.39-.05.51-.16.13-.11.19-.27.19-.48s-.07-.35-.19-.46c-.12-.1-.29-.16-.51-.16h-.63Z"/>
        <path class="cls-5" d="m437.78,288.38c-.1-.04-.19-.08-.28-.11-.1-.02-.19-.03-.28-.03-.28,0-.5.1-.65.28-.14.18-.21.43-.21.76v1.55h-1.09v-3.36h1.09v.54c.13-.22.28-.38.46-.47.18-.11.4-.16.65-.16h.12s.11,0,.18.02l.02.98Z"/>
        <path class="cls-5" d="m439.89,288.15c-.24,0-.42.09-.54.26-.12.17-.18.4-.18.72s.06.58.18.76c.13.17.31.25.54.25s.41-.08.55-.25c.13-.18.19-.43.19-.76s-.07-.55-.19-.72c-.13-.18-.31-.26-.55-.26Zm0-.77c.58,0,1.04.16,1.35.48.33.31.49.73.49,1.28s-.17,1-.49,1.32c-.32.31-.77.46-1.35.46s-1.03-.15-1.35-.46c-.33-.32-.49-.76-.49-1.32s.16-.98.49-1.28c.33-.32.78-.48,1.35-.48Z"/>
        <path class="cls-5" d="m442.52,287.47h1.09v3.3c0,.44-.11.78-.33,1.02-.21.25-.52.37-.93.37h-.55v-.72h.19c.2,0,.33-.05.4-.14.08-.08.12-.26.12-.53v-3.3Zm0-1.32h1.09v.88h-1.09v-.88Z"/>
        <path class="cls-5" d="m447.98,289.14v.3h-2.51c.04.26.13.45.28.58.15.12.37.17.65.17.23,0,.46-.03.7-.09.23-.07.47-.18.72-.32v.83c-.25.11-.5.18-.76.23-.26.04-.51.07-.76.07-.61,0-1.09-.15-1.42-.46-.34-.32-.51-.76-.51-1.32s.16-.97.49-1.28c.34-.32.8-.48,1.37-.48.53,0,.95.16,1.26.48.32.32.47.75.47,1.28Zm-1.09-.37c0-.2-.07-.35-.19-.47-.12-.13-.27-.19-.46-.19-.21,0-.38.06-.51.17-.13.12-.21.28-.25.49h1.41Z"/>
        <path class="cls-5" d="m451.52,287.57v.86c-.14-.09-.29-.16-.44-.21-.15-.04-.31-.07-.46-.07-.31,0-.54.09-.7.26-.17.18-.25.42-.25.72s.08.56.25.74c.16.18.39.26.7.26.16,0,.32-.02.48-.07.15-.04.29-.12.42-.23v.88c-.17.07-.33.11-.51.14-.18.04-.35.05-.53.05-.61,0-1.09-.15-1.42-.46-.34-.32-.51-.76-.51-1.32s.17-.98.51-1.28c.34-.32.81-.48,1.42-.48.18,0,.35.02.53.05.18.03.34.07.51.14Z"/>
        <path class="cls-5" d="m453.62,286.5v.97h1.11v.76h-1.11v1.44c0,.15.03.26.09.32.07.05.2.07.39.07h.55v.77h-.91c-.43,0-.74-.09-.91-.26-.18-.18-.26-.47-.26-.9v-1.44h-.53v-.76h.53v-.97h1.07Z"/>
      </g>
    </g>
  </g>
</svg>