<?xml version="1.0" encoding="UTF-8"?>
<svg id="Layer_2" data-name="Layer 2" xmlns="http://www.w3.org/2000/svg" width="152.75mm" height="145.7mm" xmlns:xlink="http://www.w3.org/1999/xlink" viewBox="0 0 433 413">
  <defs>
    <style>
      .cls-1 {
        fill: none;
      }

      .cls-2 {
        clip-path: url(#clippath);
      }

      .cls-3 {
        fill: #f7beca;
      }

      .cls-4 {
        fill: rgba(84, 83, 82, .1);
      }
    </style>
    <clipPath id="clippath">
      <rect class="cls-1" width="433" height="413"/>
    </clipPath>
  </defs>
  <g id="Layer_1-2" data-name="Layer 1">
    <g class="cls-2">
      <g>
        <path class="cls-3" d="m110.02,215.59c.24-4.1,2.59-7.81,6.6-10.6-1.53-4.54-1.24-8.84.92-12.21,2.83-4.46,8.24-6.62,15.21-6.08,4.79.37,10.03,2.07,15.09,4.74-3.03-14.73,1.12-27.25,10.29-29.66,3.96-1.03,8.21.06,12.11,3.01,3.85-2.85,8.02-3.91,11.91-2.9,8.9,2.31,13.11,14.18,10.61,28.34,7.97-4.53,16.33-6.4,22.77-4.99,3.81.83,6.79,2.79,8.62,5.66,2.21,3.45,2.49,7.83.89,12.44,3.91,2.78,6.19,6.43,6.43,10.44.56,9.19-9.41,16.92-23.7,18.91.74.67,1.49,1.33,2.17,2.04,19.92.12,35.77.05,47.03-.2,7.91-.12,15.3,1.93,21.93,4.98l-25.98-28.54c-1.34-1.47-1.64-3.62-.75-5.4l6.26-12.55-18.73-8.15c-2.44-1.06-3.56-3.9-2.5-6.34,1.07-2.44,3.89-3.56,6.34-2.5l19.2,8.35,9-18.05-3.77-9.42c-1.53,3.86-4.04,6.7-7.39,8-1.41.56-2.9.84-4.44.84-1.9,0-3.88-.43-5.87-1.29-5.75-2.49-11.16-8.38-14.97-16.1-2.53,5.43-5.88,10.15-9.68,13.42-3.78,3.24-7.72,4.9-11.44,4.9-1.51,0-2.99-.27-4.4-.83-3.81-1.48-6.62-4.87-8.05-9.56-.08,0-.15,0-.23,0-4.69,0-8.6-1.61-11.1-4.66-3.36-4.07-3.74-9.87-1.08-16.34,1.78-4.31,4.87-8.64,8.79-12.53-14.89-1.69-25.41-9.57-24.87-19,.24-4.09,2.59-7.8,6.6-10.6-1.53-4.54-1.24-8.84.92-12.21,2.83-4.46,8.19-6.63,15.22-6.08,4.79.37,10.03,2.07,15.08,4.75-3.04-14.73,1.11-27.25,10.28-29.66,3.96-1.03,8.21.07,12.11,3.01,3.85-2.85,8.03-3.9,11.91-2.9,8.9,2.31,13.11,14.18,10.61,28.34,7.96-4.53,16.33-6.4,22.77-4.99,3.81.83,6.79,2.79,8.63,5.66,2.2,3.46,2.49,7.83.89,12.44,3.91,2.78,6.2,6.43,6.43,10.44.55,9.18-9.39,16.9-23.63,18.9,6.74,6.18,11.08,13.53,11.72,20.09.38,3.88-.56,7.31-2.72,9.94-.87,1.05-1.92,1.88-3.07,2.59l4.5,11.26c.51,1.27.45,2.71-.16,3.94l-10.85,21.75c.09.8.05,1.63-.3,2.42-.43.98-1.16,1.73-2.02,2.23l-5.9,11.82,41.88,46.01,6.44-23.96-23.79-26.35c-1.27-1.4-1.6-3.41-.85-5.14l10.56-24.44c1.05-2.45,3.9-3.56,6.34-2.51,1.65.71,2.62,2.25,2.81,3.92.68-3.46,2.82-6.6,6.3-9.03-1.53-4.54-1.25-8.84.91-12.21.44-.68,1.04-1.21,1.59-1.78-8.23-10.79-17.39-23.01-17.39-23.01-.77-1.03-1.1-2.32-.91-3.6.19-1.27.88-2.41,1.91-3.18l15.51-11.4-20.06-36.85c-1.27-2.34-.41-5.27,1.92-6.54,2.35-1.27,5.27-.41,6.54,1.93l22.07,40.55c1.15,2.12.57,4.76-1.38,6.19l-14.97,11c3.62,4.81,9.99,13.27,15.67,20.68,1.47-.17,3.04-.22,4.7-.09,3.46.27,7.16,1.27,10.86,2.78l3.34-4.48c-.77-11.79,3.38-21.16,11.17-23.21.13-.03.26-.02.39-.05l.99-6.59c-4.13-.29-7.51-1.77-9.75-4.53-5.79-7.03-2.33-18.97,7.81-28.92-6.12-.7-11.8-2.44-16.19-5.12-5.97-3.65-9.09-8.55-8.78-13.82.24-4.1,2.59-7.8,6.6-10.6-1.53-4.54-1.24-8.84.92-12.21,2.84-4.46,8.23-6.63,15.22-6.08,4.79.37,10.03,2.07,15.09,4.75-3.04-14.73,1.11-27.25,10.28-29.66,3.96-1.03,8.21.06,12.11,3.01,3.85-2.85,8.02-3.91,11.91-2.89,8.9,2.31,13.11,14.18,10.61,28.35,7.96-4.53,16.32-6.41,22.77-4.99,3.81.83,6.8,2.79,8.63,5.66,2.2,3.45,2.49,7.83.89,12.44,3.91,2.78,6.2,6.43,6.43,10.44.55,9.19-9.41,16.92-23.7,18.91,4.54,4.16,8.13,8.91,10.1,13.66,2.69,6.46,2.32,12.26-1.03,16.36-2.6,3.14-6.65,4.75-11.57,4.67-1.43,4.57-4.19,7.87-7.92,9.34-1.41.56-2.89.83-4.42.83-1.92,0-3.91-.44-5.9-1.3-5.74-2.49-11.14-8.38-14.93-16.07-3.07,6.62-7.18,11.82-11.64,14.93,8.24,2.89,12.11,14.31,9.7,27.95,7.96-4.53,16.31-6.4,22.77-4.99,3.81.83,6.8,2.79,8.63,5.66,2.21,3.45,2.49,7.83.89,12.45,3.91,2.78,6.19,6.43,6.43,10.44.56,9.19-9.41,16.92-23.69,18.91,4.54,4.16,8.13,8.91,10.1,13.66,2.69,6.46,2.32,12.26-1.03,16.35-2.64,3.21-6.69,4.85-11.57,4.69-1.43,4.56-4.19,7.85-7.92,9.32-1.41.55-2.89.83-4.42.83-1.92,0-3.91-.43-5.9-1.3-5.75-2.5-11.16-8.4-14.95-16.12-2.54,5.44-5.88,10.17-9.69,13.44-3.78,3.23-7.72,4.9-11.44,4.9-1.51,0-2.99-.27-4.4-.83-3.52-1.37-6.13-4.42-7.64-8.56l-4.56,7.18,14.35,16.71c.58.68.91,1.52,1.05,2.4,16.32-8.01,34.49-16.75,37.07-17.29.68-.14,2.49-.5,35.05,2.62v-26.14c0-2.66,2.16-4.82,4.82-4.82s4.82,2.15,4.82,4.82v27.09c6.37.63,13.64,1.36,22,2.22l6.88-8.16c-1.56-.76-2.96-1.72-4.03-3.03-3.36-4.07-3.74-9.87-1.08-16.34,1.78-4.31,4.86-8.64,8.79-12.53-14.9-1.69-25.42-9.57-24.86-18.99.24-4.1,2.59-7.8,6.6-10.6-1.53-4.54-1.24-8.84.92-12.21,2.84-4.46,8.25-6.62,15.22-6.08,4.79.37,10.03,2.07,15.09,4.75-3.04-14.73,1.11-27.25,10.28-29.66,3.96-1.03,8.21.06,12.11,3.01,3.85-2.86,8.02-3.91,11.91-2.9,8.9,2.31,13.11,14.17,10.61,28.35,7.96-4.53,16.32-6.4,22.77-4.99,3.81.83,6.8,2.79,8.63,5.66,2.21,3.46,2.49,7.83.89,12.45,3.91,2.78,6.19,6.43,6.43,10.44.56,9.19-9.41,16.92-23.7,18.91,4.54,4.16,8.13,8.91,10.1,13.66,2.69,6.46,2.33,12.26-1.03,16.36-2.6,3.14-6.64,4.6-11.56,4.67-1.43,4.57-4.19,7.87-7.92,9.33-1.41.56-2.89.83-4.43.83-1.92,0-3.9-.43-5.9-1.29-5.75-2.5-11.16-8.4-14.95-16.11-2.54,5.44-5.88,10.17-9.69,13.43-3.78,3.24-7.72,4.9-11.45,4.9-1.51,0-2.98-.27-4.4-.82-2.89-1.13-5.2-3.35-6.77-6.41l-9.73,11.54c-1.03,1.22-2.59,1.83-4.18,1.69-23.21-2.4-60.99-6.1-66.37-6.14-3.55,1.34-22.01,10.2-38.39,18.26l6.81,159.46c.06,1.31-.43,2.6-1.33,3.54-.91.95-2.17,1.49-3.48,1.49h-46.66c-1.31,0-2.57-.53-3.48-1.48-.91-.95-1.39-2.23-1.34-3.54l6.62-155.22c-.52-.33-1-.74-1.37-1.27-.18-.26-20.12-25.71-44.2-25.11-9.99.22-23.53.3-40.28.24.32.65.72,1.29.99,1.94,2.69,6.46,2.33,12.26-1.03,16.35-2.63,3.2-6.6,4.81-11.57,4.69-1.43,4.56-4.18,7.85-7.91,9.32-1.43.56-2.93.84-4.46.84-3.72,0-7.65-1.65-11.42-4.87-3.64-3.1-6.86-7.51-9.37-12.61-2.54,5.46-5.89,10.21-9.72,13.49-3.78,3.24-7.72,4.9-11.44,4.9-1.51,0-2.99-.27-4.4-.83-3.81-1.49-6.61-4.87-8.05-9.55-4.85.09-8.79-1.55-11.33-4.66-3.36-4.07-3.74-9.87-1.08-16.34,1.78-4.31,4.86-8.64,8.79-12.53-14.9-1.69-25.42-9.57-24.86-19h0Zm120.46-106.12c0,2.28,1.86,4.14,4.13,4.14s4.13-1.86,4.13-4.14-1.86-4.14-4.13-4.14-4.13,1.85-4.13,4.14Zm-32.62,36.06c.97,1.17,3.53,1.48,6.72.78,1.34-.3,2.76,0,3.87.81,1.12.82,1.83,2.07,1.96,3.44.32,3.33,1.42,5.75,2.89,6.33,1.38.52,3.69-.39,6.07-2.42,3.26-2.79,6.28-7.35,8.3-12.52,3.37-8.63,3-17.21.58-20.34-.83-.44-1.61-.96-2.33-1.55-3.65-.97-10.67.81-18.36,7.15-4.28,3.52-7.67,7.81-9.3,11.78-1.19,2.88-1.34,5.39-.39,6.54Zm-2.61-61.01c-3.14-.25-5.54.39-6.35,1.66-.8,1.26-.28,3.86,1.35,6.63.7,1.19.86,2.63.42,3.94-.43,1.32-1.41,2.38-2.68,2.93-3.06,1.31-5.02,3.11-5.11,4.68-.18,3.16,7.16,8.39,18.64,9.06,10.03.58,17.57-2.85,19.49-5.67.14-1.09.38-2.14.76-3.13-.46-3.76-4.36-9.74-12.42-14.88-4.68-2.98-9.82-4.88-14.1-5.21Zm47.71-25.08c-.17-.05-.36-.07-.55-.07-1.46,0-3.45,1.24-5.36,3.39-.92,1.02-2.23,1.61-3.6,1.61h-.01c-1.38,0-2.69-.6-3.6-1.63-2.21-2.51-4.53-3.83-6.04-3.42-3.07.8-5.77,9.4-2.85,20.53,2.06,7.89,6.69,14.05,10.49,16.25,1.03-.25,2.09-.41,3.19-.41.66,0,1.29.11,1.92.19,3.28-2.1,7.18-7.51,9.34-15.92,2.88-11.13.15-19.72-2.92-20.52Zm42.13,43.14c-.09-1.52-2-3.28-4.99-4.6-1.26-.56-2.23-1.63-2.65-2.94-.42-1.31-.26-2.75.44-3.93,1.69-2.85,2.22-5.46,1.37-6.79-.53-.83-1.69-1.24-2.57-1.43-.68-.15-1.5-.24-2.43-.24-3.71,0-9.24,1.35-15.38,5.29-7.06,4.54-11.32,10.77-12.22,14.98.8,1.47,1.33,3.07,1.55,4.8,2.48,2.44,8.84,4.56,18.25,3.99,11.49-.7,18.82-5.95,18.62-9.12Zm-22.17,23.97c-2.43-1.96-5.04-3.58-7.62-4.72-5.11-2.35-9.36-2.69-11.66-2.04-.66.57-1.36,1.08-2.12,1.53-2.1,3.04-2.62,10.23,1.1,19.77,3.36,8.52,8.29,13.16,11.5,14.54.82.36,2,.7,2.96.32,1.43-.55,2.51-2.9,2.82-6.13.13-1.38.84-2.63,1.96-3.44.83-.6,1.82-.92,2.83-.92.35,0,.7.04,1.04.12,1.67.37,3.08.48,4.46.29,1.52-.15,2.13-.68,2.44-1.06.63-.76.65-1.98.57-2.87-.34-3.49-3.25-9.61-10.29-15.39Zm228.84,64.42c0,2.28,1.86,4.13,4.14,4.13s4.14-1.86,4.14-4.13-1.86-4.14-4.14-4.14-4.14,1.85-4.14,4.14Zm-35.23-24.95c-3.12-.25-5.54.39-6.35,1.66-.81,1.26-.28,3.86,1.35,6.63.7,1.19.85,2.63.42,3.94-.43,1.32-1.41,2.38-2.68,2.93-3.06,1.31-5.02,3.1-5.11,4.68-.19,3.16,7.16,8.39,18.64,9.06,10.05.61,17.56-2.84,19.48-5.66.14-1.09.38-2.15.76-3.15-.46-3.76-4.36-9.74-12.42-14.87-4.68-2.99-9.82-4.88-14.1-5.21Zm47.71-25.08c-.17-.05-.36-.07-.55-.07-1.45,0-3.44,1.24-5.35,3.39-.92,1.03-2.22,1.62-3.6,1.62h-.01c-1.38,0-2.69-.6-3.6-1.63-2.21-2.51-4.55-3.8-6.04-3.42-3.07.81-5.77,9.4-2.86,20.53,2.07,7.89,6.7,14.06,10.49,16.25,1.02-.24,2.08-.41,3.18-.41.66,0,1.29.1,1.93.19,3.28-2.1,7.18-7.51,9.34-15.92,2.88-11.14.15-19.74-2.92-20.53Zm42.13,43.14c-.09-1.52-2-3.29-4.99-4.6-1.26-.56-2.23-1.63-2.65-2.94-.42-1.31-.26-2.75.44-3.93,1.7-2.86,2.22-5.46,1.37-6.79-.54-.83-1.69-1.24-2.57-1.43-.69-.15-1.5-.24-2.43-.24-3.72,0-9.24,1.35-15.39,5.29-7.06,4.54-11.32,10.77-12.22,14.98.8,1.46,1.33,3.08,1.56,4.8,2.47,2.44,8.82,4.58,18.25,3.99,11.49-.7,18.82-5.95,18.63-9.12Zm-42.45,38.51c3.35,8.51,8.28,13.15,11.48,14.54.83.36,2.01.72,2.95.34,1.42-.55,2.5-2.9,2.81-6.14.14-1.37.85-2.62,1.97-3.43.83-.6,1.82-.92,2.83-.92.35,0,.7.04,1.04.11,3.27.73,5.92.42,6.91-.78.94-1.14.78-3.65-.42-6.53-1.65-3.96-5.05-8.24-9.34-11.75-7-5.73-15.12-7.87-19.19-6.78-.66.59-1.37,1.1-2.14,1.55-2.18,3.12-2.52,10.64,1.09,19.78Zm-32.24,9.47c.32,3.33,1.43,5.76,2.89,6.33,1.38.55,3.7-.39,6.07-2.42,3.26-2.79,6.28-7.35,8.3-12.51,3.37-8.63,2.99-17.21.58-20.34-.83-.44-1.61-.96-2.33-1.55-3.65-.96-10.67.81-18.36,7.15-4.28,3.52-7.67,7.81-9.3,11.78-1.19,2.89-1.34,5.39-.39,6.55.96,1.18,3.53,1.48,6.71.78,1.35-.3,2.76,0,3.87.81,1.12.81,1.84,2.06,1.97,3.43Zm-104.96-46.22c2.28,0,4.14-1.86,4.14-4.14s-1.86-4.14-4.14-4.14-4.14,1.86-4.14,4.14,1.86,4.14,4.14,4.14Zm-40.6,13.79c1.24-1.61,2.65-3.17,4.18-4.67-2.54-.29-5.01-.71-7.34-1.37l3.16,6.04Zm1.24-42.88c-3.11-.26-5.54.39-6.35,1.66-.8,1.25-.27,3.86,1.35,6.63.7,1.19.86,2.63.42,3.94-.43,1.32-1.41,2.38-2.68,2.93-3.06,1.31-5.02,3.11-5.11,4.68-.08,1.48,1.52,3.4,4.18,5.03,3.66,2.24,8.93,3.71,14.46,4.03,4.24.26,8.01-.23,11.14-1.08.04,0,.06-.03.1-.04.01,0,.02,0,.03,0,4.19-1.15,7.11-2.94,8.21-4.55.14-1.09.38-2.14.76-3.14-.46-3.76-4.36-9.74-12.42-14.88-4.68-2.98-9.82-4.88-14.09-5.21Zm57.81-87.89c0,2.28,1.85,4.14,4.13,4.14s4.14-1.86,4.14-4.14-1.86-4.14-4.14-4.14-4.13,1.85-4.13,4.14Zm-35.23-24.95c-3.13-.25-5.54.39-6.35,1.66-.8,1.26-.28,3.86,1.35,6.63.7,1.19.85,2.63.42,3.94-.43,1.32-1.41,2.38-2.68,2.93-3.06,1.31-5.02,3.11-5.11,4.68-.09,1.47,1.52,3.4,4.18,5.03,3.66,2.24,8.93,3.71,14.46,4.03,2.8.17,5.39,0,7.74-.35.18-.06.36-.07.55-.11,5.77-.99,9.85-3.24,11.19-5.21.14-1.09.38-2.14.76-3.14-.46-3.76-4.36-9.74-12.42-14.88-4.68-2.98-9.81-4.88-14.09-5.21Zm47.71-25.08c-.17-.05-.36-.07-.55-.07-1.45,0-3.44,1.24-5.35,3.39-.92,1.03-2.08,1.75-3.61,1.62-1.38,0-2.69-.6-3.6-1.63-2.21-2.51-4.57-3.82-6.04-3.42-3.07.8-5.77,9.4-2.85,20.53,2.07,7.89,6.7,14.06,10.49,16.25,1.03-.25,2.08-.41,3.18-.41.66,0,1.29.11,1.92.19,3.28-2.1,7.18-7.51,9.34-15.92,2.88-11.13.15-19.73-2.92-20.53Zm42.13,43.14c-.09-1.53-2-3.29-4.99-4.6-1.26-.56-2.23-1.62-2.65-2.94-.42-1.31-.26-2.75.44-3.94,1.7-2.86,2.22-5.47,1.37-6.8-.54-.83-1.69-1.24-2.57-1.43-.69-.15-1.5-.24-2.43-.24-3.72,0-9.24,1.35-15.39,5.29-7.05,4.54-11.32,10.76-12.21,14.97.8,1.47,1.33,3.08,1.56,4.8,2.47,2.44,8.81,4.57,18.25,3.98,11.49-.69,18.82-5.94,18.63-9.12Zm-42.45,38.5c3.34,8.5,8.28,13.15,11.48,14.54.83.36,2.01.7,2.95.34,1.42-.56,2.5-2.91,2.82-6.14.13-1.37.85-2.62,1.97-3.43.83-.6,1.82-.92,2.83-.92.35,0,.7.04,1.04.11,3.27.72,5.93.42,6.91-.78.94-1.14.78-3.65-.42-6.53-1.65-3.96-5.05-8.24-9.34-11.75-7-5.73-15.12-7.88-19.18-6.78-.66.58-1.37,1.1-2.14,1.55-2.19,3.11-2.52,10.64,1.09,19.78Zm-14.96.89c3.65-9.37,2.68-17.56.54-20.37-.85-.45-1.64-.98-2.36-1.58-2.57-.62-7.11-.03-12.99,3.43-1.75,1.02-3.52,2.28-5.3,3.75-8.88,7.33-11.73,15.89-9.69,18.36.93,1.15,3.54,1.44,6.68.74,1.43-.32,2.92.03,4.07.94.83.66,1.32,1.6,1.57,2.6,0,.02,0,.03.01.05.05.21.17.4.19.61.07.3.11.59.12.89.39,2.92,1.41,4.96,2.77,5.48,2.95,1.13,10.21-4.2,14.39-14.9Zm-7.3,30.3c-.17-.04-.36-.07-.55-.07-1.46,0-3.44,1.25-5.36,3.39-.92,1.02-2.22,1.61-3.6,1.61h-.01c-1.38,0-2.69-.6-3.6-1.63-2.21-2.5-4.54-3.82-6.04-3.42-3.07.8-5.77,9.4-2.86,20.53,2.07,7.89,6.7,14.05,10.49,16.25,1.03-.25,2.08-.41,3.18-.41.66,0,1.29.1,1.92.19,3.28-2.1,7.18-7.51,9.35-15.92,2.88-11.13.15-19.73-2.92-20.53Zm42.13,43.15c-.09-1.53-2-3.29-4.99-4.6-1.26-.56-2.23-1.63-2.65-2.94-.42-1.31-.26-2.75.44-3.93,1.69-2.85,2.22-5.46,1.37-6.79-.54-.83-1.69-1.24-2.57-1.43-.69-.15-1.5-.24-2.43-.24-3.72,0-9.24,1.35-15.39,5.29-7.06,4.54-11.32,10.77-12.22,14.97.8,1.47,1.33,3.08,1.56,4.8,2.47,2.44,8.82,4.56,18.25,3.99,11.49-.7,18.82-5.95,18.63-9.12Zm-30.97,53.05c.83.35,2.02.71,2.95.34,1.42-.56,2.5-2.91,2.82-6.14.14-1.37.85-2.62,1.96-3.43.83-.6,1.82-.92,2.83-.92.35,0,.7.04,1.04.11,3.27.73,5.93.41,6.92-.78.94-1.14.78-3.64-.42-6.53-1.65-3.96-5.06-8.25-9.34-11.75-7-5.73-15.13-7.87-19.19-6.78-.66.58-1.37,1.1-2.14,1.55-2.18,3.12-2.52,10.64,1.09,19.78,3.35,8.5,8.27,13.15,11.48,14.54Zm-45.68-8.51c1.12.82,1.83,2.06,1.96,3.44.32,3.33,1.42,5.75,2.89,6.32,1.39.54,3.7-.39,6.07-2.41,3.26-2.79,6.28-7.35,8.3-12.51,3.37-8.63,2.99-17.21.58-20.35-.83-.44-1.61-.96-2.33-1.55-3.65-.96-10.67.81-18.35,7.15-4.28,3.52-7.67,7.81-9.3,11.78-1.19,2.89-1.34,5.39-.39,6.54.96,1.18,3.54,1.46,6.71.78,1.35-.3,2.76,0,3.87.81Zm2.03,201.81l-.44-10.32h-16.32c-2.66,0-4.82-2.15-4.82-4.82s2.15-4.82,4.82-4.82h15.91s-1.93-45.34-1.93-45.34h-10.92c-2.66,0-4.82-2.15-4.82-4.82s2.16-4.82,4.82-4.82h10.51l-2.01-47.02h-11.55c-2.66,0-4.82-2.15-4.82-4.82s2.15-4.82,4.82-4.82h11.14l-1.33-31.11-15.59-18.16c-1.38-1.61-1.55-3.93-.41-5.72l5.37-8.46c-.93-.63-1.78-1.35-2.49-2.22-2.95-3.57-3.6-8.48-1.92-14l-9.51-18.19c-.69-1.32-.7-2.84-.11-4.17-3.63-3.09-5.57-6.79-5.59-10.72,0,.02,0,.04-.01.06l-9.33,21.6,23.48,26.01c1.1,1.21,1.5,2.9,1.08,4.48l-7.63,28.36-2.56,59.95h10.98c2.66,0,4.82,2.15,4.82,4.82s-2.15,4.82-4.82,4.82h-11.39l-1.89,44.28h13.28c2.66,0,4.82,2.15,4.82,4.82s-2.15,4.82-4.82,4.82h-13.69l-1.72,40.34h36.59Zm-175.34-199.9c0,2.28,1.86,4.13,4.14,4.13s4.13-1.86,4.13-4.13-1.86-4.14-4.13-4.14-4.14,1.86-4.14,4.14Zm12.49-50.03c-.17-.05-.36-.07-.55-.07-1.46,0-3.45,1.24-5.36,3.39-.91,1.03-2.22,1.61-3.6,1.61h-.01c-1.38,0-2.69-.6-3.6-1.63-2.21-2.51-4.52-3.83-6.04-3.42-3.07.81-5.77,9.41-2.86,20.53,2.07,7.89,6.7,14.05,10.49,16.25,1.03-.25,2.09-.41,3.19-.41.66,0,1.29.1,1.93.19,3.28-2.1,7.18-7.51,9.34-15.92,2.89-11.13.15-19.72-2.92-20.52Zm42.13,43.14c-.09-1.52-2-3.28-4.99-4.6-1.26-.56-2.23-1.63-2.65-2.94s-.26-2.75.44-3.93c1.69-2.85,2.22-5.46,1.37-6.79-.53-.83-1.69-1.24-2.57-1.43-.68-.15-1.5-.24-2.43-.24-3.71,0-9.24,1.35-15.39,5.29-7.06,4.54-11.32,10.77-12.21,14.98.8,1.47,1.33,3.07,1.55,4.8,2.48,2.44,8.84,4.56,18.25,3.99,11.48-.7,18.81-5.95,18.62-9.12h0Zm-42.45,38.5c2.03,5.16,5.07,9.72,8.33,12.5,2.38,2.02,4.72,2.93,6.1,2.39,1.42-.56,2.5-2.91,2.82-6.14.14-1.38.85-2.62,1.97-3.43.83-.6,1.82-.92,2.83-.92.35,0,.7.04,1.04.11,3.27.73,5.92.42,6.92-.78.94-1.14.77-3.65-.42-6.53-1.65-3.96-5.05-8.24-9.34-11.75-7-5.74-15.15-7.88-19.19-6.77-.66.58-1.36,1.09-2.12,1.54-2.19,3.12-2.53,10.64,1.08,19.79h0Zm-44.78,4.45c.96,1.18,3.53,1.47,6.71.78,1.36-.3,2.75,0,3.87.81,1.12.81,1.83,2.06,1.96,3.44.32,3.33,1.42,5.75,2.9,6.32,1.38.54,3.7-.39,6.07-2.42,3.26-2.79,6.28-7.35,8.3-12.51,3.46-8.87,2.8-16.66.92-19.86l-4.97-2.28c-3.92.09-9.76,2.2-16.06,7.4-4.28,3.52-7.67,7.81-9.3,11.78-1.2,2.89-1.35,5.39-.39,6.54Zm3.67-32.12c10.02.56,17.55-2.85,19.48-5.67.14-1.09.38-2.15.76-3.15-.46-3.76-4.37-9.74-12.42-14.87-4.68-2.98-9.82-4.88-14.09-5.21-3.13-.25-5.54.39-6.35,1.66-.81,1.26-.28,3.86,1.35,6.63.7,1.19.86,2.63.42,3.94-.43,1.31-1.41,2.38-2.68,2.92-3.06,1.31-5.01,3.11-5.11,4.68-.18,3.16,7.16,8.39,18.64,9.06Z"/>
        <path class="cls-3" d="m413.14,293.56c.36-.73.91-1.36,1.58-1.82.44-.31.94-.54,1.47-.69,5.68-1.56,13.74.94,20.03,6.26,8.98,7.58,12.08,17.66,7.2,23.45-1.86,2.19-4.58,3.4-7.8,3.55-1.23,2.89-3.26,5-5.89,5.99-1.09.41-2.21.6-3.35.6-6.24,0-12.83-5.93-16.33-15.24-2.92-7.72-2.9-15.17.04-19.92.71-1.14,1.83-1.89,3.05-2.16Zm5.94,18.69c2.48,6.59,6.58,9.27,7.21,9.04.14-.1.71-.85.93-2.72.16-1.37.89-2.6,2.02-3.39.82-.58,1.78-.87,2.76-.87.38,0,.75.04,1.12.13,1.91.45,2.82.16,2.9.12.39-.82-.67-5.36-6.04-9.89-4.41-3.73-9.14-4.82-11.1-4.36-.12.04-.25.07-.38.1-.07.14-.14.26-.22.39-1.06,1.71-1.27,6.02.78,11.45Z"/>
        <path class="cls-3" d="m235.67,287.11c1.41-.17,2.7.24,3.69,1.05,1.34-.34,2.77-.11,3.97.74,4.98,3.53,8.22,11.64,8.08,20.17-.21,12.09-6.14,21.12-13.85,21.12h-.16c-2.98-.06-5.74-1.48-7.97-4-3.14.96-6.18.73-8.7-.75-6.72-3.91-7.18-14.8-1.07-25.32,4.29-7.4,10.27-12.27,16-13.03Zm-10.08,30.01c.17.05,1.21.06,2.99-1.07,1.16-.75,2.58-.96,3.91-.58,1.33.37,2.43,1.3,3.03,2.54,1,2.07,1.94,2.56,2.06,2.56,1.03-.11,4.08-4.28,4.2-11.65.11-6.26-2.34-10.95-4.02-12.15-.1-.07-.18-.14-.27-.21-.18.05-.36.08-.55.11-2.14.28-5.85,3-8.93,8.31-3.74,6.45-3.26,11.54-2.42,12.14Z"/>
        <path class="cls-3" d="m386.22,363.42c1.35-.22,2.62.14,3.63.88,1.13-.29,2.3-.16,3.31.32.2.1.4.21.59.34,4.91,3.27,8.29,11,8.39,19.23.15,11.76-5.44,20.71-13.01,20.8h-.1c-2.83,0-5.5-1.26-7.69-3.57-2.99.97-5.91.8-8.38-.53-6.64-3.61-7.42-14.13-1.82-24.46,3.92-7.26,9.56-12.12,15.08-13.02Zm-8.7,28.98c.17.04,1.12-.03,2.65-1.08,1.14-.78,2.56-1.04,3.9-.7,1.34.34,2.47,1.23,3.1,2.46.9,1.73,1.73,2.23,1.81,2.27.88-.24,3.61-4.02,3.52-11.05-.07-5.81-2.4-10.1-4-11.26-.1-.07-.2-.13-.29-.2-.14.04-.29.07-.44.1-1.99.32-5.38,2.99-8.14,8.09-3.36,6.2-2.69,10.81-2.1,11.38Z"/>
        <path class="cls-3" d="m245.59,364.21c1.21-.68,2.59-.78,3.81-.39.96-.69,2.12-1.02,3.29-.9.23.02.46.06.68.11,5.93,1.41,11.97,7.72,15.02,15.71,4.35,11.36,2.15,22.03-5.13,24.82-2.79,1.05-5.87.77-8.87-.75-2.15,1.73-4.55,2.65-6.97,2.65-.46,0-.92-.03-1.38-.11-7.7-1.12-12.18-11.05-10.44-23.08,1.22-8.48,4.95-15.23,9.99-18.06Zm1.82,31.61c.17,0,1.14-.38,2.37-2.11.8-1.13,2.04-1.86,3.42-2,.17-.02.35-.03.51-.03,1.2,0,2.36.45,3.25,1.26,1.71,1.56,2.75,1.67,2.86,1.61.92-.48,2.2-5.49-.44-12.37-2.2-5.76-6.12-9.18-8.15-9.75-.15-.03-.3-.07-.44-.12-.15.11-.31.21-.47.3-1.88,1.05-4.3,4.96-5.18,11.04-1.06,7.36,1.28,11.92,2.28,12.16Z"/>
        <path class="cls-4" d="m329.33,402.78c-.23.12-.47.21-.72.27-.25.06-.51.09-.78.09-.81,0-1.45-.22-1.92-.68-.47-.45-.71-1.06-.71-1.84s.23-1.39.71-1.84c.47-.45,1.11-.68,1.92-.68.27,0,.53.03.78.09.25.06.49.15.72.27v1c-.23-.16-.46-.27-.68-.34-.23-.08-.46-.11-.71-.11-.45,0-.8.14-1.05.43-.26.29-.38.68-.38,1.18s.13.89.38,1.18c.26.29.61.43,1.05.43.25,0,.48-.04.71-.11.23-.07.45-.19.68-.35v1Z"/>
        <path class="cls-4" d="m333.01,400.41c-.1-.05-.2-.08-.3-.11-.1-.02-.2-.03-.3-.03-.3,0-.53.1-.69.29-.16.19-.24.47-.24.82v1.67h-1.16v-3.63h1.16v.6c.15-.24.32-.41.51-.52.19-.11.43-.17.7-.17.04,0,.08,0,.12,0,.05,0,.11,0,.2.02v1.05Z"/>
        <path class="cls-4" d="m337.22,401.22v.33h-2.71c.03.27.13.48.3.61.17.14.4.2.71.2.24,0,.5-.04.75-.11.26-.07.52-.18.79-.33v.9c-.27.11-.55.18-.83.24-.27.05-.55.08-.82.08-.66,0-1.17-.17-1.54-.5-.37-.33-.55-.8-.55-1.41s.18-1.06.54-1.4c.36-.34.85-.51,1.48-.51.57,0,1.03.17,1.37.52.34.34.52.8.52,1.38Zm-1.19-.39c0-.22-.07-.4-.19-.53-.13-.13-.3-.2-.51-.2-.22,0-.41.06-.55.19-.14.13-.23.31-.26.55h1.51Z"/>
        <path class="cls-4" d="m339.73,401.41c-.24,0-.43.04-.55.12-.12.08-.18.2-.18.37,0,.15.05.26.15.35.1.08.24.12.41.12.22,0,.4-.08.55-.23.15-.16.22-.35.22-.59v-.13h-.6Zm1.78-.44v2.08h-1.17v-.54c-.16.22-.33.38-.53.48-.2.1-.43.15-.71.15-.38,0-.68-.11-.92-.33-.23-.22-.35-.51-.35-.86,0-.43.14-.74.44-.94.3-.2.76-.3,1.38-.3h.68v-.09c0-.18-.07-.32-.22-.4-.15-.09-.37-.13-.68-.13-.25,0-.48.02-.7.07-.22.05-.41.12-.6.22v-.89c.25-.06.5-.1.75-.13.25-.03.5-.05.76-.05.65,0,1.13.13,1.42.39.29.26.44.68.44,1.26Z"/>
        <path class="cls-4" d="m343.85,398.38v1.03h1.2v.83h-1.2v1.54c0,.17.03.29.1.34.07.06.2.09.4.09h.6v.83h-1c-.46,0-.79-.1-.98-.29-.19-.19-.29-.52-.29-.98v-1.54h-.58v-.83h.58v-1.03h1.16Z"/>
        <path class="cls-4" d="m349.39,401.22v.33h-2.72c.03.27.13.48.3.61.17.14.4.2.71.2.25,0,.5-.04.75-.11.26-.07.52-.18.79-.33v.9c-.27.11-.55.18-.83.24-.27.05-.55.08-.82.08-.66,0-1.17-.17-1.54-.5-.37-.33-.55-.8-.55-1.41s.18-1.06.54-1.4c.36-.34.85-.51,1.48-.51.57,0,1.03.17,1.37.52.34.34.52.8.52,1.38Zm-1.19-.39c0-.22-.07-.4-.19-.53-.13-.13-.3-.2-.51-.2-.23,0-.41.06-.55.19-.14.13-.23.31-.26.55h1.51Z"/>
        <path class="cls-4" d="m352.74,399.95v-1.95h1.17v5.05h-1.17v-.53c-.16.22-.34.37-.53.47-.19.1-.42.15-.67.15-.45,0-.82-.18-1.1-.53s-.43-.82-.43-1.38.14-1.02.43-1.37.65-.53,1.1-.53c.25,0,.47.05.67.15.19.1.37.26.53.47Zm-.77,2.35c.25,0,.44-.09.57-.27.13-.18.2-.45.2-.79s-.07-.61-.2-.79c-.13-.18-.32-.27-.57-.27s-.43.09-.57.27c-.13.18-.2.44-.2.79s.07.61.2.79c.13.18.32.27.57.27Z"/>
        <path class="cls-4" d="m359.28,402.3c.25,0,.44-.09.57-.27.13-.18.2-.45.2-.79s-.07-.61-.2-.79c-.13-.18-.32-.27-.57-.27s-.44.09-.57.27c-.13.18-.2.45-.2.79s.07.61.2.79c.13.18.32.27.57.27Zm-.77-2.35c.16-.21.33-.37.53-.47.2-.1.42-.15.67-.15.45,0,.81.18,1.1.53.29.36.43.81.43,1.37s-.14,1.02-.43,1.38c-.29.36-.66.53-1.1.53-.25,0-.48-.05-.67-.15-.2-.1-.37-.26-.53-.47v.53h-1.16v-5.05h1.16v1.95Z"/>
        <path class="cls-4" d="m361.63,399.42h1.16l.98,2.47.83-2.47h1.16l-1.53,3.98c-.15.4-.33.69-.54.85-.2.16-.47.24-.81.24h-.67v-.77h.36c.2,0,.34-.03.43-.09.09-.06.16-.17.21-.34l.03-.1-1.62-3.78Z"/>
        <path class="cls-4" d="m370.74,400.08c.2,0,.35-.04.45-.13.1-.09.15-.21.15-.38s-.05-.29-.15-.38c-.1-.09-.25-.13-.45-.13h-.69v1.03h.69Zm.04,2.12c.25,0,.44-.05.57-.16.13-.11.19-.27.19-.48s-.06-.37-.19-.47c-.12-.11-.31-.16-.57-.16h-.73v1.27h.73Zm1.16-1.75c.27.08.48.23.62.44.15.21.22.46.22.77,0,.47-.16.82-.47,1.05-.32.23-.8.35-1.44.35h-2.07v-4.85h1.88c.67,0,1.16.1,1.46.3.3.2.45.53.45.98,0,.24-.06.44-.17.6-.11.16-.27.29-.48.36Z"/>
        <path class="cls-4" d="m377.45,401.22v.33h-2.71c.03.27.13.48.29.61.17.14.4.2.71.2.25,0,.5-.04.75-.11.26-.07.52-.18.79-.33v.9c-.27.11-.55.18-.83.24-.27.05-.55.08-.82.08-.66,0-1.17-.17-1.54-.5-.36-.33-.55-.8-.55-1.41s.18-1.06.54-1.4c.36-.34.85-.51,1.48-.51.57,0,1.03.17,1.37.52.34.34.52.8.52,1.38Zm-1.2-.39c0-.22-.07-.4-.19-.53-.13-.13-.3-.2-.51-.2-.22,0-.41.06-.55.19-.14.13-.23.31-.26.55h1.51Z"/>
        <path class="cls-4" d="m378.33,398h1.16v5.05h-1.16v-5.05Z"/>
        <path class="cls-4" d="m380.6,398h1.16v5.05h-1.16v-5.05Z"/>
        <path class="cls-4" d="m384.61,400.16c-.26,0-.45.09-.59.28-.14.18-.2.45-.2.8s.07.62.2.8c.14.18.33.28.59.28s.45-.09.58-.28c.13-.18.2-.45.2-.8s-.07-.62-.2-.8c-.13-.18-.33-.28-.58-.28Zm0-.83c.63,0,1.11.17,1.46.51.35.34.53.8.53,1.4s-.18,1.07-.53,1.41c-.35.34-.84.5-1.46.5s-1.12-.17-1.48-.5c-.35-.34-.53-.81-.53-1.41s.18-1.06.53-1.4c.36-.34.85-.51,1.48-.51Z"/>
        <path class="cls-4" d="m387.13,399.42h1.13l.61,2.5.61-2.5h.97l.61,2.48.61-2.48h1.13l-.96,3.64h-1.27l-.61-2.5-.61,2.5h-1.27l-.96-3.64Z"/>
        <path class="cls-4" d="m397.22,401.22v.33h-2.71c.03.27.13.48.29.61.17.14.4.2.71.2.25,0,.5-.04.75-.11.26-.07.52-.18.79-.33v.9c-.27.11-.55.18-.83.24-.27.05-.55.08-.82.08-.66,0-1.17-.17-1.54-.5-.36-.33-.55-.8-.55-1.41s.18-1.06.54-1.4c.36-.34.85-.51,1.48-.51.57,0,1.03.17,1.37.52.34.34.52.8.52,1.38Zm-1.19-.39c0-.22-.07-.4-.19-.53-.13-.13-.3-.2-.51-.2-.22,0-.41.06-.55.19-.14.13-.23.31-.26.55h1.51Z"/>
        <path class="cls-4" d="m401.76,400.84v2.21h-1.17v-1.69c0-.32,0-.53-.02-.65-.01-.12-.04-.21-.07-.26-.05-.08-.11-.14-.19-.18-.08-.04-.17-.06-.26-.06-.24,0-.43.09-.57.28-.14.19-.21.45-.21.78v1.79h-1.16v-3.64h1.16v.53c.17-.21.36-.37.56-.47.2-.1.41-.15.65-.15.42,0,.74.13.96.39.22.26.33.63.33,1.12Z"/>
        <path class="cls-4" d="m327.82,404.65v.76h-.64c-.16,0-.28.03-.34.09-.07.06-.1.16-.1.31v.25h.99v.83h-.99v2.81h-1.16v-2.81h-.58v-.83h.58v-.25c0-.39.11-.69.33-.88.22-.19.56-.28,1.02-.28h.89Z"/>
        <path class="cls-4" d="m331.02,407.05c-.1-.05-.2-.08-.3-.11-.1-.02-.2-.04-.3-.04-.3,0-.53.1-.69.29-.16.19-.24.47-.24.82v1.67h-1.16v-3.64h1.16v.6c.15-.24.32-.41.51-.52.19-.11.43-.17.7-.17.04,0,.08,0,.12,0,.05,0,.11,0,.2.02v1.05Z"/>
        <path class="cls-4" d="m333.33,406.8c-.26,0-.45.09-.59.28-.14.18-.2.45-.2.8s.07.62.2.8c.14.18.33.28.59.28s.45-.09.58-.28c.13-.18.2-.45.2-.8s-.07-.62-.2-.8c-.13-.18-.33-.28-.58-.28Zm0-.83c.62,0,1.11.17,1.46.5.35.34.53.81.53,1.4s-.18,1.07-.53,1.4c-.35.34-.84.51-1.46.51s-1.12-.17-1.48-.51c-.35-.34-.53-.81-.53-1.4s.18-1.06.53-1.4c.36-.34.85-.5,1.48-.5Z"/>
        <path class="cls-4" d="m339.54,406.67c.15-.22.32-.39.52-.51.2-.12.43-.18.67-.18.42,0,.73.13.95.39.22.26.33.63.33,1.12v2.21h-1.17v-1.9s0-.06,0-.09c0-.03,0-.07,0-.13,0-.26-.04-.44-.12-.56-.08-.12-.2-.18-.37-.18-.22,0-.39.09-.51.27-.12.18-.18.45-.19.79v1.79h-1.17v-1.9c0-.4-.04-.66-.11-.78-.07-.12-.19-.18-.37-.18-.23,0-.4.09-.52.28-.12.18-.18.44-.18.78v1.79h-1.17v-3.64h1.17v.53c.14-.2.31-.36.49-.46.18-.11.39-.16.61-.16.25,0,.47.06.66.18.19.12.34.29.44.51Z"/>
        <path class="cls-4" d="m346.68,405.03v1.03h1.2v.83h-1.2v1.54c0,.17.03.29.1.34.07.06.2.09.4.09h.6v.83h-1c-.46,0-.79-.1-.98-.29-.19-.19-.29-.52-.29-.98v-1.54h-.58v-.83h.58v-1.03h1.16Z"/>
        <path class="cls-4" d="m352.24,407.49v2.21h-1.17v-1.69c0-.32,0-.54-.02-.65-.01-.12-.04-.21-.07-.26-.04-.08-.11-.14-.19-.18-.08-.04-.17-.06-.26-.06-.24,0-.43.09-.57.28-.14.19-.21.45-.21.78v1.79h-1.16v-5.05h1.16v1.95c.18-.21.36-.37.56-.47.2-.1.41-.15.65-.15.42,0,.74.13.95.39.22.26.33.63.33,1.12Z"/>
        <path class="cls-4" d="m356.95,407.87v.33h-2.72c.03.27.13.48.3.61.17.14.4.2.71.2.25,0,.5-.04.75-.11.26-.07.52-.18.79-.33v.89c-.27.11-.55.18-.83.24-.27.05-.55.08-.82.08-.66,0-1.17-.17-1.54-.5-.37-.33-.55-.8-.55-1.41s.18-1.06.54-1.4c.36-.34.85-.51,1.48-.51.57,0,1.03.17,1.37.52.34.34.52.8.52,1.38Zm-1.19-.39c0-.22-.07-.4-.19-.53-.13-.14-.3-.2-.51-.2-.23,0-.41.06-.55.19-.14.13-.23.31-.26.55h1.51Z"/>
        <path class="cls-4" d="m360.2,404.85h1.4l1.76,3.32v-3.32h1.19v4.85h-1.4l-1.76-3.33v3.33h-1.18v-4.85Z"/>
        <path class="cls-4" d="m367.44,406.8c-.26,0-.46.09-.59.28-.14.18-.2.45-.2.8s.07.62.2.8c.13.18.33.28.59.28s.45-.09.58-.28c.13-.18.2-.45.2-.8s-.07-.62-.2-.8c-.13-.18-.33-.28-.58-.28Zm0-.83c.62,0,1.11.17,1.46.5.35.34.53.81.53,1.4s-.18,1.07-.53,1.4c-.35.34-.84.51-1.46.51s-1.12-.17-1.48-.51c-.35-.34-.53-.81-.53-1.4s.18-1.06.53-1.4c.36-.34.85-.5,1.48-.5Z"/>
        <path class="cls-4" d="m370.24,408.28v-2.22h1.17v.36c0,.2,0,.45,0,.75,0,.3,0,.49,0,.59,0,.29,0,.5.02.63.02.13.04.22.08.28.05.08.11.13.19.18.08.04.17.06.27.06.24,0,.43-.09.57-.28.14-.19.21-.45.21-.78v-1.8h1.16v3.64h-1.16v-.53c-.18.21-.36.37-.56.47-.2.1-.41.15-.65.15-.42,0-.74-.13-.96-.39-.22-.26-.33-.63-.33-1.12Z"/>
        <path class="cls-4" d="m378.67,407.49v2.21h-1.17v-1.69c0-.32,0-.53-.02-.65-.01-.12-.04-.21-.07-.26-.04-.08-.11-.14-.19-.18-.08-.04-.16-.06-.26-.06-.24,0-.43.09-.57.28-.14.19-.21.45-.21.78v1.79h-1.16v-3.64h1.16v.53c.18-.21.36-.37.56-.47.2-.1.42-.15.65-.15.42,0,.74.13.96.39.22.26.33.63.33,1.12Z"/>
        <path class="cls-4" d="m382.11,404.85h2.07c.62,0,1.09.14,1.42.41.33.27.49.66.49,1.17s-.16.9-.49,1.17c-.33.27-.8.41-1.42.41h-.82v1.68h-1.25v-4.85Zm1.25.91v1.35h.69c.24,0,.43-.06.56-.18.13-.12.2-.28.2-.5s-.07-.38-.2-.5c-.13-.12-.32-.18-.56-.18h-.69Z"/>
        <path class="cls-4" d="m389.63,407.05c-.1-.05-.2-.08-.3-.11-.1-.02-.2-.04-.31-.04-.3,0-.53.1-.69.29-.16.19-.24.47-.24.82v1.67h-1.16v-3.64h1.16v.6c.15-.24.32-.41.51-.52.19-.11.43-.17.7-.17.04,0,.08,0,.12,0,.05,0,.11,0,.2.02v1.05Z"/>
        <path class="cls-4" d="m391.94,406.8c-.26,0-.46.09-.59.28-.14.18-.2.45-.2.8s.07.62.2.8c.14.18.33.28.59.28s.45-.09.58-.28c.13-.18.2-.45.2-.8s-.07-.62-.2-.8c-.13-.18-.33-.28-.58-.28Zm0-.83c.62,0,1.11.17,1.46.5.35.34.53.81.53,1.4s-.18,1.07-.53,1.4c-.35.34-.84.51-1.46.51s-1.12-.17-1.48-.51c-.35-.34-.53-.81-.53-1.4s.18-1.06.53-1.4c.36-.34.85-.5,1.48-.5Z"/>
        <path class="cls-4" d="m394.77,406.06h1.16v3.57c0,.48-.12.86-.35,1.11-.23.26-.57.39-1.01.39h-.58v-.77h.2c.22,0,.37-.05.46-.15.08-.1.12-.29.12-.58v-3.57Zm0-1.41h1.16v.95h-1.16v-.95Z"/>
        <path class="cls-4" d="m400.68,407.87v.33h-2.71c.03.27.13.48.3.61.17.14.4.2.71.2.25,0,.5-.04.75-.11.26-.07.52-.18.79-.33v.89c-.27.11-.55.18-.83.24-.27.05-.55.08-.82.08-.66,0-1.17-.17-1.54-.5-.37-.33-.55-.8-.55-1.41s.18-1.06.54-1.4c.36-.34.85-.51,1.48-.51.57,0,1.03.17,1.37.52.34.34.52.8.52,1.38Zm-1.19-.39c0-.22-.07-.4-.19-.53-.13-.14-.3-.2-.51-.2-.22,0-.41.06-.55.19-.14.13-.23.31-.26.55h1.51Z"/>
        <path class="cls-4" d="m404.5,406.18v.95c-.16-.11-.32-.19-.47-.24-.16-.05-.33-.08-.49-.08-.33,0-.58.09-.76.28-.18.19-.27.46-.27.79s.09.6.27.79c.18.19.43.28.76.28.18,0,.35-.03.52-.08.16-.05.32-.13.45-.24v.95c-.18.07-.36.12-.55.15-.19.04-.38.05-.56.05-.66,0-1.17-.17-1.54-.51-.37-.34-.55-.81-.55-1.4s.18-1.07.55-1.4c.37-.34.88-.5,1.54-.5.19,0,.38.02.56.05.18.03.37.08.55.15Z"/>
        <path class="cls-4" d="m406.77,405.03v1.03h1.2v.83h-1.2v1.54c0,.17.03.29.1.34.07.06.2.09.4.09h.6v.83h-1c-.46,0-.79-.1-.98-.29-.19-.19-.29-.52-.29-.98v-1.54h-.58v-.83h.58v-1.03h1.16Z"/>
      </g>
    </g>
  </g>
</svg>