<?xml version="1.0" encoding="UTF-8"?>
<svg id="Layer_2" data-name="Layer 2" xmlns="http://www.w3.org/2000/svg" width="5.24mm" height="5.02mm" viewBox="0 0 14.87 14.24">
  <defs>
    <style>
      .cls-1 {
        fill: none;
        stroke: #545352;
      }
    </style>
  </defs>
  <g id="Layer_1-2" data-name="Layer 1">
    <path class="cls-1" d="m6.96.85c.15-.46.8-.46.95,0l1.07,3.29c.2.62.78,1.04,1.43,1.04h3.46c.48,0,.69.62.29.9l-2.8,2.03c-.53.38-.75,1.06-.54,1.68l1.07,3.29c.15.46-.38.84-.77.56l-2.8-2.03c-.53-.38-1.24-.38-1.76,0l-2.8,2.03c-.39.28-.92-.1-.77-.56l1.07-3.29c.2-.62-.02-1.3-.54-1.68L.71,6.08c-.39-.28-.19-.9.29-.9h3.46c.65,0,1.23-.42,1.43-1.04l1.07-3.29Z"/>
  </g>
</svg>